<?xml version="1.0" encoding="UTF-8" standalone="no"?>
<!-- Created with Inkscape (http://www.inkscape.org/) -->

<svg
   xmlns:dc="http://purl.org/dc/elements/1.1/"
   xmlns:cc="http://creativecommons.org/ns#"
   xmlns:rdf="http://www.w3.org/1999/02/22-rdf-syntax-ns#"
   xmlns:svg="http://www.w3.org/2000/svg"
   xmlns="http://www.w3.org/2000/svg"
   xmlns:sodipodi="http://sodipodi.sourceforge.net/DTD/sodipodi-0.dtd"
   xmlns:inkscape="http://www.inkscape.org/namespaces/inkscape"
   width="744.09448819"
   height="1052.3622047"
   id="svg2"
   version="1.1"
   inkscape:version="0.48.5 r10040"
   sodipodi:docname="New document 1">
  <defs
     id="defs4">
    <clipPath
       id="clipPath3001"
       clipPathUnits="userSpaceOnUse">
      <path
         id="path3003"
         d="M 0,1200 0,0 l 1600,0 0,1200 -1600,0 z" />
    </clipPath>
  </defs>
  <sodipodi:namedview
     id="base"
     pagecolor="#ffffff"
     bordercolor="#666666"
     borderopacity="1.0"
     inkscape:pageopacity="0.0"
     inkscape:pageshadow="2"
     inkscape:zoom="0.35"
     inkscape:cx="-662.76158"
     inkscape:cy="1162.5972"
     inkscape:document-units="px"
     inkscape:current-layer="layer1"
     showgrid="false"
     inkscape:window-width="1918"
     inkscape:window-height="1179"
     inkscape:window-x="0"
     inkscape:window-y="19"
     inkscape:window-maximized="0" />
  <metadata
     id="metadata7">
    <rdf:RDF>
      <cc:Work
         rdf:about="">
        <dc:format>image/svg+xml</dc:format>
        <dc:type
           rdf:resource="http://purl.org/dc/dcmitype/StillImage" />
        <dc:title></dc:title>
      </cc:Work>
    </rdf:RDF>
  </metadata>
  <g
     inkscape:label="Layer 1"
     inkscape:groupmode="layer"
     id="layer1">
    <g
       id="g2995"
       transform="matrix(1.25,0,0,-1.25,-705.71429,1425.2193)" />
    <path
       id="path3043"
       style="fill:#ffffff;fill-opacity:1;fill-rule:nonzero;stroke:none"
       d="m 398.36071,467.1068 c -8.8125,8.2 -9.3125,21.9875 -1.1125,30.8 8.2,8.825 22,9.3125 30.8125,1.1125 8.8125,-8.2 9.3125,-22 1.1125,-30.8125 -8.2125,-8.8125 -22,-9.3 -30.8125,-1.1 z"
       inkscape:connector-curvature="0" />
    <path
       id="path3045"
       style="fill:none;stroke:#000000;stroke-width:2.17499995;stroke-linecap:round;stroke-linejoin:miter;stroke-miterlimit:10;stroke-opacity:0;stroke-dasharray:none"
       d="m 398.36071,467.1068 c -8.8125,8.2 -9.3125,21.9875 -1.1125,30.8 8.2,8.825 22,9.3125 30.8125,1.1125 8.8125,-8.2 9.3125,-22 1.1125,-30.8125 -8.2125,-8.8125 -22,-9.3 -30.8125,-1.1 z"
       inkscape:connector-curvature="0" />
    <path
       id="path3047"
       style="fill:none;stroke:#000000;stroke-width:3.27499986;stroke-linecap:round;stroke-linejoin:miter;stroke-miterlimit:10;stroke-opacity:1;stroke-dasharray:none"
       d="m 398.36071,467.1068 c -8.8125,8.2 -9.3125,21.9875 -1.1125,30.8 8.2,8.825 22,9.3125 30.8125,1.1125 8.8125,-8.2 9.3125,-22 1.1125,-30.8125 -8.2125,-8.8125 -22,-9.3 -30.8125,-1.1 z"
       inkscape:connector-curvature="0" />
    <path
       id="path3049"
       style="fill:none;stroke:#000000;stroke-width:3.27499986;stroke-linecap:round;stroke-linejoin:miter;stroke-miterlimit:10;stroke-opacity:1;stroke-dasharray:none"
       d="m 413.21071,483.0568 -14.85,-15.95"
       inkscape:connector-curvature="0" />
    <path
       id="path3771"
       style="fill:#ff0000;fill-opacity:1;fill-rule:nonzero;stroke:none"
       d="m 75.28571,419.3193 c 11.95,1.525 22.8625,-6.9125 24.3875,-18.8625 1.5375,-11.9375 -6.9125,-22.8625 -18.85,-24.3875 -11.9375,-1.525 -22.8625,6.9125 -24.3875,18.8625 -1.5375,11.9375 6.9125,22.8625 18.85,24.3875 z"
       inkscape:connector-curvature="0" />
    <path
       id="path3773"
       style="fill:none;stroke:#000000;stroke-width:2.17499995;stroke-linecap:round;stroke-linejoin:miter;stroke-miterlimit:10;stroke-opacity:0;stroke-dasharray:none"
       d="m 75.28571,419.3193 c 11.95,1.525 22.8625,-6.9125 24.3875,-18.8625 1.5375,-11.9375 -6.9125,-22.8625 -18.85,-24.3875 -11.9375,-1.525 -22.8625,6.9125 -24.3875,18.8625 -1.5375,11.9375 6.9125,22.8625 18.85,24.3875 z"
       inkscape:connector-curvature="0" />
    <path
       id="path3775"
       style="fill:none;stroke:#000000;stroke-width:3.27499986;stroke-linecap:round;stroke-linejoin:miter;stroke-miterlimit:10;stroke-opacity:1;stroke-dasharray:none"
       d="m 75.28571,419.3193 c 11.95,1.525 22.8625,-6.9125 24.3875,-18.8625 1.5375,-11.9375 -6.9125,-22.8625 -18.85,-24.3875 -11.9375,-1.525 -22.8625,6.9125 -24.3875,18.8625 -1.5375,11.9375 6.9125,22.8625 18.85,24.3875 z"
       inkscape:connector-curvature="0" />
    <path
       id="path3777"
       style="fill:none;stroke:#000000;stroke-width:3.27499986;stroke-linecap:round;stroke-linejoin:miter;stroke-miterlimit:10;stroke-opacity:1;stroke-dasharray:none"
       d="m 78.06071,397.6943 -2.775,21.625"
       inkscape:connector-curvature="0" />
    <path
       id="path4315"
       style="fill:#ffffff;fill-opacity:1;fill-rule:nonzero;stroke:none"
       d="m 206.04821,348.8318 c -11.825,-2.225 -23.225,5.5625 -25.45,17.4 -2.2125,11.825 5.575,23.225 17.4,25.45 11.8375,2.2125 23.225,-5.575 25.45,-17.4125 2.225,-11.825 -5.5625,-23.225 -17.4,-25.4375 z"
       inkscape:connector-curvature="0" />
    <path
       id="path4317"
       style="fill:none;stroke:#000000;stroke-width:2.17499995;stroke-linecap:round;stroke-linejoin:miter;stroke-miterlimit:10;stroke-opacity:0;stroke-dasharray:none"
       d="m 206.04821,348.8318 c -11.825,-2.225 -23.225,5.5625 -25.45,17.4 -2.2125,11.825 5.575,23.225 17.4,25.45 11.8375,2.2125 23.225,-5.575 25.45,-17.4125 2.225,-11.825 -5.5625,-23.225 -17.4,-25.4375 z"
       inkscape:connector-curvature="0" />
    <path
       id="path4319"
       style="fill:none;stroke:#000000;stroke-width:3.27499986;stroke-linecap:round;stroke-linejoin:miter;stroke-miterlimit:10;stroke-opacity:1;stroke-dasharray:none"
       d="m 206.04821,348.8318 c -11.825,-2.225 -23.225,5.5625 -25.45,17.4 -2.2125,11.825 5.575,23.225 17.4,25.45 11.8375,2.2125 23.225,-5.575 25.45,-17.4125 2.225,-11.825 -5.5625,-23.225 -17.4,-25.4375 z"
       inkscape:connector-curvature="0" />
    <path
       id="path4321"
       style="fill:none;stroke:#000000;stroke-width:3.27499986;stroke-linecap:round;stroke-linejoin:miter;stroke-miterlimit:10;stroke-opacity:1;stroke-dasharray:none"
       d="m 202.02321,370.2568 4.025,-21.425"
       inkscape:connector-curvature="0" />
    <path
       id="path4403"
       style="fill:#ffffff;fill-opacity:1;fill-rule:nonzero;stroke:none"
       d="m 589.47321,648.3193 c 3.6625,11.4625 15.9375,17.7875 27.4,14.125 11.4625,-3.6625 17.7875,-15.9375 14.125,-27.4 -3.6625,-11.4625 -15.9375,-17.7875 -27.4,-14.125 -11.4625,3.6625 -17.7875,15.9375 -14.125,27.4 z"
       inkscape:connector-curvature="0" />
    <path
       id="path4405"
       style="fill:none;stroke:#000000;stroke-width:2.17499995;stroke-linecap:round;stroke-linejoin:miter;stroke-miterlimit:10;stroke-opacity:0;stroke-dasharray:none"
       d="m 589.47321,648.3193 c 3.6625,11.4625 15.9375,17.7875 27.4,14.125 11.4625,-3.6625 17.7875,-15.9375 14.125,-27.4 -3.6625,-11.4625 -15.9375,-17.7875 -27.4,-14.125 -11.4625,3.6625 -17.7875,15.9375 -14.125,27.4 z"
       inkscape:connector-curvature="0" />
    <path
       id="path4407"
       style="fill:none;stroke:#000000;stroke-width:3.27499986;stroke-linecap:round;stroke-linejoin:miter;stroke-miterlimit:10;stroke-opacity:1;stroke-dasharray:none"
       d="m 589.47321,648.3193 c 3.6625,11.4625 15.9375,17.7875 27.4,14.125 11.4625,-3.6625 17.7875,-15.9375 14.125,-27.4 -3.6625,-11.4625 -15.9375,-17.7875 -27.4,-14.125 -11.4625,3.6625 -17.7875,15.9375 -14.125,27.4 z"
       inkscape:connector-curvature="0" />
    <path
       id="path4409"
       style="fill:none;stroke:#000000;stroke-width:3.27499986;stroke-linecap:round;stroke-linejoin:miter;stroke-miterlimit:10;stroke-opacity:1;stroke-dasharray:none"
       d="m 610.23571,641.6818 -20.7625,6.6375"
       inkscape:connector-curvature="0" />
    <path
       id="path5187"
       style="fill:#ff0000;fill-opacity:1;fill-rule:nonzero;stroke:none"
       d="m 360.17321,680.2443 c 6.65,-10.0375 3.9,-23.5625 -6.1375,-30.2125 -10.0375,-6.65 -23.5625,-3.9 -30.2125,6.1375 -6.6375,10.0375 -3.9,23.5625 6.1375,30.2125 10.0375,6.65 23.5625,3.9 30.2125,-6.1375 z"
       inkscape:connector-curvature="0" />
    <path
       id="path5189"
       style="fill:none;stroke:#000000;stroke-width:2.17499995;stroke-linecap:round;stroke-linejoin:miter;stroke-miterlimit:10;stroke-opacity:0;stroke-dasharray:none"
       d="m 360.17321,680.2443 c 6.65,-10.0375 3.9,-23.5625 -6.1375,-30.2125 -10.0375,-6.65 -23.5625,-3.9 -30.2125,6.1375 -6.6375,10.0375 -3.9,23.5625 6.1375,30.2125 10.0375,6.65 23.5625,3.9 30.2125,-6.1375 z"
       inkscape:connector-curvature="0" />
    <path
       id="path5191"
       style="fill:none;stroke:#000000;stroke-width:3.27499986;stroke-linecap:round;stroke-linejoin:miter;stroke-miterlimit:10;stroke-opacity:1;stroke-dasharray:none"
       d="m 360.17321,680.2443 c 6.65,-10.0375 3.9,-23.5625 -6.1375,-30.2125 -10.0375,-6.65 -23.5625,-3.9 -30.2125,6.1375 -6.6375,10.0375 -3.9,23.5625 6.1375,30.2125 10.0375,6.65 23.5625,3.9 30.2125,-6.1375 z"
       inkscape:connector-curvature="0" />
    <path
       id="path5193"
       style="fill:none;stroke:#000000;stroke-width:3.27499986;stroke-linecap:round;stroke-linejoin:miter;stroke-miterlimit:10;stroke-opacity:1;stroke-dasharray:none"
       d="m 341.99821,668.2068 18.175,12.0375"
       inkscape:connector-curvature="0" />
    <path
       id="path5203"
       style="fill:#ff0000;fill-opacity:1;fill-rule:nonzero;stroke:none"
       d="m 242.29821,553.3068 c -10.4375,5.9875 -14.05,19.3125 -8.0625,29.75 5.9875,10.45 19.3125,14.0625 29.75,8.075 10.45,-6 14.0625,-19.3125 8.075,-29.7625 -6,-10.4375 -19.3125,-14.05 -29.7625,-8.0625 z"
       inkscape:connector-curvature="0" />
    <path
       id="path5205"
       style="fill:none;stroke:#000000;stroke-width:2.17499995;stroke-linecap:round;stroke-linejoin:miter;stroke-miterlimit:10;stroke-opacity:0;stroke-dasharray:none"
       d="m 242.29821,553.3068 c -10.4375,5.9875 -14.05,19.3125 -8.0625,29.75 5.9875,10.45 19.3125,14.0625 29.75,8.075 10.45,-6 14.0625,-19.3125 8.075,-29.7625 -6,-10.4375 -19.3125,-14.05 -29.7625,-8.0625 z"
       inkscape:connector-curvature="0" />
    <path
       id="path5207"
       style="fill:none;stroke:#000000;stroke-width:3.27499986;stroke-linecap:round;stroke-linejoin:miter;stroke-miterlimit:10;stroke-opacity:1;stroke-dasharray:none"
       d="m 242.29821,553.3068 c -10.4375,5.9875 -14.05,19.3125 -8.0625,29.75 5.9875,10.45 19.3125,14.0625 29.75,8.075 10.45,-6 14.0625,-19.3125 8.075,-29.7625 -6,-10.4375 -19.3125,-14.05 -29.7625,-8.0625 z"
       inkscape:connector-curvature="0" />
    <path
       id="path5209"
       style="fill:none;stroke:#000000;stroke-width:3.27499986;stroke-linecap:round;stroke-linejoin:miter;stroke-miterlimit:10;stroke-opacity:1;stroke-dasharray:none"
       d="m 253.14821,572.2193 -10.85,-18.9125"
       inkscape:connector-curvature="0" />
    <path
       id="path5259"
       style="fill:#ff0000;fill-opacity:1;fill-rule:nonzero;stroke:none"
       d="m 186.33571,464.8693 c -11.3875,-3.9125 -23.7875,2.1375 -27.7,13.525 -3.925,11.3875 2.1375,23.7875 13.525,27.7 11.3875,3.9125 23.7875,-2.1375 27.7,-13.525 3.9125,-11.3875 -2.1375,-23.7875 -13.525,-27.7 z"
       inkscape:connector-curvature="0" />
    <path
       id="path5261"
       style="fill:none;stroke:#000000;stroke-width:2.17499995;stroke-linecap:round;stroke-linejoin:miter;stroke-miterlimit:10;stroke-opacity:0;stroke-dasharray:none"
       d="m 186.33571,464.8693 c -11.3875,-3.9125 -23.7875,2.1375 -27.7,13.525 -3.925,11.3875 2.1375,23.7875 13.525,27.7 11.3875,3.9125 23.7875,-2.1375 27.7,-13.525 3.9125,-11.3875 -2.1375,-23.7875 -13.525,-27.7 z"
       inkscape:connector-curvature="0" />
    <path
       id="path5263"
       style="fill:none;stroke:#000000;stroke-width:3.27499986;stroke-linecap:round;stroke-linejoin:miter;stroke-miterlimit:10;stroke-opacity:1;stroke-dasharray:none"
       d="m 186.33571,464.8693 c -11.3875,-3.9125 -23.7875,2.1375 -27.7,13.525 -3.925,11.3875 2.1375,23.7875 13.525,27.7 11.3875,3.9125 23.7875,-2.1375 27.7,-13.525 3.9125,-11.3875 -2.1375,-23.7875 -13.525,-27.7 z"
       inkscape:connector-curvature="0" />
    <path
       id="path5265"
       style="fill:none;stroke:#000000;stroke-width:3.27499986;stroke-linecap:round;stroke-linejoin:miter;stroke-miterlimit:10;stroke-opacity:1;stroke-dasharray:none"
       d="m 179.24821,485.4818 7.0875,-20.6125"
       inkscape:connector-curvature="0" />
    <path
       id="path5563"
       style="fill:#ffffff;fill-opacity:1;fill-rule:nonzero;stroke:none"
       d="m 459.06071,512.6568 c -3.7625,11.4375 2.45,23.7625 13.8875,27.525 11.4375,3.7625 23.7625,-2.4625 27.525,-13.9 3.7625,-11.425 -2.4625,-23.75 -13.9,-27.5125 -11.425,-3.7625 -23.75,2.45 -27.5125,13.8875 z"
       inkscape:connector-curvature="0" />
    <path
       id="path5565"
       style="fill:none;stroke:#000000;stroke-width:2.17499995;stroke-linecap:round;stroke-linejoin:miter;stroke-miterlimit:10;stroke-opacity:0;stroke-dasharray:none"
       d="m 459.06071,512.6568 c -3.7625,11.4375 2.45,23.7625 13.8875,27.525 11.4375,3.7625 23.7625,-2.4625 27.525,-13.9 3.7625,-11.425 -2.4625,-23.75 -13.9,-27.5125 -11.425,-3.7625 -23.75,2.45 -27.5125,13.8875 z"
       inkscape:connector-curvature="0" />
    <path
       id="path5567"
       style="fill:none;stroke:#000000;stroke-width:3.27499986;stroke-linecap:round;stroke-linejoin:miter;stroke-miterlimit:10;stroke-opacity:1;stroke-dasharray:none"
       d="m 459.06071,512.6568 c -3.7625,11.4375 2.45,23.7625 13.8875,27.525 11.4375,3.7625 23.7625,-2.4625 27.525,-13.9 3.7625,-11.425 -2.4625,-23.75 -13.9,-27.5125 -11.425,-3.7625 -23.75,2.45 -27.5125,13.8875 z"
       inkscape:connector-curvature="0" />
    <path
       id="path5569"
       style="fill:none;stroke:#000000;stroke-width:3.27499986;stroke-linecap:round;stroke-linejoin:miter;stroke-miterlimit:10;stroke-opacity:1;stroke-dasharray:none"
       d="m 479.76071,519.4693 -20.7,-6.8125"
       inkscape:connector-curvature="0" />
    <path
       id="path5819"
       style="fill:#ffffff;fill-opacity:1;fill-rule:nonzero;stroke:none"
       d="m 622.74107,472.38894 c -11.6875,-2.875 -23.5,4.275 -26.375,15.9625 -2.875,11.6875 4.275,23.5 15.9625,26.375 11.6875,2.875 23.5,-4.275 26.375,-15.9625 2.875,-11.6875 -4.275,-23.5 -15.9625,-26.375 z"
       inkscape:connector-curvature="0" />
    <path
       id="path5821"
       style="fill:none;stroke:#000000;stroke-width:2.17499995;stroke-linecap:round;stroke-linejoin:miter;stroke-miterlimit:10;stroke-opacity:0;stroke-dasharray:none"
       d="m 622.74107,472.38894 c -11.6875,-2.875 -23.5,4.275 -26.375,15.9625 -2.875,11.6875 4.275,23.5 15.9625,26.375 11.6875,2.875 23.5,-4.275 26.375,-15.9625 2.875,-11.6875 -4.275,-23.5 -15.9625,-26.375 z"
       inkscape:connector-curvature="0" />
    <path
       id="path5823"
       style="fill:none;stroke:#000000;stroke-width:3.27499986;stroke-linecap:round;stroke-linejoin:miter;stroke-miterlimit:10;stroke-opacity:1;stroke-dasharray:none"
       d="m 622.74107,472.38894 c -11.6875,-2.875 -23.5,4.275 -26.375,15.9625 -2.875,11.6875 4.275,23.5 15.9625,26.375 11.6875,2.875 23.5,-4.275 26.375,-15.9625 2.875,-11.6875 -4.275,-23.5 -15.9625,-26.375 z"
       inkscape:connector-curvature="0" />
    <path
       id="path5825"
       style="fill:none;stroke:#000000;stroke-width:3.27499986;stroke-linecap:round;stroke-linejoin:miter;stroke-miterlimit:10;stroke-opacity:1;stroke-dasharray:none"
       d="m 617.52857,493.56394 5.2125,-21.175"
       inkscape:connector-curvature="0" />
    <path
       id="path5907"
       style="fill:#ff0000;fill-opacity:1;fill-rule:nonzero;stroke:none"
       d="m 554.69821,781.3818 c -11.125,4.6125 -16.3875,17.375 -11.7625,28.4875 4.6125,11.125 17.375,16.3875 28.4875,11.7625 11.125,-4.6125 16.3875,-17.375 11.7625,-28.4875 -4.6125,-11.125 -17.375,-16.3875 -28.4875,-11.7625 z"
       inkscape:connector-curvature="0" />
    <path
       id="path5909"
       style="fill:none;stroke:#000000;stroke-width:2.17499995;stroke-linecap:round;stroke-linejoin:miter;stroke-miterlimit:10;stroke-opacity:0;stroke-dasharray:none"
       d="m 554.69821,781.3818 c -11.125,4.6125 -16.3875,17.375 -11.7625,28.4875 4.6125,11.125 17.375,16.3875 28.4875,11.7625 11.125,-4.6125 16.3875,-17.375 11.7625,-28.4875 -4.6125,-11.125 -17.375,-16.3875 -28.4875,-11.7625 z"
       inkscape:connector-curvature="0" />
    <path
       id="path5911"
       style="fill:none;stroke:#000000;stroke-width:3.27499986;stroke-linecap:round;stroke-linejoin:miter;stroke-miterlimit:10;stroke-opacity:1;stroke-dasharray:none"
       d="m 554.69821,781.3818 c -11.125,4.6125 -16.3875,17.375 -11.7625,28.4875 4.6125,11.125 17.375,16.3875 28.4875,11.7625 11.125,-4.6125 16.3875,-17.375 11.7625,-28.4875 -4.6125,-11.125 -17.375,-16.3875 -28.4875,-11.7625 z"
       inkscape:connector-curvature="0" />
    <path
       id="path5913"
       style="fill:none;stroke:#000000;stroke-width:3.27499986;stroke-linecap:round;stroke-linejoin:miter;stroke-miterlimit:10;stroke-opacity:1;stroke-dasharray:none"
       d="m 563.06071,801.5068 -8.3625,-20.125"
       inkscape:connector-curvature="0" />
    <path
       id="path5939"
       style="fill:#ff0000;fill-opacity:1;fill-rule:nonzero;stroke:none"
       d="m 438.74821,739.6068 c -8.7375,-8.2875 -22.5375,-7.9125 -30.8125,0.825 -8.2875,8.7375 -7.9125,22.5375 0.825,30.825 8.7375,8.275 22.5375,7.9 30.8125,-0.8375 8.2875,-8.7375 7.9125,-22.5375 -0.825,-30.8125 z"
       inkscape:connector-curvature="0" />
    <path
       id="path5941"
       style="fill:none;stroke:#000000;stroke-width:2.17499995;stroke-linecap:round;stroke-linejoin:miter;stroke-miterlimit:10;stroke-opacity:0;stroke-dasharray:none"
       d="m 438.74821,739.6068 c -8.7375,-8.2875 -22.5375,-7.9125 -30.8125,0.825 -8.2875,8.7375 -7.9125,22.5375 0.825,30.825 8.7375,8.275 22.5375,7.9 30.8125,-0.8375 8.2875,-8.7375 7.9125,-22.5375 -0.825,-30.8125 z"
       inkscape:connector-curvature="0" />
    <path
       id="path5943"
       style="fill:none;stroke:#000000;stroke-width:3.27499986;stroke-linecap:round;stroke-linejoin:miter;stroke-miterlimit:10;stroke-opacity:1;stroke-dasharray:none"
       d="m 438.74821,739.6068 c -8.7375,-8.2875 -22.5375,-7.9125 -30.8125,0.825 -8.2875,8.7375 -7.9125,22.5375 0.825,30.825 8.7375,8.275 22.5375,7.9 30.8125,-0.8375 8.2875,-8.7375 7.9125,-22.5375 -0.825,-30.8125 z"
       inkscape:connector-curvature="0" />
    <path
       id="path5945"
       style="fill:none;stroke:#000000;stroke-width:3.27499986;stroke-linecap:round;stroke-linejoin:miter;stroke-miterlimit:10;stroke-opacity:1;stroke-dasharray:none"
       d="m 423.76071,755.4318 14.9875,-15.825"
       inkscape:connector-curvature="0" />
    <path
       id="path6099"
       style="fill:#ffffff;fill-opacity:1;fill-rule:nonzero;stroke:none"
       d="m 404.28392,327.08894 c -11.975,1.2625 -20.6625,11.9875 -19.4,23.9625 1.2625,11.975 11.9875,20.6625 23.9625,19.4 11.975,-1.2625 20.65,-11.9875 19.4,-23.9625 -1.2625,-11.975 -12,-20.6625 -23.9625,-19.4 z"
       inkscape:connector-curvature="0" />
    <path
       id="path6101"
       style="fill:none;stroke:#000000;stroke-width:2.17499995;stroke-linecap:round;stroke-linejoin:miter;stroke-miterlimit:10;stroke-opacity:0;stroke-dasharray:none"
       d="m 404.28392,327.08894 c -11.975,1.2625 -20.6625,11.9875 -19.4,23.9625 1.2625,11.975 11.9875,20.6625 23.9625,19.4 11.975,-1.2625 20.65,-11.9875 19.4,-23.9625 -1.2625,-11.975 -12,-20.6625 -23.9625,-19.4 z"
       inkscape:connector-curvature="0" />
    <path
       id="path6103"
       style="fill:none;stroke:#000000;stroke-width:3.27499986;stroke-linecap:round;stroke-linejoin:miter;stroke-miterlimit:10;stroke-opacity:1;stroke-dasharray:none"
       d="m 404.28392,327.08894 c -11.975,1.2625 -20.6625,11.9875 -19.4,23.9625 1.2625,11.975 11.9875,20.6625 23.9625,19.4 11.975,-1.2625 20.65,-11.9875 19.4,-23.9625 -1.2625,-11.975 -12,-20.6625 -23.9625,-19.4 z"
       inkscape:connector-curvature="0" />
    <path
       id="path6105"
       style="fill:none;stroke:#000000;stroke-width:3.27499986;stroke-linecap:round;stroke-linejoin:miter;stroke-miterlimit:10;stroke-opacity:1;stroke-dasharray:none"
       d="m 406.55892,348.77644 -2.275,-21.6875"
       inkscape:connector-curvature="0" />
    <path
       id="path6395"
       style="fill:#ffffff;fill-opacity:1;fill-rule:nonzero;stroke:none"
       d="m 509.36607,420.78716 c 8.8375,8.1625 22.625,7.625 30.8,-1.2125 8.175,-8.8375 7.6375,-22.6375 -1.2,-30.8 -8.85,-8.175 -22.6375,-7.6375 -30.8125,1.2 -8.175,8.85 -7.625,22.6375 1.2125,30.8125 z"
       inkscape:connector-curvature="0" />
    <path
       id="path6397"
       style="fill:none;stroke:#000000;stroke-width:2.17499995;stroke-linecap:round;stroke-linejoin:miter;stroke-miterlimit:10;stroke-opacity:0;stroke-dasharray:none"
       d="m 509.36607,420.78716 c 8.8375,8.1625 22.625,7.625 30.8,-1.2125 8.175,-8.8375 7.6375,-22.6375 -1.2,-30.8 -8.85,-8.175 -22.6375,-7.6375 -30.8125,1.2 -8.175,8.85 -7.625,22.6375 1.2125,30.8125 z"
       inkscape:connector-curvature="0" />
    <path
       id="path6399"
       style="fill:none;stroke:#000000;stroke-width:3.27499986;stroke-linecap:round;stroke-linejoin:miter;stroke-miterlimit:10;stroke-opacity:1;stroke-dasharray:none"
       d="m 509.36607,420.78716 c 8.8375,8.1625 22.625,7.625 30.8,-1.2125 8.175,-8.8375 7.6375,-22.6375 -1.2,-30.8 -8.85,-8.175 -22.6375,-7.6375 -30.8125,1.2 -8.175,8.85 -7.625,22.6375 1.2125,30.8125 z"
       inkscape:connector-curvature="0" />
    <path
       id="path6401"
       style="fill:none;stroke:#000000;stroke-width:3.27499986;stroke-linecap:round;stroke-linejoin:miter;stroke-miterlimit:10;stroke-opacity:1;stroke-dasharray:none"
       d="m 524.16607,404.77466 -14.8,16.0125"
       inkscape:connector-curvature="0" />
    <path
       id="path6541"
       style="fill:none;stroke:#000000;stroke-width:2.17499995;stroke-linecap:round;stroke-linejoin:miter;stroke-miterlimit:10;stroke-opacity:0;stroke-dasharray:none"
       d="m 664.37321,496.0068 c -3.075,-11.6375 -15,-18.5875 -26.6375,-15.5125 -11.6375,3.075 -18.5875,15.0125 -15.5125,26.65 3.075,11.6375 15,18.5875 26.6375,15.5125 11.65,-3.075 18.5875,-15.0125 15.5125,-26.65 z"
       inkscape:connector-curvature="0" />
    <path
       id="path6555"
       style="fill:#ffffff;fill-opacity:1;fill-rule:nonzero;stroke:none"
       d="m 363.81071,602.0943 c 11.975,-1.225 20.7,-11.9125 19.4875,-23.8875 -1.2125,-11.9875 -11.9,-20.7125 -23.875,-19.4875 -11.9875,1.2125 -20.7125,11.9 -19.5,23.875 1.2125,11.9875 11.9125,20.7125 23.8875,19.5 z"
       inkscape:connector-curvature="0" />
    <path
       id="path6557"
       style="fill:none;stroke:#000000;stroke-width:2.17499995;stroke-linecap:round;stroke-linejoin:miter;stroke-miterlimit:10;stroke-opacity:0;stroke-dasharray:none"
       d="m 363.81071,602.0943 c 11.975,-1.225 20.7,-11.9125 19.4875,-23.8875 -1.2125,-11.9875 -11.9,-20.7125 -23.875,-19.4875 -11.9875,1.2125 -20.7125,11.9 -19.5,23.875 1.2125,11.9875 11.9125,20.7125 23.8875,19.5 z"
       inkscape:connector-curvature="0" />
    <path
       id="path6559"
       style="fill:none;stroke:#000000;stroke-width:3.27499986;stroke-linecap:round;stroke-linejoin:miter;stroke-miterlimit:10;stroke-opacity:1;stroke-dasharray:none"
       d="m 363.81071,602.0943 c 11.975,-1.225 20.7,-11.9125 19.4875,-23.8875 -1.2125,-11.9875 -11.9,-20.7125 -23.875,-19.4875 -11.9875,1.2125 -20.7125,11.9 -19.5,23.875 1.2125,11.9875 11.9125,20.7125 23.8875,19.5 z"
       inkscape:connector-curvature="0" />
    <path
       id="path6561"
       style="fill:none;stroke:#000000;stroke-width:3.27499986;stroke-linecap:round;stroke-linejoin:miter;stroke-miterlimit:10;stroke-opacity:1;stroke-dasharray:none"
       d="m 361.61071,580.4068 2.2,21.6875"
       inkscape:connector-curvature="0" />
    <path
       id="path6571"
       style="fill:#ffffff;fill-opacity:1;fill-rule:nonzero;stroke:none"
       d="m 530.04821,589.1943 c 10.65,5.625 23.8375,1.55 29.4625,-9.1 5.6125,-10.65 1.5375,-23.8375 -9.1,-29.45 -10.65,-5.625 -23.8375,-1.55 -29.4625,9.1 -5.625,10.6375 -1.55,23.825 9.1,29.45 z"
       inkscape:connector-curvature="0" />
    <path
       id="path6573"
       style="fill:none;stroke:#000000;stroke-width:2.17499995;stroke-linecap:round;stroke-linejoin:miter;stroke-miterlimit:10;stroke-opacity:0;stroke-dasharray:none"
       d="m 530.04821,589.1943 c 10.65,5.625 23.8375,1.55 29.4625,-9.1 5.6125,-10.65 1.5375,-23.8375 -9.1,-29.45 -10.65,-5.625 -23.8375,-1.55 -29.4625,9.1 -5.625,10.6375 -1.55,23.825 9.1,29.45 z"
       inkscape:connector-curvature="0" />
    <path
       id="path6575"
       style="fill:none;stroke:#000000;stroke-width:3.27499986;stroke-linecap:round;stroke-linejoin:miter;stroke-miterlimit:10;stroke-opacity:1;stroke-dasharray:none"
       d="m 530.04821,589.1943 c 10.65,5.625 23.8375,1.55 29.4625,-9.1 5.6125,-10.65 1.5375,-23.8375 -9.1,-29.45 -10.65,-5.625 -23.8375,-1.55 -29.4625,9.1 -5.625,10.6375 -1.55,23.825 9.1,29.45 z"
       inkscape:connector-curvature="0" />
    <path
       id="path6577"
       style="fill:none;stroke:#000000;stroke-width:3.27499986;stroke-linecap:round;stroke-linejoin:miter;stroke-miterlimit:10;stroke-opacity:1;stroke-dasharray:none"
       d="m 540.22321,569.9193 -10.175,19.275"
       inkscape:connector-curvature="0" />
    <path
       id="path6691"
       style="fill:#ffffff;fill-opacity:1;fill-rule:nonzero;stroke:none"
       d="m 302.21071,446.1068 c 11.8,2.35 23.2875,-5.3 25.6375,-17.1125 2.3625,-11.8 -5.3,-23.2875 -17.1125,-25.6375 -11.8,-2.3625 -23.2875,5.3 -25.6375,17.1125 -2.3625,11.8 5.3,23.2875 17.1125,25.6375 z"
       inkscape:connector-curvature="0" />
    <path
       id="path6693"
       style="fill:none;stroke:#000000;stroke-width:2.17499995;stroke-linecap:round;stroke-linejoin:miter;stroke-miterlimit:10;stroke-opacity:0;stroke-dasharray:none"
       d="m 302.21071,446.1068 c 11.8,2.35 23.2875,-5.3 25.6375,-17.1125 2.3625,-11.8 -5.3,-23.2875 -17.1125,-25.6375 -11.8,-2.3625 -23.2875,5.3 -25.6375,17.1125 -2.3625,11.8 5.3,23.2875 17.1125,25.6375 z"
       inkscape:connector-curvature="0" />
    <path
       id="path6695"
       style="fill:none;stroke:#000000;stroke-width:3.27499986;stroke-linecap:round;stroke-linejoin:miter;stroke-miterlimit:10;stroke-opacity:1;stroke-dasharray:none"
       d="m 302.21071,446.1068 c 11.8,2.35 23.2875,-5.3 25.6375,-17.1125 2.3625,-11.8 -5.3,-23.2875 -17.1125,-25.6375 -11.8,-2.3625 -23.2875,5.3 -25.6375,17.1125 -2.3625,11.8 5.3,23.2875 17.1125,25.6375 z"
       inkscape:connector-curvature="0" />
    <path
       id="path6697"
       style="fill:none;stroke:#000000;stroke-width:3.27499986;stroke-linecap:round;stroke-linejoin:miter;stroke-miterlimit:10;stroke-opacity:1;stroke-dasharray:none"
       d="m 306.47321,424.7318 -4.2625,21.375"
       inkscape:connector-curvature="0" />
    <path
       id="path6795"
       style="fill:#ffffff;fill-opacity:1;fill-rule:nonzero;stroke:none"
       d="m 475.54821,673.8193 c -9.175,7.7875 -10.3,21.55 -2.5125,30.725 7.8,9.175 21.55,10.3 30.7375,2.5125 9.175,-7.8 10.3,-21.55 2.5,-30.7375 -7.7875,-9.175 -21.55,-10.3 -30.725,-2.5 z"
       inkscape:connector-curvature="0" />
    <path
       id="path6797"
       style="fill:none;stroke:#000000;stroke-width:2.17499995;stroke-linecap:round;stroke-linejoin:miter;stroke-miterlimit:10;stroke-opacity:0;stroke-dasharray:none"
       d="m 475.54821,673.8193 c -9.175,7.7875 -10.3,21.55 -2.5125,30.725 7.8,9.175 21.55,10.3 30.7375,2.5125 9.175,-7.8 10.3,-21.55 2.5,-30.7375 -7.7875,-9.175 -21.55,-10.3 -30.725,-2.5 z"
       inkscape:connector-curvature="0" />
    <path
       id="path6799"
       style="fill:none;stroke:#000000;stroke-width:3.27499986;stroke-linecap:round;stroke-linejoin:miter;stroke-miterlimit:10;stroke-opacity:1;stroke-dasharray:none"
       d="m 475.54821,673.8193 c -9.175,7.7875 -10.3,21.55 -2.5125,30.725 7.8,9.175 21.55,10.3 30.7375,2.5125 9.175,-7.8 10.3,-21.55 2.5,-30.7375 -7.7875,-9.175 -21.55,-10.3 -30.725,-2.5 z"
       inkscape:connector-curvature="0" />
    <path
       id="path6801"
       style="fill:none;stroke:#000000;stroke-width:3.27499986;stroke-linecap:round;stroke-linejoin:miter;stroke-miterlimit:10;stroke-opacity:1;stroke-dasharray:none"
       d="m 489.66071,690.4318 -14.1125,-16.6125"
       inkscape:connector-curvature="0" />
  </g>
</svg>
