<?xml version="1.0" encoding="UTF-8" standalone="no"?>
<!-- Created with Inkscape (http://www.inkscape.org/) -->

<svg
   xmlns:dc="http://purl.org/dc/elements/1.1/"
   xmlns:cc="http://creativecommons.org/ns#"
   xmlns:rdf="http://www.w3.org/1999/02/22-rdf-syntax-ns#"
   xmlns:svg="http://www.w3.org/2000/svg"
   xmlns="http://www.w3.org/2000/svg"
   xmlns:sodipodi="http://sodipodi.sourceforge.net/DTD/sodipodi-0.dtd"
   xmlns:inkscape="http://www.inkscape.org/namespaces/inkscape"
   width="744.09448819"
   height="1052.3622047"
   id="svg2"
   version="1.1"
   inkscape:version="0.48.5 r10040"
   sodipodi:docname="fadingcoloroverlay.svg">
  <defs
     id="defs4">
    <clipPath
       id="clipPath3001"
       clipPathUnits="userSpaceOnUse">
      <path
         id="path3003"
         d="M 0,1200 0,0 l 1600,0 0,1200 -1600,0 z" />
    </clipPath>
  </defs>
  <sodipodi:namedview
     id="base"
     pagecolor="#ffffff"
     bordercolor="#666666"
     borderopacity="1.0"
     inkscape:pageopacity="0.0"
     inkscape:pageshadow="2"
     inkscape:zoom="0.056568542"
     inkscape:cx="2404.3439"
     inkscape:cy="1750.0009"
     inkscape:document-units="px"
     inkscape:current-layer="layer1"
     showgrid="false"
     inkscape:window-width="1918"
     inkscape:window-height="1179"
     inkscape:window-x="0"
     inkscape:window-y="19"
     inkscape:window-maximized="0" />
  <metadata
     id="metadata7">
    <rdf:RDF>
      <cc:Work
         rdf:about="">
        <dc:format>image/svg+xml</dc:format>
        <dc:type
           rdf:resource="http://purl.org/dc/dcmitype/StillImage" />
        <dc:title />
      </cc:Work>
    </rdf:RDF>
  </metadata>
  <g
     inkscape:label="Layer 1"
     inkscape:groupmode="layer"
     id="layer1">
    <g
       id="g2995"
       transform="matrix(1.25,0,0,-1.25,-702.85713,1185.2193)" />
    <path
       id="path3387"
       style="fill:#2d2dd5;fill-opacity:1;fill-rule:nonzero;stroke:none"
       d="m 365.59287,281.1068 c -29.8875,2.925 -51.75,29.525 -48.8125,59.4125 2.925,29.8875 29.525,51.75 59.4125,48.8125 29.8875,-2.925 51.75,-29.525 48.8125,-59.4125 -2.925,-29.8875 -29.525,-51.75 -59.4125,-48.8125 z"
       inkscape:connector-curvature="0" />
    <path
       id="path3389"
       style="fill:none;stroke:#000000;stroke-width:5.4375;stroke-linecap:round;stroke-linejoin:miter;stroke-miterlimit:10;stroke-opacity:0;stroke-dasharray:none"
       d="m 365.59287,281.1068 c -29.8875,2.925 -51.75,29.525 -48.8125,59.4125 2.925,29.8875 29.525,51.75 59.4125,48.8125 29.8875,-2.925 51.75,-29.525 48.8125,-59.4125 -2.925,-29.8875 -29.525,-51.75 -59.4125,-48.8125 z"
       inkscape:connector-curvature="0" />
    <path
       id="path3391"
       style="fill:none;stroke:#000000;stroke-width:8.14999962;stroke-linecap:round;stroke-linejoin:miter;stroke-miterlimit:10;stroke-opacity:1;stroke-dasharray:none"
       d="m 365.59287,281.1068 c -29.8875,2.925 -51.75,29.525 -48.8125,59.4125 2.925,29.8875 29.525,51.75 59.4125,48.8125 29.8875,-2.925 51.75,-29.525 48.8125,-59.4125 -2.925,-29.8875 -29.525,-51.75 -59.4125,-48.8125 z"
       inkscape:connector-curvature="0" />
    <path
       id="path3393"
       style="fill:none;stroke:#000000;stroke-width:8.14999962;stroke-linecap:round;stroke-linejoin:miter;stroke-miterlimit:10;stroke-opacity:1;stroke-dasharray:none"
       d="m 370.89287,335.2193 -5.3,-54.1125"
       inkscape:connector-curvature="0" />
    <path
       id="path3547"
       style="fill:#e0e0f8;fill-opacity:1;fill-rule:nonzero;stroke:none"
       d="m 584.23023,453.18475 c -5.1125,29.5875 14.7375,57.725 44.325,62.8375 29.6,5.1125 57.725,-14.7375 62.8375,-44.3375 5.1125,-29.5875 -14.7375,-57.725 -44.325,-62.825 -29.6,-5.1125 -57.725,14.725 -62.8375,44.325 z"
       inkscape:connector-curvature="0" />
    <path
       id="path3549"
       style="fill:none;stroke:#000000;stroke-width:5.4375;stroke-linecap:round;stroke-linejoin:miter;stroke-miterlimit:10;stroke-opacity:0;stroke-dasharray:none"
       d="m 584.23023,453.18475 c -5.1125,29.5875 14.7375,57.725 44.325,62.8375 29.6,5.1125 57.725,-14.7375 62.8375,-44.3375 5.1125,-29.5875 -14.7375,-57.725 -44.325,-62.825 -29.6,-5.1125 -57.725,14.725 -62.8375,44.325 z"
       inkscape:connector-curvature="0" />
    <path
       id="path3551"
       style="fill:none;stroke:#000000;stroke-width:8.14999962;stroke-linecap:round;stroke-linejoin:miter;stroke-miterlimit:10;stroke-opacity:1;stroke-dasharray:none"
       d="m 584.23023,453.18475 c -5.1125,29.5875 14.7375,57.725 44.325,62.8375 29.6,5.1125 57.725,-14.7375 62.8375,-44.3375 5.1125,-29.5875 -14.7375,-57.725 -44.325,-62.825 -29.6,-5.1125 -57.725,14.725 -62.8375,44.325 z"
       inkscape:connector-curvature="0" />
    <path
       id="path3553"
       style="fill:none;stroke:#000000;stroke-width:8.14999962;stroke-linecap:round;stroke-linejoin:miter;stroke-miterlimit:10;stroke-opacity:1;stroke-dasharray:none"
       d="m 637.81773,462.43475 -53.5875,-9.25"
       inkscape:connector-curvature="0" />
    <path
       id="path4203"
       style="fill:#5151dc;fill-opacity:1;fill-rule:nonzero;stroke:none"
       d="m 195.76787,508.5943 c -6.1,-29.4 -34.875,-48.3 -64.2875,-42.2 -29.4,6.1 -48.3,34.875 -42.2,64.2875 6.1,29.4 34.875,48.3 64.2875,42.2 29.4,-6.1 48.3,-34.875 42.2,-64.2875 z"
       inkscape:connector-curvature="0" />
    <path
       id="path4205"
       style="fill:none;stroke:#000000;stroke-width:5.4375;stroke-linecap:round;stroke-linejoin:miter;stroke-miterlimit:10;stroke-opacity:0;stroke-dasharray:none"
       d="m 195.76787,508.5943 c -6.1,-29.4 -34.875,-48.3 -64.2875,-42.2 -29.4,6.1 -48.3,34.875 -42.2,64.2875 6.1,29.4 34.875,48.3 64.2875,42.2 29.4,-6.1 48.3,-34.875 42.2,-64.2875 z"
       inkscape:connector-curvature="0" />
    <path
       id="path4207"
       style="fill:none;stroke:#000000;stroke-width:8.14999962;stroke-linecap:round;stroke-linejoin:miter;stroke-miterlimit:10;stroke-opacity:1;stroke-dasharray:none"
       d="m 195.76787,508.5943 c -6.1,-29.4 -34.875,-48.3 -64.2875,-42.2 -29.4,6.1 -48.3,34.875 -42.2,64.2875 6.1,29.4 34.875,48.3 64.2875,42.2 29.4,-6.1 48.3,-34.875 42.2,-64.2875 z"
       inkscape:connector-curvature="0" />
    <path
       id="path4209"
       style="fill:none;stroke:#000000;stroke-width:8.14999962;stroke-linecap:round;stroke-linejoin:miter;stroke-miterlimit:10;stroke-opacity:1;stroke-dasharray:none"
       d="m 142.51787,519.6443 53.25,-11.05"
       inkscape:connector-curvature="0" />
    <path
       id="path4235"
       style="fill:#4b4bdb;fill-opacity:1;fill-rule:nonzero;stroke:none"
       d="m 262.03037,462.8568 c 29.075,-7.5375 46.5375,-37.2125 39,-66.275 -7.5375,-29.075 -37.2125,-46.5375 -66.275,-39 -29.075,7.5375 -46.5375,37.2125 -39,66.275 7.5375,29.075 37.2125,46.5375 66.275,39 z"
       inkscape:connector-curvature="0" />
    <path
       id="path4237"
       style="fill:none;stroke:#000000;stroke-width:5.4375;stroke-linecap:round;stroke-linejoin:miter;stroke-miterlimit:10;stroke-opacity:0;stroke-dasharray:none"
       d="m 262.03037,462.8568 c 29.075,-7.5375 46.5375,-37.2125 39,-66.275 -7.5375,-29.075 -37.2125,-46.5375 -66.275,-39 -29.075,7.5375 -46.5375,37.2125 -39,66.275 7.5375,29.075 37.2125,46.5375 66.275,39 z"
       inkscape:connector-curvature="0" />
    <path
       id="path4239"
       style="fill:none;stroke:#000000;stroke-width:8.14999962;stroke-linecap:round;stroke-linejoin:miter;stroke-miterlimit:10;stroke-opacity:1;stroke-dasharray:none"
       d="m 262.03037,462.8568 c 29.075,-7.5375 46.5375,-37.2125 39,-66.275 -7.5375,-29.075 -37.2125,-46.5375 -66.275,-39 -29.075,7.5375 -46.5375,37.2125 -39,66.275 7.5375,29.075 37.2125,46.5375 66.275,39 z"
       inkscape:connector-curvature="0" />
    <path
       id="path4241"
       style="fill:none;stroke:#000000;stroke-width:8.14999962;stroke-linecap:round;stroke-linejoin:miter;stroke-miterlimit:10;stroke-opacity:1;stroke-dasharray:none"
       d="m 248.39287,410.2193 13.6375,52.6375"
       inkscape:connector-curvature="0" />
    <path
       id="path4595"
       style="fill:#5b5bde;fill-opacity:1;fill-rule:nonzero;stroke:none"
       d="m 281.33037,717.29787 c -10.6875,28.0625 3.4,59.475 31.4625,70.1625 28.0625,10.6875 59.475,-3.4 70.1625,-31.4625 10.6875,-28.0625 -3.4,-59.475 -31.4625,-70.1625 -28.0625,-10.6875 -59.475,3.4 -70.1625,31.4625 z"
       inkscape:connector-curvature="0" />
    <path
       id="path4597"
       style="fill:none;stroke:#000000;stroke-width:5.4375;stroke-linecap:round;stroke-linejoin:miter;stroke-miterlimit:10;stroke-opacity:0;stroke-dasharray:none"
       d="m 281.33037,717.29787 c -10.6875,28.0625 3.4,59.475 31.4625,70.1625 28.0625,10.6875 59.475,-3.4 70.1625,-31.4625 10.6875,-28.0625 -3.4,-59.475 -31.4625,-70.1625 -28.0625,-10.6875 -59.475,3.4 -70.1625,31.4625 z"
       inkscape:connector-curvature="0" />
    <path
       id="path4599"
       style="fill:none;stroke:#000000;stroke-width:8.14999962;stroke-linecap:round;stroke-linejoin:miter;stroke-miterlimit:10;stroke-opacity:1;stroke-dasharray:none"
       d="m 281.33037,717.29787 c -10.6875,28.0625 3.4,59.475 31.4625,70.1625 28.0625,10.6875 59.475,-3.4 70.1625,-31.4625 10.6875,-28.0625 -3.4,-59.475 -31.4625,-70.1625 -28.0625,-10.6875 -59.475,3.4 -70.1625,31.4625 z"
       inkscape:connector-curvature="0" />
    <path
       id="path4601"
       style="fill:none;stroke:#000000;stroke-width:8.14999962;stroke-linecap:round;stroke-linejoin:miter;stroke-miterlimit:10;stroke-opacity:1;stroke-dasharray:none"
       d="m 332.14287,736.64787 -50.8125,-19.35"
       inkscape:connector-curvature="0" />
    <path
       id="path6619"
       style="fill:#1212cf;fill-opacity:1;fill-rule:nonzero;stroke:none"
       d="m 139.93037,298.6068 c -29.8875,-2.925 -56.4875,18.9375 -59.4,48.825 -2.925,29.8875 18.9375,56.4875 48.825,59.4 29.8875,2.925 56.4875,-18.9375 59.4,-48.825 2.925,-29.8875 -18.9375,-56.4875 -48.825,-59.4 z"
       inkscape:connector-curvature="0" />
    <path
       id="path6621"
       style="fill:none;stroke:#000000;stroke-width:5.4375;stroke-linecap:round;stroke-linejoin:miter;stroke-miterlimit:10;stroke-opacity:0;stroke-dasharray:none"
       d="m 139.93037,298.6068 c -29.8875,-2.925 -56.4875,18.9375 -59.4,48.825 -2.925,29.8875 18.9375,56.4875 48.825,59.4 29.8875,2.925 56.4875,-18.9375 59.4,-48.825 2.925,-29.8875 -18.9375,-56.4875 -48.825,-59.4 z"
       inkscape:connector-curvature="0" />
    <path
       id="path6623"
       style="fill:none;stroke:#000000;stroke-width:8.14999962;stroke-linecap:round;stroke-linejoin:miter;stroke-miterlimit:10;stroke-opacity:1;stroke-dasharray:none"
       d="m 139.93037,298.6068 c -29.8875,-2.925 -56.4875,18.9375 -59.4,48.825 -2.925,29.8875 18.9375,56.4875 48.825,59.4 29.8875,2.925 56.4875,-18.9375 59.4,-48.825 2.925,-29.8875 -18.9375,-56.4875 -48.825,-59.4 z"
       inkscape:connector-curvature="0" />
    <path
       id="path6625"
       style="fill:none;stroke:#000000;stroke-width:8.14999962;stroke-linecap:round;stroke-linejoin:miter;stroke-miterlimit:10;stroke-opacity:1;stroke-dasharray:none"
       d="m 134.64287,352.7193 5.2875,-54.1125"
       inkscape:connector-curvature="0" />
    <path
       id="path6979"
       style="fill:#8b8be7;fill-opacity:1;fill-rule:nonzero;stroke:none"
       d="m 678.60715,707.43894 c -16.2375,-25.2625 -49.875,-32.5875 -75.1375,-16.3625 -25.2625,16.2375 -32.5875,49.875 -16.3625,75.1375 16.2375,25.2625 49.875,32.5875 75.1375,16.3625 25.2625,-16.2375 32.5875,-49.875 16.3625,-75.1375 z"
       inkscape:connector-curvature="0" />
    <path
       id="path6981"
       style="fill:none;stroke:#000000;stroke-width:5.4375;stroke-linecap:round;stroke-linejoin:miter;stroke-miterlimit:10;stroke-opacity:0;stroke-dasharray:none"
       d="m 678.60715,707.43894 c -16.2375,-25.2625 -49.875,-32.5875 -75.1375,-16.3625 -25.2625,16.2375 -32.5875,49.875 -16.3625,75.1375 16.2375,25.2625 49.875,32.5875 75.1375,16.3625 25.2625,-16.2375 32.5875,-49.875 16.3625,-75.1375 z"
       inkscape:connector-curvature="0" />
    <path
       id="path6983"
       style="fill:none;stroke:#000000;stroke-width:8.14999962;stroke-linecap:round;stroke-linejoin:miter;stroke-miterlimit:10;stroke-opacity:1;stroke-dasharray:none"
       d="m 678.60715,707.43894 c -16.2375,-25.2625 -49.875,-32.5875 -75.1375,-16.3625 -25.2625,16.2375 -32.5875,49.875 -16.3625,75.1375 16.2375,25.2625 49.875,32.5875 75.1375,16.3625 25.2625,-16.2375 32.5875,-49.875 16.3625,-75.1375 z"
       inkscape:connector-curvature="0" />
    <path
       id="path6985"
       style="fill:none;stroke:#000000;stroke-width:8.14999962;stroke-linecap:round;stroke-linejoin:miter;stroke-miterlimit:10;stroke-opacity:1;stroke-dasharray:none"
       d="m 632.85715,736.82644 45.75,-29.3875"
       inkscape:connector-curvature="0" />
  </g>
</svg>
