<?xml version="1.0" encoding="UTF-8" standalone="no"?>
<!-- Created with Inkscape (http://www.inkscape.org/) -->

<svg
   xmlns:dc="http://purl.org/dc/elements/1.1/"
   xmlns:cc="http://creativecommons.org/ns#"
   xmlns:rdf="http://www.w3.org/1999/02/22-rdf-syntax-ns#"
   xmlns:svg="http://www.w3.org/2000/svg"
   xmlns="http://www.w3.org/2000/svg"
   xmlns:sodipodi="http://sodipodi.sourceforge.net/DTD/sodipodi-0.dtd"
   xmlns:inkscape="http://www.inkscape.org/namespaces/inkscape"
   width="744.09448819"
   height="1052.3622047"
   id="svg2"
   version="1.1"
   inkscape:version="0.48.5 r10040"
   sodipodi:docname="New document 1">
  <defs
     id="defs4">
    <clipPath
       id="clipPath3001"
       clipPathUnits="userSpaceOnUse">
      <path
         id="path3003"
         d="M 0,1200 0,0 l 1600,0 0,1200 -1600,0 z" />
    </clipPath>
  </defs>
  <sodipodi:namedview
     id="base"
     pagecolor="#ffffff"
     bordercolor="#666666"
     borderopacity="1.0"
     inkscape:pageopacity="0.0"
     inkscape:pageshadow="2"
     inkscape:zoom="0.49497475"
     inkscape:cx="550.036"
     inkscape:cy="210.67797"
     inkscape:document-units="px"
     inkscape:current-layer="layer1"
     showgrid="false"
     inkscape:window-width="1918"
     inkscape:window-height="1179"
     inkscape:window-x="0"
     inkscape:window-y="19"
     inkscape:window-maximized="0" />
  <metadata
     id="metadata7">
    <rdf:RDF>
      <cc:Work
         rdf:about="">
        <dc:format>image/svg+xml</dc:format>
        <dc:type
           rdf:resource="http://purl.org/dc/dcmitype/StillImage" />
        <dc:title></dc:title>
      </cc:Work>
    </rdf:RDF>
  </metadata>
  <g
     inkscape:label="Layer 1"
     inkscape:groupmode="layer"
     id="layer1">
    <g
       id="g2995"
       transform="matrix(1.0181328,0,0,-1.0181328,-514.50634,1157.5276)" />
    <path
       id="path3387"
       style="fill:#ffffff;fill-opacity:1;fill-rule:nonzero;stroke:none"
       d="m 418.07276,641.01865 c -24.34355,2.38243 -42.1507,24.0483 -39.75809,48.39185 2.38244,24.34356 24.0483,42.1507 48.39186,39.75809 24.34355,-2.38243 42.14051,-24.0483 39.75808,-48.39185 -2.38243,-24.34356 -24.04829,-42.14052 -48.39185,-39.75809 z"
       inkscape:connector-curvature="0" />
    <path
       id="path3389"
       style="fill:none;stroke:#000000;stroke-width:4.42887735;stroke-linecap:round;stroke-linejoin:miter;stroke-miterlimit:10;stroke-opacity:0;stroke-dasharray:none"
       d="m 418.07276,641.01865 c -24.34355,2.38243 -42.1507,24.0483 -39.75809,48.39185 2.38244,24.34356 24.0483,42.1507 48.39186,39.75809 24.34355,-2.38243 42.14051,-24.0483 39.75808,-48.39185 -2.38243,-24.34356 -24.04829,-42.14052 -48.39185,-39.75809 z"
       inkscape:connector-curvature="0" />
    <path
       id="path3391"
       style="fill:none;stroke:#000000;stroke-width:6.63822603;stroke-linecap:round;stroke-linejoin:miter;stroke-miterlimit:10;stroke-opacity:1;stroke-dasharray:none"
       d="m 418.07276,641.01865 c -24.34355,2.38243 -42.1507,24.0483 -39.75809,48.39185 2.38244,24.34356 24.0483,42.1507 48.39186,39.75809 24.34355,-2.38243 42.14051,-24.0483 39.75808,-48.39185 -2.38243,-24.34356 -24.04829,-42.14052 -48.39185,-39.75809 z"
       inkscape:connector-curvature="0" />
    <path
       id="path3393"
       style="fill:none;stroke:#000000;stroke-width:6.63822603;stroke-linecap:round;stroke-linejoin:miter;stroke-miterlimit:10;stroke-opacity:1;stroke-dasharray:none"
       d="m 422.38964,685.09362 -4.31688,-44.07497"
       inkscape:connector-curvature="0" />
    <path
       id="path4115"
       style="fill:#ffffff;fill-opacity:1;fill-rule:nonzero;stroke:none"
       d="m 104.62022,641.36481 c 2.22971,24.36392 23.7734,42.30342 48.12713,40.08389 24.36392,-2.21953 42.3136,-23.76322 40.08389,-48.12713 -2.21953,-24.35374 -23.76322,-42.30342 -48.12714,-40.08389 -24.35373,2.21953 -42.30341,23.7734 -40.08388,48.12713 z"
       inkscape:connector-curvature="0" />
    <path
       id="path4117"
       style="fill:none;stroke:#000000;stroke-width:4.42887735;stroke-linecap:round;stroke-linejoin:miter;stroke-miterlimit:10;stroke-opacity:0;stroke-dasharray:none"
       d="m 104.62022,641.36481 c 2.22971,24.36392 23.7734,42.30342 48.12713,40.08389 24.36392,-2.21953 42.3136,-23.76322 40.08389,-48.12713 -2.21953,-24.35374 -23.76322,-42.30342 -48.12714,-40.08389 -24.35373,2.21953 -42.30341,23.7734 -40.08388,48.12713 z"
       inkscape:connector-curvature="0" />
    <path
       id="path4119"
       style="fill:none;stroke:#000000;stroke-width:6.63822603;stroke-linecap:round;stroke-linejoin:miter;stroke-miterlimit:10;stroke-opacity:1;stroke-dasharray:none"
       d="m 104.62022,641.36481 c 2.22971,24.36392 23.7734,42.30342 48.12713,40.08389 24.36392,-2.21953 42.3136,-23.76322 40.08389,-48.12713 -2.21953,-24.35374 -23.76322,-42.30342 -48.12714,-40.08389 -24.35373,2.21953 -42.30341,23.7734 -40.08388,48.12713 z"
       inkscape:connector-curvature="0" />
    <path
       id="path4121"
       style="fill:none;stroke:#000000;stroke-width:6.63822603;stroke-linecap:round;stroke-linejoin:miter;stroke-miterlimit:10;stroke-opacity:1;stroke-dasharray:none"
       d="m 148.72573,637.34319 -44.10551,4.02162"
       inkscape:connector-curvature="0" />
    <path
       id="path4235"
       style="fill:#ffffff;fill-opacity:1;fill-rule:nonzero;stroke:none"
       d="m 144.10341,490.68116 c 23.67158,-6.13934 37.8949,-30.30981 31.75556,-53.99158 -6.13934,-23.67159 -30.30982,-37.89491 -53.9814,-31.75556 -23.681772,6.13934 -37.894906,30.30981 -31.765747,53.9814 6.139341,23.68177 30.309817,37.8949 53.991587,31.76574 z"
       inkscape:connector-curvature="0" />
    <path
       id="path4237"
       style="fill:none;stroke:#000000;stroke-width:4.42887735;stroke-linecap:round;stroke-linejoin:miter;stroke-miterlimit:10;stroke-opacity:0;stroke-dasharray:none"
       d="m 144.10341,490.68116 c 23.67158,-6.13934 37.8949,-30.30981 31.75556,-53.99158 -6.13934,-23.67159 -30.30982,-37.89491 -53.9814,-31.75556 -23.681772,6.13934 -37.894906,30.30981 -31.765747,53.9814 6.139341,23.68177 30.309817,37.8949 53.991587,31.76574 z"
       inkscape:connector-curvature="0" />
    <path
       id="path4239"
       style="fill:none;stroke:#000000;stroke-width:6.63822603;stroke-linecap:round;stroke-linejoin:miter;stroke-miterlimit:10;stroke-opacity:1;stroke-dasharray:none"
       d="m 144.10341,490.68116 c 23.67158,-6.13934 37.8949,-30.30981 31.75556,-53.99158 -6.13934,-23.67159 -30.30982,-37.89491 -53.9814,-31.75556 -23.681772,6.13934 -37.894906,30.30981 -31.765747,53.9814 6.139341,23.68177 30.309817,37.8949 53.991587,31.76574 z"
       inkscape:connector-curvature="0" />
    <path
       id="path4241"
       style="fill:none;stroke:#000000;stroke-width:6.63822603;stroke-linecap:round;stroke-linejoin:miter;stroke-miterlimit:10;stroke-opacity:1;stroke-dasharray:none"
       d="m 132.9854,447.80759 11.11801,42.87357"
       inkscape:connector-curvature="0" />
    <path
       id="path4427"
       style="fill:#ffffff;fill-opacity:1;fill-rule:nonzero;stroke:none"
       d="m 495.16578,301.92952 c -9.93698,22.34802 0.13235,48.52421 22.49055,58.451 22.34801,9.93698 48.52421,-0.13235 58.451,-22.48037 9.93698,-22.35819 -0.13235,-48.52421 -22.48037,-58.46118 -22.35819,-9.93698 -48.52421,0.13235 -58.46118,22.49055 z"
       inkscape:connector-curvature="0" />
    <path
       id="path4429"
       style="fill:none;stroke:#000000;stroke-width:4.42887735;stroke-linecap:round;stroke-linejoin:miter;stroke-miterlimit:10;stroke-opacity:0;stroke-dasharray:none"
       d="m 495.16578,301.92952 c -9.93698,22.34802 0.13235,48.52421 22.49055,58.451 22.34801,9.93698 48.52421,-0.13235 58.451,-22.48037 9.93698,-22.35819 -0.13235,-48.52421 -22.48037,-58.46118 -22.35819,-9.93698 -48.52421,0.13235 -58.46118,22.49055 z"
       inkscape:connector-curvature="0" />
    <path
       id="path4431"
       style="fill:none;stroke:#000000;stroke-width:6.63822603;stroke-linecap:round;stroke-linejoin:miter;stroke-miterlimit:10;stroke-opacity:1;stroke-dasharray:none"
       d="m 495.16578,301.92952 c -9.93698,22.34802 0.13235,48.52421 22.49055,58.451 22.34801,9.93698 48.52421,-0.13235 58.451,-22.48037 9.93698,-22.35819 -0.13235,-48.52421 -22.48037,-58.46118 -22.35819,-9.93698 -48.52421,0.13235 -58.46118,22.49055 z"
       inkscape:connector-curvature="0" />
    <path
       id="path4433"
       style="fill:none;stroke:#000000;stroke-width:6.63822603;stroke-linecap:round;stroke-linejoin:miter;stroke-miterlimit:10;stroke-opacity:1;stroke-dasharray:none"
       d="M 535.63656,319.90975 495.16578,301.92952"
       inkscape:connector-curvature="0" />
    <path
       id="path5067"
       style="fill:#ffffff;fill-opacity:1;fill-rule:nonzero;stroke:none"
       d="m 443.10865,321.01951 c -17.25735,-17.32862 -45.29673,-17.38971 -62.62535,-0.13236 -17.3388,17.25735 -17.39989,45.29673 -0.14254,62.63553 17.25735,17.32862 45.29673,17.38971 62.63553,0.13236 17.32862,-17.25735 17.38971,-45.29673 0.13236,-62.63553 z"
       inkscape:connector-curvature="0" />
    <path
       id="path5069"
       style="fill:none;stroke:#000000;stroke-width:4.42887735;stroke-linecap:round;stroke-linejoin:miter;stroke-miterlimit:10;stroke-opacity:0;stroke-dasharray:none"
       d="m 443.10865,321.01951 c -17.25735,-17.32862 -45.29673,-17.38971 -62.62535,-0.13236 -17.3388,17.25735 -17.39989,45.29673 -0.14254,62.63553 17.25735,17.32862 45.29673,17.38971 62.63553,0.13236 17.32862,-17.25735 17.38971,-45.29673 0.13236,-62.63553 z"
       inkscape:connector-curvature="0" />
    <path
       id="path5071"
       style="fill:none;stroke:#000000;stroke-width:6.63822603;stroke-linecap:round;stroke-linejoin:miter;stroke-miterlimit:10;stroke-opacity:1;stroke-dasharray:none"
       d="m 443.10865,321.01951 c -17.25735,-17.32862 -45.29673,-17.38971 -62.62535,-0.13236 -17.3388,17.25735 -17.39989,45.29673 -0.14254,62.63553 17.25735,17.32862 45.29673,17.38971 62.63553,0.13236 17.32862,-17.25735 17.38971,-45.29673 0.13236,-62.63553 z"
       inkscape:connector-curvature="0" />
    <path
       id="path5073"
       style="fill:none;stroke:#000000;stroke-width:6.63822603;stroke-linecap:round;stroke-linejoin:miter;stroke-miterlimit:10;stroke-opacity:1;stroke-dasharray:none"
       d="m 411.72979,352.27619 31.37886,-31.25668"
       inkscape:connector-curvature="0" />
    <path
       id="path5379"
       style="fill:#ffffff;fill-opacity:1;fill-rule:nonzero;stroke:none"
       d="m 37.80016,181.48441 c 22.062938,10.5784 48.514028,1.26248 59.082246,-20.79027 C 107.45062,138.6312 98.144891,112.18011 76.081953,101.61189 54.029197,91.043673 27.578107,100.34941 16.999707,122.41234 6.4314884,144.4651 15.747404,170.91619 37.80016,181.48441 z"
       inkscape:connector-curvature="0" />
    <path
       id="path5381"
       style="fill:none;stroke:#000000;stroke-width:4.42887735;stroke-linecap:round;stroke-linejoin:miter;stroke-miterlimit:10;stroke-opacity:0;stroke-dasharray:none"
       d="m 37.80016,181.48441 c 22.062938,10.5784 48.514028,1.26248 59.082246,-20.79027 C 107.45062,138.6312 98.144891,112.18011 76.081953,101.61189 54.029197,91.043673 27.578107,100.34941 16.999707,122.41234 6.4314884,144.4651 15.747404,170.91619 37.80016,181.48441 z"
       inkscape:connector-curvature="0" />
    <path
       id="path5383"
       style="fill:none;stroke:#000000;stroke-width:6.63822603;stroke-linecap:round;stroke-linejoin:miter;stroke-miterlimit:10;stroke-opacity:1;stroke-dasharray:none"
       d="m 37.80016,181.48441 c 22.062938,10.5784 48.514028,1.26248 59.082246,-20.79027 C 107.45062,138.6312 98.144891,112.18011 76.081953,101.61189 54.029197,91.043673 27.578107,100.34941 16.999707,122.41234 6.4314884,144.4651 15.747404,170.91619 37.80016,181.48441 z"
       inkscape:connector-curvature="0" />
    <path
       id="path5385"
       style="fill:none;stroke:#000000;stroke-width:6.63822603;stroke-linecap:round;stroke-linejoin:miter;stroke-miterlimit:10;stroke-opacity:1;stroke-dasharray:none"
       d="M 56.941057,141.55324 37.80016,181.48441"
       inkscape:connector-curvature="0" />
    <path
       id="path6643"
       style="fill:#ffffff;fill-opacity:1;fill-rule:nonzero;stroke:none"
       d="m 340.14488,513.37534 c 22.61273,-9.33628 33.37439,-35.22739 24.03811,-57.84012 -9.32609,-22.61273 -35.21721,-33.3744 -57.82994,-24.03812 -22.61273,9.3261 -33.37439,35.21721 -24.0483,57.82994 9.33628,22.61273 35.2274,33.3744 57.84013,24.0483 z"
       inkscape:connector-curvature="0" />
    <path
       id="path6645"
       style="fill:none;stroke:#000000;stroke-width:4.42887735;stroke-linecap:round;stroke-linejoin:miter;stroke-miterlimit:10;stroke-opacity:0;stroke-dasharray:none"
       d="m 340.14488,513.37534 c 22.61273,-9.33628 33.37439,-35.22739 24.03811,-57.84012 -9.32609,-22.61273 -35.21721,-33.3744 -57.82994,-24.03812 -22.61273,9.3261 -33.37439,35.21721 -24.0483,57.82994 9.33628,22.61273 35.2274,33.3744 57.84013,24.0483 z"
       inkscape:connector-curvature="0" />
    <path
       id="path6647"
       style="fill:none;stroke:#000000;stroke-width:6.63822603;stroke-linecap:round;stroke-linejoin:miter;stroke-miterlimit:10;stroke-opacity:1;stroke-dasharray:none"
       d="m 340.14488,513.37534 c 22.61273,-9.33628 33.37439,-35.22739 24.03811,-57.84012 -9.32609,-22.61273 -35.21721,-33.3744 -57.82994,-24.03812 -22.61273,9.3261 -33.37439,35.21721 -24.0483,57.82994 9.33628,22.61273 35.2274,33.3744 57.84013,24.0483 z"
       inkscape:connector-curvature="0" />
    <path
       id="path6649"
       style="fill:none;stroke:#000000;stroke-width:6.63822603;stroke-linecap:round;stroke-linejoin:miter;stroke-miterlimit:10;stroke-opacity:1;stroke-dasharray:none"
       d="m 323.24387,472.43622 16.90101,40.93912"
       inkscape:connector-curvature="0" />
    <path
       id="path7565"
       style="fill:none;stroke:#377eb8;stroke-width:4.42887735;stroke-linecap:round;stroke-linejoin:miter;stroke-miterlimit:10;stroke-opacity:1;stroke-dasharray:none"
       d="M 422.38964,685.09362 444.26932,479.27807"
       inkscape:connector-curvature="0" />
    <path
       id="path7567"
       style="fill:#377eb8;fill-opacity:1;fill-rule:nonzero;stroke:none"
       d="m 459.68385,480.91727 -12.13614,-32.46826 -18.69292,29.18987 30.82906,3.27839 z"
       inkscape:connector-curvature="0" />
    <path
       id="path7569"
       style="fill:none;stroke:#4daf4a;stroke-width:4.42887735;stroke-linecap:round;stroke-linejoin:miter;stroke-miterlimit:10;stroke-opacity:1;stroke-dasharray:none"
       d="m 422.38964,685.09362 2.41298,-0.26472"
       inkscape:connector-curvature="0" />
    <path
       id="path7571"
       style="fill:#4daf4a;fill-opacity:1;fill-rule:nonzero;stroke:none"
       d="m 426.47236,700.24343 29.14914,-18.74382 -32.48862,-12.07506 3.33948,30.81888 z"
       inkscape:connector-curvature="0" />
    <path
       id="path7573"
       style="fill:none;stroke:#984ea3;stroke-width:4.42887735;stroke-linecap:round;stroke-linejoin:miter;stroke-miterlimit:10;stroke-opacity:1;stroke-dasharray:none"
       d="m 422.38964,685.09362 51.2143,98.12766"
       inkscape:connector-curvature="0"
       sodipodi:nodetypes="cc" />
    <path
       id="path8641"
       style="fill:none;stroke:#377eb8;stroke-width:4.42887735;stroke-linecap:round;stroke-linejoin:miter;stroke-miterlimit:10;stroke-opacity:1;stroke-dasharray:none"
       d="M 148.72573,637.34319 103.7548,598.32834"
       inkscape:connector-curvature="0" />
    <path
       id="path8643"
       style="fill:#377eb8;fill-opacity:1;fill-rule:nonzero;stroke:none"
       d="m 113.90559,586.61981 -33.578023,-8.60322 13.26627,32.02028 20.311753,-23.41706 z"
       inkscape:connector-curvature="0" />
    <path
       id="path8645"
       style="fill:none;stroke:#4daf4a;stroke-width:4.42887735;stroke-linecap:round;stroke-linejoin:miter;stroke-miterlimit:10;stroke-opacity:1;stroke-dasharray:none"
       d="m 148.72573,637.34319 28.58917,86.00168"
       inkscape:connector-curvature="0" />
    <path
       id="path8649"
       style="fill:none;stroke:#984ea3;stroke-width:4.42887735;stroke-linecap:round;stroke-linejoin:miter;stroke-miterlimit:10;stroke-opacity:1;stroke-dasharray:none"
       d="m 148.72573,637.34319 111.6688,31.92864"
       inkscape:connector-curvature="0" />
    <path
       id="path8651"
       style="fill:#984ea3;fill-opacity:1;fill-rule:nonzero;stroke:none"
       d="m 256.12856,684.1773 34.06672,-6.38369 -25.54495,-23.42724 -8.52177,29.81093 z"
       inkscape:connector-curvature="0" />
    <path
       id="path8819"
       style="fill:none;stroke:#377eb8;stroke-width:4.42887735;stroke-linecap:round;stroke-linejoin:miter;stroke-miterlimit:10;stroke-opacity:1;stroke-dasharray:none"
       d="m 132.9854,447.80759 97.50657,148.76956"
       inkscape:connector-curvature="0" />
    <path
       id="path8821"
       style="fill:#377eb8;fill-opacity:1;fill-rule:nonzero;stroke:none"
       d="m 217.52096,605.06838 29.96365,17.44061 -4.03181,-34.43325 -25.93184,16.99264 z"
       inkscape:connector-curvature="0" />
    <path
       id="path8823"
       style="fill:none;stroke:#4daf4a;stroke-width:4.42887735;stroke-linecap:round;stroke-linejoin:miter;stroke-miterlimit:10;stroke-opacity:1;stroke-dasharray:none"
       d="M 132.9854,447.80759 81.091167,316.23429"
       inkscape:connector-curvature="0" />
    <path
       id="path8825"
       style="fill:#4daf4a;fill-opacity:1;fill-rule:nonzero;stroke:none"
       d="M 95.507927,310.55311 69.708442,287.40077 66.674406,321.92565 95.507927,310.55311 z"
       inkscape:connector-curvature="0" />
    <path
       id="path8827"
       style="fill:none;stroke:#984ea3;stroke-width:4.42887735;stroke-linecap:round;stroke-linejoin:miter;stroke-miterlimit:10;stroke-opacity:1;stroke-dasharray:none"
       d="M 132.9854,447.80759 77.527702,64.063154"
       inkscape:connector-curvature="0" />
    <path
       id="path9103"
       style="fill:none;stroke:#377eb8;stroke-width:4.42887735;stroke-linecap:round;stroke-linejoin:miter;stroke-miterlimit:10;stroke-opacity:1;stroke-dasharray:none"
       d="M 535.63656,319.90975 415.74124,207.83369"
       inkscape:connector-curvature="0" />
    <path
       id="path9105"
       style="fill:#377eb8;fill-opacity:1;fill-rule:nonzero;stroke:none"
       d="m 426.32982,196.50187 -33.23186,-9.84535 12.0547,32.4988 21.17716,-22.65345 z"
       inkscape:connector-curvature="0" />
    <path
       id="path9107"
       style="fill:none;stroke:#4daf4a;stroke-width:4.42887735;stroke-linecap:round;stroke-linejoin:miter;stroke-miterlimit:10;stroke-opacity:1;stroke-dasharray:none"
       d="m 535.63656,319.90975 142.66076,7.39164"
       inkscape:connector-curvature="0" />
    <path
       id="path9109"
       style="fill:#4daf4a;fill-opacity:1;fill-rule:nonzero;stroke:none"
       d="m 677.493,342.78719 31.76574,-13.87715 -30.15709,-17.08427 -1.60865,30.96142 z"
       inkscape:connector-curvature="0" />
    <path
       id="path9111"
       style="fill:none;stroke:#984ea3;stroke-width:4.42887735;stroke-linecap:round;stroke-linejoin:miter;stroke-miterlimit:10;stroke-opacity:1;stroke-dasharray:none"
       d="m 535.63656,319.90975 249.48028,35.51798"
       inkscape:connector-curvature="0"
       sodipodi:nodetypes="cc" />
    <path
       id="path10045"
       style="fill:none;stroke:#377eb8;stroke-width:4.42887735;stroke-linecap:round;stroke-linejoin:miter;stroke-miterlimit:10;stroke-opacity:1;stroke-dasharray:none"
       d="M 411.72979,352.27619 315.57733,491.83165"
       inkscape:connector-curvature="0" />
    <path
       id="path10047"
       style="fill:#377eb8;fill-opacity:1;fill-rule:nonzero;stroke:none"
       d="m 302.80995,483.03498 -4.81577,34.32126 30.35054,-16.7381 -25.53477,-17.58316 z"
       inkscape:connector-curvature="0" />
    <path
       id="path10049"
       style="fill:none;stroke:#4daf4a;stroke-width:4.42887735;stroke-linecap:round;stroke-linejoin:miter;stroke-miterlimit:10;stroke-opacity:1;stroke-dasharray:none"
       d="M 411.72979,352.27619 389.47341,257.78328"
       inkscape:connector-curvature="0" />
    <path
       id="path10051"
       style="fill:#4daf4a;fill-opacity:1;fill-rule:nonzero;stroke:none"
       d="m 404.56214,254.23 -22.1953,-26.62417 -7.98216,33.73074 30.17746,-7.10657 z"
       inkscape:connector-curvature="0" />
    <path
       id="path10053"
       style="fill:none;stroke:#984ea3;stroke-width:4.42887735;stroke-linecap:round;stroke-linejoin:miter;stroke-miterlimit:10;stroke-opacity:1;stroke-dasharray:none"
       d="M 411.72979,352.27619 566.00746,106.47857"
       inkscape:connector-curvature="0" />
    <path
       id="path10505"
       style="fill:none;stroke:#4daf4a;stroke-width:4.42887735;stroke-linecap:round;stroke-linejoin:miter;stroke-miterlimit:10;stroke-opacity:1;stroke-dasharray:none"
       d="m 56.941057,141.55324 -26.654717,69.793"
       inkscape:connector-curvature="0" />
    <path
       id="path10507"
       style="fill:#4daf4a;fill-opacity:1;fill-rule:nonzero;stroke:none"
       d="m 15.808492,205.81778 3.420926,34.49434 25.53477,-23.43741 -28.955696,-11.05693 z"
       inkscape:connector-curvature="0" />
    <path
       id="path12339"
       style="fill:none;stroke:#377eb8;stroke-width:4.42887735;stroke-linecap:round;stroke-linejoin:miter;stroke-miterlimit:10;stroke-opacity:1;stroke-dasharray:none"
       d="m 323.24387,472.43622 88.74046,10.50713"
       inkscape:connector-curvature="0" />
    <path
       id="path12341"
       style="fill:#377eb8;fill-opacity:1;fill-rule:nonzero;stroke:none"
       d="m 410.15169,498.33752 32.61079,-11.73907 -28.9557,-19.04927 -3.65509,30.78834 z"
       inkscape:connector-curvature="0" />
    <path
       id="path12343"
       style="fill:#4daf4a;fill-opacity:1;fill-rule:nonzero;stroke:none"
       d="m 304.5815,468.51641 26.68526,22.12402 1.6901,-34.61651 -28.37536,12.49249 z"
       inkscape:connector-curvature="0" />
    <path
       id="path12345"
       style="fill:none;stroke:#984ea3;stroke-width:4.42887735;stroke-linecap:round;stroke-linejoin:miter;stroke-miterlimit:10;stroke-opacity:1;stroke-dasharray:none"
       d="m 323.24387,472.43622 68.67306,-29.0066"
       inkscape:connector-curvature="0" />
    <path
       id="path12347"
       style="fill:#984ea3;fill-opacity:1;fill-rule:nonzero;stroke:none"
       d="m 397.95446,457.71402 22.52109,-26.3391 -34.58597,-2.21953 12.06488,28.55863 z"
       inkscape:connector-curvature="0" />
    <rect
       style="fill:#ffffff;fill-opacity:1;stroke:#ffffff;stroke-width:4;stroke-miterlimit:4;stroke-opacity:1;stroke-dasharray:none;stroke-dashoffset:0"
       id="rect37559"
       width="913.17792"
       height="58.588818"
       x="-153.54318"
       y="60.392384" />
    <rect
       style="fill:#ffffff;fill-opacity:1;stroke:#ffffff;stroke-width:4;stroke-miterlimit:4;stroke-opacity:1;stroke-dasharray:none;stroke-dashoffset:0"
       id="rect37563"
       width="72.73098"
       height="705.08649"
       x="729.33014"
       y="114.94062" />
    <rect
       style="fill:#ffffff;fill-opacity:1;stroke:#ffffff;stroke-width:4;stroke-miterlimit:4;stroke-opacity:1;stroke-dasharray:none;stroke-dashoffset:0"
       id="rect37565"
       width="915.19818"
       height="94.954338"
       x="-119.198"
       y="725.07275" />
    <rect
       style="fill:#ffffff;fill-opacity:1;stroke:#ffffff;stroke-width:4;stroke-miterlimit:4;stroke-opacity:1;stroke-dasharray:none;stroke-dashoffset:0"
       id="rect37567"
       width="107.07617"
       height="705.08649"
       x="-103.03556"
       y="68.473602" />
  </g>
</svg>
