<?xml version="1.0" encoding="UTF-8" standalone="no"?>
<!-- Created with Inkscape (http://www.inkscape.org/) -->

<svg
   xmlns:dc="http://purl.org/dc/elements/1.1/"
   xmlns:cc="http://creativecommons.org/ns#"
   xmlns:rdf="http://www.w3.org/1999/02/22-rdf-syntax-ns#"
   xmlns:svg="http://www.w3.org/2000/svg"
   xmlns="http://www.w3.org/2000/svg"
   xmlns:sodipodi="http://sodipodi.sourceforge.net/DTD/sodipodi-0.dtd"
   xmlns:inkscape="http://www.inkscape.org/namespaces/inkscape"
   width="744.09448819"
   height="1052.3622047"
   id="svg2"
   version="1.1"
   inkscape:version="0.48.5 r10040"
   sodipodi:docname="New document 1">
  <defs
     id="defs4">
    <clipPath
       id="clipPath3001"
       clipPathUnits="userSpaceOnUse">
      <path
         id="path3003"
         d="M 0,1200 0,0 l 1600,0 0,1200 -1600,0 z" />
    </clipPath>
  </defs>
  <sodipodi:namedview
     id="base"
     pagecolor="#ffffff"
     bordercolor="#666666"
     borderopacity="1.0"
     inkscape:pageopacity="0.0"
     inkscape:pageshadow="2"
     inkscape:zoom="0.175"
     inkscape:cx="783.19746"
     inkscape:cy="302.06595"
     inkscape:document-units="px"
     inkscape:current-layer="layer1"
     showgrid="false"
     inkscape:window-width="1918"
     inkscape:window-height="1179"
     inkscape:window-x="0"
     inkscape:window-y="19"
     inkscape:window-maximized="0" />
  <metadata
     id="metadata7">
    <rdf:RDF>
      <cc:Work
         rdf:about="">
        <dc:format>image/svg+xml</dc:format>
        <dc:type
           rdf:resource="http://purl.org/dc/dcmitype/StillImage" />
        <dc:title></dc:title>
      </cc:Work>
    </rdf:RDF>
  </metadata>
  <g
     inkscape:label="Layer 1"
     inkscape:groupmode="layer"
     id="layer1">
    <g
       id="g2995"
       transform="matrix(1.25,0,0,-1.25,-302.85714,1339.505)" />
    <path
       id="path3331"
       style="fill:#6c6ce1;fill-opacity:1;fill-rule:nonzero;stroke:none"
       d="m 371.84107,632.51393 c 29.0625,-7.55 46.5,-37.2375 38.95,-66.3 -7.55,-29.0625 -37.2375,-46.5 -66.3,-38.95 -29.075,7.55 -46.5125,37.2375 -38.9625,66.3 7.5625,29.0625 37.2375,46.5 66.3125,38.95 z"
       inkscape:connector-curvature="0" />
    <path
       id="path3333"
       style="fill:none;stroke:#000000;stroke-width:5.4375;stroke-linecap:round;stroke-linejoin:miter;stroke-miterlimit:10;stroke-opacity:0;stroke-dasharray:none"
       d="m 371.84107,632.51393 c 29.0625,-7.55 46.5,-37.2375 38.95,-66.3 -7.55,-29.0625 -37.2375,-46.5 -66.3,-38.95 -29.075,7.55 -46.5125,37.2375 -38.9625,66.3 7.5625,29.0625 37.2375,46.5 66.3125,38.95 z"
       inkscape:connector-curvature="0" />
    <path
       id="path3335"
       style="fill:#ff0000;fill-opacity:1;fill-rule:nonzero;stroke:none"
       d="m 369.32857,622.86393 c 23.725,-6.175 37.9625,-30.4125 31.8,-54.1375 -6.1625,-23.7375 -30.4,-37.975 -54.1375,-31.8125 -23.725,6.175 -37.9625,30.4125 -31.8,54.1375 6.1625,23.7375 30.4,37.975 54.1375,31.8125 z"
       inkscape:connector-curvature="0" />
    <path
       id="path3337"
       style="fill:none;stroke:#000000;stroke-width:5.4375;stroke-linecap:round;stroke-linejoin:miter;stroke-miterlimit:10;stroke-opacity:0;stroke-dasharray:none"
       d="m 369.32857,622.86393 c 23.725,-6.175 37.9625,-30.4125 31.8,-54.1375 -6.1625,-23.7375 -30.4,-37.975 -54.1375,-31.8125 -23.725,6.175 -37.9625,30.4125 -31.8,54.1375 6.1625,23.7375 30.4,37.975 54.1375,31.8125 z"
       inkscape:connector-curvature="0" />
    <path
       id="path3339"
       style="fill:#ff9226;fill-opacity:1;fill-rule:nonzero;stroke:none"
       d="m 366.05357,610.27643 c 16.7875,-4.3625 26.85,-21.5 22.4875,-38.2875 -4.3625,-16.775 -21.5,-26.85 -38.275,-22.4875 -16.7875,4.3625 -26.85,21.5 -22.4875,38.2875 4.3625,16.775 21.5,26.85 38.275,22.4875 z"
       inkscape:connector-curvature="0" />
    <path
       id="path3341"
       style="fill:none;stroke:#000000;stroke-width:5.4375;stroke-linecap:round;stroke-linejoin:miter;stroke-miterlimit:10;stroke-opacity:0;stroke-dasharray:none"
       d="m 366.05357,610.27643 c 16.7875,-4.3625 26.85,-21.5 22.4875,-38.2875 -4.3625,-16.775 -21.5,-26.85 -38.275,-22.4875 -16.7875,4.3625 -26.85,21.5 -22.4875,38.2875 4.3625,16.775 21.5,26.85 38.275,22.4875 z"
       inkscape:connector-curvature="0" />
    <path
       id="path3343"
       style="fill:none;stroke:#000000;stroke-width:8.14999962;stroke-linecap:round;stroke-linejoin:miter;stroke-miterlimit:10;stroke-opacity:1;stroke-dasharray:none"
       d="m 371.84107,632.51393 c 29.0625,-7.55 46.5,-37.2375 38.95,-66.3 -7.55,-29.0625 -37.2375,-46.5 -66.3,-38.95 -29.075,7.55 -46.5125,37.2375 -38.9625,66.3 7.5625,29.0625 37.2375,46.5 66.3125,38.95 z"
       inkscape:connector-curvature="0" />
    <path
       id="path3345"
       style="fill:none;stroke:#000000;stroke-width:8.14999962;stroke-linecap:round;stroke-linejoin:miter;stroke-miterlimit:10;stroke-opacity:1;stroke-dasharray:none"
       d="m 358.16607,579.88893 13.675,52.625"
       inkscape:connector-curvature="0" />
  </g>
</svg>
