<?xml version="1.0" encoding="UTF-8" standalone="no"?>
<!-- Created with Inkscape (http://www.inkscape.org/) -->

<svg
   xmlns:dc="http://purl.org/dc/elements/1.1/"
   xmlns:cc="http://creativecommons.org/ns#"
   xmlns:rdf="http://www.w3.org/1999/02/22-rdf-syntax-ns#"
   xmlns:svg="http://www.w3.org/2000/svg"
   xmlns="http://www.w3.org/2000/svg"
   xmlns:sodipodi="http://sodipodi.sourceforge.net/DTD/sodipodi-0.dtd"
   xmlns:inkscape="http://www.inkscape.org/namespaces/inkscape"
   width="744.09448819"
   height="1052.3622047"
   id="svg2"
   version="1.1"
   inkscape:version="0.48.5 r10040"
   sodipodi:docname="New document 1">
  <defs
     id="defs4">
    <clipPath
       id="clipPath3001"
       clipPathUnits="userSpaceOnUse">
      <path
         id="path3003"
         d="M 0,1200 0,0 l 1600,0 0,1200 -1600,0 z" />
    </clipPath>
  </defs>
  <sodipodi:namedview
     id="base"
     pagecolor="#ffffff"
     bordercolor="#666666"
     borderopacity="1.0"
     inkscape:pageopacity="0.0"
     inkscape:pageshadow="2"
     inkscape:zoom="0.48414891"
     inkscape:cx="695.19234"
     inkscape:cy="540.18098"
     inkscape:document-units="px"
     inkscape:current-layer="layer1"
     showgrid="false"
     inkscape:window-width="1918"
     inkscape:window-height="1179"
     inkscape:window-x="0"
     inkscape:window-y="19"
     inkscape:window-maximized="0" />
  <metadata
     id="metadata7">
    <rdf:RDF>
      <cc:Work
         rdf:about="">
        <dc:format>image/svg+xml</dc:format>
        <dc:type
           rdf:resource="http://purl.org/dc/dcmitype/StillImage" />
        <dc:title></dc:title>
      </cc:Work>
    </rdf:RDF>
  </metadata>
  <g
     inkscape:label="Layer 1"
     inkscape:groupmode="layer"
     id="layer1">
    <g
       id="g2995"
       transform="matrix(1.25,0,0,-1.25,-517.14286,1222.3621)" />
    <path
       id="path3347"
       style="fill:#ffffff;fill-opacity:1;fill-rule:nonzero;stroke:none"
       d="M 117.34878,663.89848 C 106.59806,644.61151 82.257331,637.69246 62.979549,648.44317 43.69257,659.1939 36.773519,683.53464 47.524238,702.81242 c 10.741529,19.28697 35.091447,26.20602 54.369232,15.4553 19.28697,-10.74152 26.20603,-35.09145 15.45531,-54.36924 z"
       inkscape:connector-curvature="0" />
    <path
       id="path3349"
       style="fill:none;stroke:#000000;stroke-width:3.99706197;stroke-linecap:round;stroke-linejoin:miter;stroke-miterlimit:10;stroke-opacity:0;stroke-dasharray:none"
       d="M 117.34878,663.89848 C 106.59806,644.61151 82.257331,637.69246 62.979549,648.44317 43.69257,659.1939 36.773519,683.53464 47.524238,702.81242 c 10.741529,19.28697 35.091447,26.20602 54.369232,15.4553 19.28697,-10.74152 26.20603,-35.09145 15.45531,-54.36924 z"
       inkscape:connector-curvature="0" />
    <path
       id="path3351"
       style="fill:none;stroke:#000000;stroke-width:5.99099874;stroke-linecap:round;stroke-linejoin:miter;stroke-miterlimit:10;stroke-opacity:1;stroke-dasharray:none"
       d="M 117.34878,663.89848 C 106.59806,644.61151 82.257331,637.69246 62.979549,648.44317 43.69257,659.1939 36.773519,683.53464 47.524238,702.81242 c 10.741529,19.28697 35.091447,26.20602 54.369232,15.4553 19.28697,-10.74152 26.20603,-35.09145 15.45531,-54.36924 z"
       inkscape:connector-curvature="0" />
    <path
       id="path3353"
       style="fill:none;stroke:#000000;stroke-width:5.99099874;stroke-linecap:round;stroke-linejoin:miter;stroke-miterlimit:10;stroke-opacity:1;stroke-dasharray:none"
       d="M 82.431912,683.36005 117.34878,663.89848"
       inkscape:connector-curvature="0" />
    <path
       id="path3387"
       style="fill:#ffffff;fill-opacity:1;fill-rule:nonzero;stroke:none"
       d="m 588.11081,394.31272 c -21.97006,2.15015 -38.04101,21.7036 -35.88167,43.67365 2.15014,21.97006 21.70359,38.04101 43.67365,35.88169 21.97006,-2.15015 38.03181,-21.7036 35.88166,-43.67365 -2.15012,-21.97007 -21.70358,-38.03182 -43.67364,-35.88169 z"
       inkscape:connector-curvature="0" />
    <path
       id="path3389"
       style="fill:none;stroke:#000000;stroke-width:3.99706197;stroke-linecap:round;stroke-linejoin:miter;stroke-miterlimit:10;stroke-opacity:0;stroke-dasharray:none"
       d="m 588.11081,394.31272 c -21.97006,2.15015 -38.04101,21.7036 -35.88167,43.67365 2.15014,21.97006 21.70359,38.04101 43.67365,35.88169 21.97006,-2.15015 38.03181,-21.7036 35.88166,-43.67365 -2.15012,-21.97007 -21.70358,-38.03182 -43.67364,-35.88169 z"
       inkscape:connector-curvature="0" />
    <path
       id="path3391"
       style="fill:none;stroke:#000000;stroke-width:5.99099874;stroke-linecap:round;stroke-linejoin:miter;stroke-miterlimit:10;stroke-opacity:1;stroke-dasharray:none"
       d="m 588.11081,394.31272 c -21.97006,2.15015 -38.04101,21.7036 -35.88167,43.67365 2.15014,21.97006 21.70359,38.04101 43.67365,35.88169 21.97006,-2.15015 38.03181,-21.7036 35.88166,-43.67365 -2.15012,-21.97007 -21.70358,-38.03182 -43.67364,-35.88169 z"
       inkscape:connector-curvature="0" />
    <path
       id="path3393"
       style="fill:none;stroke:#000000;stroke-width:5.99099874;stroke-linecap:round;stroke-linejoin:miter;stroke-miterlimit:10;stroke-opacity:1;stroke-dasharray:none"
       d="m 592.0068,434.09038 -3.89599,-39.77766"
       inkscape:connector-curvature="0" />
    <path
       id="path4115"
       style="fill:#ffffff;fill-opacity:1;fill-rule:nonzero;stroke:none"
       d="m 305.21989,394.62515 c 2.01231,21.98843 21.4555,38.17882 43.43474,36.1757 21.98844,-2.00313 38.18803,-21.44631 36.17572,-43.43473 -2.00314,-21.97926 -21.44631,-38.17885 -43.43475,-36.17573 -21.97925,2.00314 -38.17885,21.4555 -36.17571,43.43476 z"
       inkscape:connector-curvature="0" />
    <path
       id="path4117"
       style="fill:none;stroke:#000000;stroke-width:3.99706197;stroke-linecap:round;stroke-linejoin:miter;stroke-miterlimit:10;stroke-opacity:0;stroke-dasharray:none"
       d="m 305.21989,394.62515 c 2.01231,21.98843 21.4555,38.17882 43.43474,36.1757 21.98844,-2.00313 38.18803,-21.44631 36.17572,-43.43473 -2.00314,-21.97926 -21.44631,-38.17885 -43.43475,-36.17573 -21.97925,2.00314 -38.17885,21.4555 -36.17571,43.43476 z"
       inkscape:connector-curvature="0" />
    <path
       id="path4119"
       style="fill:none;stroke:#000000;stroke-width:5.99099874;stroke-linecap:round;stroke-linejoin:miter;stroke-miterlimit:10;stroke-opacity:1;stroke-dasharray:none"
       d="m 305.21989,394.62515 c 2.01231,21.98843 21.4555,38.17882 43.43474,36.1757 21.98844,-2.00313 38.18803,-21.44631 36.17572,-43.43473 -2.00314,-21.97926 -21.44631,-38.17885 -43.43475,-36.17573 -21.97925,2.00314 -38.17885,21.4555 -36.17571,43.43476 z"
       inkscape:connector-curvature="0" />
    <path
       id="path4121"
       style="fill:none;stroke:#000000;stroke-width:5.99099874;stroke-linecap:round;stroke-linejoin:miter;stroke-miterlimit:10;stroke-opacity:1;stroke-dasharray:none"
       d="m 345.02511,390.99563 -39.80521,3.62952"
       inkscape:connector-curvature="0" />
    <path
       id="path4203"
       style="fill:#ffffff;fill-opacity:1;fill-rule:nonzero;stroke:none"
       d="m 305.03611,548.69121 c -4.48406,-21.61171 -25.63633,-35.50495 -47.2572,-31.02088 -21.61172,4.48406 -35.50495,25.63634 -31.02089,47.25723 4.48405,21.61169 25.63632,35.50494 47.25722,31.02087 21.61169,-4.48406 35.50493,-25.63631 31.02087,-47.25722 z"
       inkscape:connector-curvature="0" />
    <path
       id="path4205"
       style="fill:none;stroke:#000000;stroke-width:3.99706197;stroke-linecap:round;stroke-linejoin:miter;stroke-miterlimit:10;stroke-opacity:0;stroke-dasharray:none"
       d="m 305.03611,548.69121 c -4.48406,-21.61171 -25.63633,-35.50495 -47.2572,-31.02088 -21.61172,4.48406 -35.50495,25.63634 -31.02089,47.25723 4.48405,21.61169 25.63632,35.50494 47.25722,31.02087 21.61169,-4.48406 35.50493,-25.63631 31.02087,-47.25722 z"
       inkscape:connector-curvature="0" />
    <path
       id="path4207"
       style="fill:none;stroke:#000000;stroke-width:5.99099874;stroke-linecap:round;stroke-linejoin:miter;stroke-miterlimit:10;stroke-opacity:1;stroke-dasharray:none"
       d="m 305.03611,548.69121 c -4.48406,-21.61171 -25.63633,-35.50495 -47.2572,-31.02088 -21.61172,4.48406 -35.50495,25.63634 -31.02089,47.25723 4.48405,21.61169 25.63632,35.50494 47.25722,31.02087 21.61169,-4.48406 35.50493,-25.63631 31.02087,-47.25722 z"
       inkscape:connector-curvature="0" />
    <path
       id="path4209"
       style="fill:none;stroke:#000000;stroke-width:5.99099874;stroke-linecap:round;stroke-linejoin:miter;stroke-miterlimit:10;stroke-opacity:1;stroke-dasharray:none"
       d="m 265.89248,556.81397 39.14363,-8.12276"
       inkscape:connector-curvature="0" />
    <path
       id="path4675"
       style="fill:#ffffff;fill-opacity:1;fill-rule:nonzero;stroke:none"
       d="m 700.91066,637.38923 c -13.61756,-17.38491 -38.73934,-20.43555 -56.11507,-6.81797 -17.37574,13.60838 -20.43556,38.73015 -6.81797,56.11508 13.60839,17.37574 38.73015,20.42637 56.11507,6.81797 17.37572,-13.61758 20.42636,-38.73934 6.81797,-56.11508 z"
       inkscape:connector-curvature="0" />
    <path
       id="path4677"
       style="fill:none;stroke:#000000;stroke-width:3.99706197;stroke-linecap:round;stroke-linejoin:miter;stroke-miterlimit:10;stroke-opacity:0;stroke-dasharray:none"
       d="m 700.91066,637.38923 c -13.61756,-17.38491 -38.73934,-20.43555 -56.11507,-6.81797 -17.37574,13.60838 -20.43556,38.73015 -6.81797,56.11508 13.60839,17.37574 38.73015,20.42637 56.11507,6.81797 17.37572,-13.61758 20.42636,-38.73934 6.81797,-56.11508 z"
       inkscape:connector-curvature="0" />
    <path
       id="path4679"
       style="fill:none;stroke:#000000;stroke-width:5.99099874;stroke-linecap:round;stroke-linejoin:miter;stroke-miterlimit:10;stroke-opacity:1;stroke-dasharray:none"
       d="m 700.91066,637.38923 c -13.61756,-17.38491 -38.73934,-20.43555 -56.11507,-6.81797 -17.37574,13.60838 -20.43556,38.73015 -6.81797,56.11508 13.60839,17.37574 38.73015,20.42637 56.11507,6.81797 17.37572,-13.61758 20.42636,-38.73934 6.81797,-56.11508 z"
       inkscape:connector-curvature="0" />
    <path
       id="path4681"
       style="fill:none;stroke:#000000;stroke-width:5.99099874;stroke-linecap:round;stroke-linejoin:miter;stroke-miterlimit:10;stroke-opacity:1;stroke-dasharray:none"
       d="m 669.43954,662.03319 31.47112,-24.64396"
       inkscape:connector-curvature="0" />
    <path
       id="path6627"
       style="fill:#ffffff;fill-opacity:1;fill-rule:nonzero;stroke:none"
       d="m 145.94385,263.96256 c -21.97006,-2.15014 -41.5235,13.9208 -43.66446,35.89086 -2.15014,21.97006 13.92081,41.5235 35.90005,43.66446 21.97006,2.15015 41.51432,-13.92081 43.66446,-35.89086 2.14096,-21.97007 -13.92999,-41.52351 -35.90005,-43.66446 z"
       inkscape:connector-curvature="0" />
    <path
       id="path6629"
       style="fill:none;stroke:#000000;stroke-width:3.99706197;stroke-linecap:round;stroke-linejoin:miter;stroke-miterlimit:10;stroke-opacity:0;stroke-dasharray:none"
       d="m 145.94385,263.96256 c -21.97006,-2.15014 -41.5235,13.9208 -43.66446,35.89086 -2.15014,21.97006 13.92081,41.5235 35.90005,43.66446 21.97006,2.15015 41.51432,-13.92081 43.66446,-35.89086 2.14096,-21.97007 -13.92999,-41.52351 -35.90005,-43.66446 z"
       inkscape:connector-curvature="0" />
    <path
       id="path6631"
       style="fill:none;stroke:#000000;stroke-width:5.99099874;stroke-linecap:round;stroke-linejoin:miter;stroke-miterlimit:10;stroke-opacity:1;stroke-dasharray:none"
       d="m 145.94385,263.96256 c -21.97006,-2.15014 -41.5235,13.9208 -43.66446,35.89086 -2.15014,21.97006 13.92081,41.5235 35.90005,43.66446 21.97006,2.15015 41.51432,-13.92081 43.66446,-35.89086 2.14096,-21.97007 -13.92999,-41.52351 -35.90005,-43.66446 z"
       inkscape:connector-curvature="0" />
    <path
       id="path6633"
       style="fill:none;stroke:#000000;stroke-width:5.99099874;stroke-linecap:round;stroke-linejoin:miter;stroke-miterlimit:10;stroke-opacity:1;stroke-dasharray:none"
       d="m 142.05705,303.74021 3.8868,-39.77765"
       inkscape:connector-curvature="0" />
    <path
       id="path6643"
       style="fill:#ffffff;fill-opacity:1;fill-rule:nonzero;stroke:none"
       d="m 517.7809,279.11464 c 20.408,-8.42599 30.12038,-31.79273 21.6944,-52.20071 -8.41681,-20.408 -31.78353,-30.1204 -52.19153,-21.6944 -20.40799,8.4168 -30.12038,31.78353 -21.70358,52.19152 8.42599,20.40798 31.79272,30.12038 52.20071,21.70359 z"
       inkscape:connector-curvature="0" />
    <path
       id="path6645"
       style="fill:none;stroke:#000000;stroke-width:3.99706197;stroke-linecap:round;stroke-linejoin:miter;stroke-miterlimit:10;stroke-opacity:0;stroke-dasharray:none"
       d="m 517.7809,279.11464 c 20.408,-8.42599 30.12038,-31.79273 21.6944,-52.20071 -8.41681,-20.408 -31.78353,-30.1204 -52.19153,-21.6944 -20.40799,8.4168 -30.12038,31.78353 -21.70358,52.19152 8.42599,20.40798 31.79272,30.12038 52.20071,21.70359 z"
       inkscape:connector-curvature="0" />
    <path
       id="path6647"
       style="fill:none;stroke:#000000;stroke-width:5.99099874;stroke-linecap:round;stroke-linejoin:miter;stroke-miterlimit:10;stroke-opacity:1;stroke-dasharray:none"
       d="m 517.7809,279.11464 c 20.408,-8.42599 30.12038,-31.79273 21.6944,-52.20071 -8.41681,-20.408 -31.78353,-30.1204 -52.19153,-21.6944 -20.40799,8.4168 -30.12038,31.78353 -21.70358,52.19152 8.42599,20.40798 31.79272,30.12038 52.20071,21.70359 z"
       inkscape:connector-curvature="0" />
    <path
       id="path6649"
       style="fill:none;stroke:#000000;stroke-width:5.99099874;stroke-linecap:round;stroke-linejoin:miter;stroke-miterlimit:10;stroke-opacity:1;stroke-dasharray:none"
       d="m 502.52774,242.16709 15.25316,36.94755"
       inkscape:connector-curvature="0" />
    <path
       id="path7179"
       style="fill:none;stroke:#e41a1c;stroke-width:3.99706197;stroke-linecap:round;stroke-linejoin:miter;stroke-miterlimit:10;stroke-opacity:1;stroke-dasharray:none"
       d="M 82.431912,683.36005 269.63226,603.92418"
       inkscape:connector-curvature="0" />
    <path
       id="path7181"
       style="fill:#e41a1c;fill-opacity:1;fill-rule:nonzero;stroke:none"
       d="m 275.0995,616.80667 20.28854,-23.80779 -31.22303,-1.948 10.93449,25.75579 z"
       inkscape:connector-curvature="0" />
    <path
       id="path7199"
       style="fill:none;stroke:#e41a1c;stroke-width:3.99706197;stroke-linecap:round;stroke-linejoin:miter;stroke-miterlimit:10;stroke-opacity:1;stroke-dasharray:none"
       d="m 592.0068,434.09038 79.04077,156.02326"
       inkscape:connector-curvature="0" />
    <path
       id="path7201"
       style="fill:#e41a1c;fill-opacity:1;fill-rule:nonzero;stroke:none"
       d="m 658.56937,596.43544 25.12177,18.63456 -0.1654,-31.27814 -24.95637,12.64358 z"
       inkscape:connector-curvature="0" />
    <path
       id="path7557"
       style="fill:none;stroke:#e41a1c;stroke-width:3.99706197;stroke-linecap:round;stroke-linejoin:miter;stroke-miterlimit:10;stroke-opacity:1;stroke-dasharray:none"
       d="m 345.02511,390.99563 100.7811,28.8156"
       inkscape:connector-curvature="0" />
    <path
       id="path7559"
       style="fill:#e41a1c;fill-opacity:1;fill-rule:nonzero;stroke:none"
       d="m 441.95617,433.26341 30.74522,-5.76128 -23.05433,-21.14309 -7.69089,26.90437 z"
       inkscape:connector-curvature="0" />
    <path
       id="path7601"
       style="fill:none;stroke:#e41a1c;stroke-width:3.99706197;stroke-linecap:round;stroke-linejoin:miter;stroke-miterlimit:10;stroke-opacity:1;stroke-dasharray:none"
       d="M 265.89248,556.81397 565.75484,523.4408"
       inkscape:connector-curvature="0" />
    <path
       id="path7603"
       style="fill:#e41a1c;fill-opacity:1;fill-rule:nonzero;stroke:none"
       d="m 567.30772,537.34323 26.26115,-16.99899 -29.35774,-10.80585 3.09659,27.80484 z"
       inkscape:connector-curvature="0" />
    <path
       id="path7835"
       style="fill:none;stroke:#e41a1c;stroke-width:3.99706197;stroke-linecap:round;stroke-linejoin:miter;stroke-miterlimit:10;stroke-opacity:1;stroke-dasharray:none"
       d="m 669.43954,662.03319 21.32686,61.30666"
       inkscape:connector-curvature="0" />
    <path
       id="path7837"
       style="fill:#e41a1c;fill-opacity:1;fill-rule:nonzero;stroke:none"
       d="m 677.55313,727.94337 22.40191,21.82305 4.02464,-31.02089 -26.42655,9.19784 z"
       inkscape:connector-curvature="0" />
    <path
       id="path8799"
       style="fill:none;stroke:#e41a1c;stroke-width:3.99706197;stroke-linecap:round;stroke-linejoin:miter;stroke-miterlimit:10;stroke-opacity:1;stroke-dasharray:none"
       d="M 142.05705,303.74021 87.062992,201.57163"
       inkscape:connector-curvature="0" />
    <path
       id="path8801"
       style="fill:#e41a1c;fill-opacity:1;fill-rule:nonzero;stroke:none"
       d="M 99.384969,194.93743 73.803775,176.92768 74.741017,208.19665 99.38497,194.93743 z"
       inkscape:connector-curvature="0" />
    <path
       id="path8807"
       style="fill:none;stroke:#e41a1c;stroke-width:3.99706197;stroke-linecap:round;stroke-linejoin:miter;stroke-miterlimit:10;stroke-opacity:1;stroke-dasharray:none"
       d="m 502.52774,242.16709 61.97744,-26.17847"
       inkscape:connector-curvature="0" />
    <path
       id="path8809"
       style="fill:#e41a1c;fill-opacity:1;fill-rule:nonzero;stroke:none"
       d="m 569.95404,228.88029 20.32529,-23.77103 -31.21382,-2.00312 10.88854,25.77415 z"
       inkscape:connector-curvature="0" />
  </g>
</svg>
