<?xml version="1.0" encoding="UTF-8" standalone="no"?>
<!-- Created with Inkscape (http://www.inkscape.org/) -->

<svg
   xmlns:dc="http://purl.org/dc/elements/1.1/"
   xmlns:cc="http://creativecommons.org/ns#"
   xmlns:rdf="http://www.w3.org/1999/02/22-rdf-syntax-ns#"
   xmlns:svg="http://www.w3.org/2000/svg"
   xmlns="http://www.w3.org/2000/svg"
   xmlns:sodipodi="http://sodipodi.sourceforge.net/DTD/sodipodi-0.dtd"
   xmlns:inkscape="http://www.inkscape.org/namespaces/inkscape"
   width="744.09448819"
   height="1052.3622047"
   id="svg2"
   version="1.1"
   inkscape:version="0.48.4 r9939"
   sodipodi:docname="New document 1">
  <defs
     id="defs4">
    <clipPath
       id="clipPath3001"
       clipPathUnits="userSpaceOnUse">
      <path
         id="path3003"
         d="M 0,800 0,0 1000,0 1000,800 0,800 z" />
    </clipPath>
  </defs>
  <sodipodi:namedview
     id="base"
     pagecolor="#ffffff"
     bordercolor="#666666"
     borderopacity="1.0"
     inkscape:pageopacity="0.0"
     inkscape:pageshadow="2"
     inkscape:zoom="1.4"
     inkscape:cx="426.67135"
     inkscape:cy="844.9765"
     inkscape:document-units="px"
     inkscape:current-layer="layer1"
     showgrid="false"
     inkscape:window-width="1918"
     inkscape:window-height="1059"
     inkscape:window-x="0"
     inkscape:window-y="19"
     inkscape:window-maximized="0" />
  <metadata
     id="metadata7">
    <rdf:RDF>
      <cc:Work
         rdf:about="">
        <dc:format>image/svg+xml</dc:format>
        <dc:type
           rdf:resource="http://purl.org/dc/dcmitype/StillImage" />
        <dc:title></dc:title>
      </cc:Work>
    </rdf:RDF>
  </metadata>
  <g
     inkscape:label="Layer 1"
     inkscape:groupmode="layer"
     id="layer1">
    <g
       transform="matrix(0.68314715,0,0,-0.68314715,59.45481,618.63654)"
       inkscape:label="linearLeader"
       id="g2993">
      <g
         id="g2995" />
      <g
         id="g2997">
        <g
           clip-path="url(#clipPath3001)"
           id="g2999">
          <g
             id="g3005">
            <path
               id="path3007"
               style="fill:none;stroke:#969696;stroke-width:1.79999995;stroke-linecap:round;stroke-linejoin:miter;stroke-miterlimit:10;stroke-opacity:1;stroke-dasharray:none"
               d="m 112.28,531.98 125.95,0"
               inkscape:connector-curvature="0" />
            <path
               id="path3009"
               style="fill:none;stroke:#969696;stroke-width:1.79999995;stroke-linecap:round;stroke-linejoin:miter;stroke-miterlimit:10;stroke-opacity:1;stroke-dasharray:none"
               d="m 867.98,531.98 -125.95,0"
               inkscape:connector-curvature="0" />
            <path
               id="path3011"
               style="fill:none;stroke:#969696;stroke-width:1.79999995;stroke-linecap:round;stroke-linejoin:miter;stroke-miterlimit:10;stroke-opacity:1;stroke-dasharray:none"
               d="m 238.23,531.98 -125.95,0"
               inkscape:connector-curvature="0" />
            <path
               id="path3013"
               style="fill:none;stroke:#969696;stroke-width:1.79999995;stroke-linecap:round;stroke-linejoin:miter;stroke-miterlimit:10;stroke-opacity:1;stroke-dasharray:none"
               d="m 238.23,531.98 125.95,0"
               inkscape:connector-curvature="0" />
            <path
               id="path3015"
               style="fill:none;stroke:#969696;stroke-width:1.79999995;stroke-linecap:round;stroke-linejoin:miter;stroke-miterlimit:10;stroke-opacity:1;stroke-dasharray:none"
               d="m 364.18,531.98 -125.95,0"
               inkscape:connector-curvature="0" />
            <path
               id="path3017"
               style="fill:none;stroke:#969696;stroke-width:1.79999995;stroke-linecap:round;stroke-linejoin:miter;stroke-miterlimit:10;stroke-opacity:1;stroke-dasharray:none"
               d="m 364.18,531.98 125.95,0"
               inkscape:connector-curvature="0" />
            <path
               id="path3019"
               style="fill:none;stroke:#969696;stroke-width:1.79999995;stroke-linecap:round;stroke-linejoin:miter;stroke-miterlimit:10;stroke-opacity:1;stroke-dasharray:none"
               d="m 490.13,531.98 125.95,0"
               inkscape:connector-curvature="0" />
            <path
               id="path3021"
               style="fill:none;stroke:#969696;stroke-width:1.79999995;stroke-linecap:round;stroke-linejoin:miter;stroke-miterlimit:10;stroke-opacity:1;stroke-dasharray:none"
               d="m 490.13,531.98 -125.95,0"
               inkscape:connector-curvature="0" />
            <path
               id="path3023"
               style="fill:none;stroke:#969696;stroke-width:1.79999995;stroke-linecap:round;stroke-linejoin:miter;stroke-miterlimit:10;stroke-opacity:1;stroke-dasharray:none"
               d="m 616.08,531.98 125.95,0"
               inkscape:connector-curvature="0" />
            <path
               id="path3025"
               style="fill:none;stroke:#969696;stroke-width:1.79999995;stroke-linecap:round;stroke-linejoin:miter;stroke-miterlimit:10;stroke-opacity:1;stroke-dasharray:none"
               d="m 616.08,531.98 -125.95,0"
               inkscape:connector-curvature="0" />
            <path
               id="path3027"
               style="fill:none;stroke:#969696;stroke-width:1.79999995;stroke-linecap:round;stroke-linejoin:miter;stroke-miterlimit:10;stroke-opacity:1;stroke-dasharray:none"
               d="m 742.03,531.98 -125.95,0"
               inkscape:connector-curvature="0" />
            <path
               id="path3029"
               style="fill:none;stroke:#969696;stroke-width:1.79999995;stroke-linecap:round;stroke-linejoin:miter;stroke-miterlimit:10;stroke-opacity:1;stroke-dasharray:none"
               d="m 742.03,531.98 125.95,0"
               inkscape:connector-curvature="0" />
            <path
               id="path3031"
               style="fill:#ff3333;fill-opacity:1;fill-rule:nonzero;stroke:none"
               d="m 94.29,531.98 c 0,9.93 8.06,17.99 17.99,17.99 9.94,0 18,-8.06 18,-17.99 0,-9.94 -8.06,-18 -18,-18 -9.93,0 -17.99,8.06 -17.99,18 z"
               inkscape:connector-curvature="0" />
            <path
               id="path3033"
               style="fill:none;stroke:#969696;stroke-width:1.79999995;stroke-linecap:round;stroke-linejoin:miter;stroke-miterlimit:10;stroke-opacity:1;stroke-dasharray:none"
               d="m 94.29,531.98 c 0,9.93 8.06,17.99 17.99,17.99 9.94,0 18,-8.06 18,-17.99 0,-9.94 -8.06,-18 -18,-18 -9.93,0 -17.99,8.06 -17.99,18 z"
               inkscape:connector-curvature="0" />
            <path
               id="path3035"
               style="fill:none;stroke:#000000;stroke-width:2.70000005;stroke-linecap:round;stroke-linejoin:miter;stroke-miterlimit:10;stroke-opacity:1;stroke-dasharray:none"
               d="m 94.29,531.98 c 0,9.93 8.06,17.99 17.99,17.99 9.94,0 18,-8.06 18,-17.99 0,-9.94 -8.06,-18 -18,-18 -9.93,0 -17.99,8.06 -17.99,18 z"
               inkscape:connector-curvature="0" />
            <path
               id="path3037"
               style="fill:none;stroke:#000000;stroke-width:2.70000005;stroke-linecap:round;stroke-linejoin:miter;stroke-miterlimit:10;stroke-opacity:1;stroke-dasharray:none"
               d="m 112.28,531.98 -17.99,0"
               inkscape:connector-curvature="0" />
            <path
               id="path3039"
               style="fill:#ff3333;fill-opacity:1;fill-rule:nonzero;stroke:none"
               d="m 885.97,531.98 c 0,-9.94 -8.05,-18 -17.99,-18 -9.94,0 -17.99,8.06 -17.99,18 0,9.93 8.05,17.99 17.99,17.99 9.94,0 17.99,-8.06 17.99,-17.99 z"
               inkscape:connector-curvature="0" />
            <path
               id="path3041"
               style="fill:none;stroke:#000000;stroke-width:2.70000005;stroke-linecap:round;stroke-linejoin:miter;stroke-miterlimit:10;stroke-opacity:1;stroke-dasharray:none"
               d="m 885.97,531.98 c 0,-9.94 -8.05,-18 -17.99,-18 -9.94,0 -17.99,8.06 -17.99,18 0,9.93 8.05,17.99 17.99,17.99 9.94,0 17.99,-8.06 17.99,-17.99 z"
               inkscape:connector-curvature="0" />
            <path
               id="path3043"
               style="fill:none;stroke:#000000;stroke-width:2.70000005;stroke-linecap:round;stroke-linejoin:miter;stroke-miterlimit:10;stroke-opacity:1;stroke-dasharray:none"
               d="m 867.98,531.98 17.99,0"
               inkscape:connector-curvature="0" />
            <path
               id="path3045"
               style="fill:#ffffff;fill-opacity:1;fill-rule:nonzero;stroke:none"
               d="m 238.23,549.97 c 9.94,0 17.99,-8.06 17.99,-17.99 0,-9.94 -8.05,-18 -17.99,-18 -9.94,0 -17.99,8.06 -17.99,18 0,9.93 8.05,17.99 17.99,17.99 z"
               inkscape:connector-curvature="0" />
            <path
               id="path3047"
               style="fill:none;stroke:#000000;stroke-width:2.70000005;stroke-linecap:round;stroke-linejoin:miter;stroke-miterlimit:10;stroke-opacity:1;stroke-dasharray:none"
               d="m 238.23,549.97 c 9.94,0 17.99,-8.06 17.99,-17.99 0,-9.94 -8.05,-18 -17.99,-18 -9.94,0 -17.99,8.06 -17.99,18 0,9.93 8.05,17.99 17.99,17.99 z"
               inkscape:connector-curvature="0" />
            <path
               id="path3049"
               style="fill:none;stroke:#000000;stroke-width:2.70000005;stroke-linecap:round;stroke-linejoin:miter;stroke-miterlimit:10;stroke-opacity:1;stroke-dasharray:none"
               d="m 238.23,531.98 0,17.99"
               inkscape:connector-curvature="0" />
            <path
               id="path3051"
               style="fill:#ffffff;fill-opacity:1;fill-rule:nonzero;stroke:none"
               d="m 364.18,549.97 c 9.94,0 17.99,-8.06 17.99,-17.99 0,-9.94 -8.05,-18 -17.99,-18 -9.94,0 -17.99,8.06 -17.99,18 0,9.93 8.05,17.99 17.99,17.99 z"
               inkscape:connector-curvature="0" />
            <path
               id="path3053"
               style="fill:none;stroke:#000000;stroke-width:2.70000005;stroke-linecap:round;stroke-linejoin:miter;stroke-miterlimit:10;stroke-opacity:1;stroke-dasharray:none"
               d="m 364.18,549.97 c 9.94,0 17.99,-8.06 17.99,-17.99 0,-9.94 -8.05,-18 -17.99,-18 -9.94,0 -17.99,8.06 -17.99,18 0,9.93 8.05,17.99 17.99,17.99 z"
               inkscape:connector-curvature="0" />
            <path
               id="path3055"
               style="fill:none;stroke:#000000;stroke-width:2.70000005;stroke-linecap:round;stroke-linejoin:miter;stroke-miterlimit:10;stroke-opacity:1;stroke-dasharray:none"
               d="m 364.18,531.98 0,17.99"
               inkscape:connector-curvature="0" />
            <path
               id="path3057"
               style="fill:#ffffff;fill-opacity:1;fill-rule:nonzero;stroke:none"
               d="m 490.13,549.97 c 9.94,0 17.99,-8.06 17.99,-17.99 0,-9.94 -8.05,-18 -17.99,-18 -9.94,0 -17.99,8.06 -17.99,18 0,9.93 8.05,17.99 17.99,17.99 z"
               inkscape:connector-curvature="0" />
            <path
               id="path3059"
               style="fill:none;stroke:#000000;stroke-width:2.70000005;stroke-linecap:round;stroke-linejoin:miter;stroke-miterlimit:10;stroke-opacity:1;stroke-dasharray:none"
               d="m 490.13,549.97 c 9.94,0 17.99,-8.06 17.99,-17.99 0,-9.94 -8.05,-18 -17.99,-18 -9.94,0 -17.99,8.06 -17.99,18 0,9.93 8.05,17.99 17.99,17.99 z"
               inkscape:connector-curvature="0" />
            <path
               id="path3061"
               style="fill:none;stroke:#000000;stroke-width:2.70000005;stroke-linecap:round;stroke-linejoin:miter;stroke-miterlimit:10;stroke-opacity:1;stroke-dasharray:none"
               d="m 490.13,531.98 0,17.99"
               inkscape:connector-curvature="0" />
            <path
               id="path3063"
               style="fill:#ffffff;fill-opacity:1;fill-rule:nonzero;stroke:none"
               d="m 616.08,549.97 c 9.94,0 17.99,-8.06 17.99,-17.99 0,-9.94 -8.05,-18 -17.99,-18 -9.94,0 -17.99,8.06 -17.99,18 0,9.93 8.05,17.99 17.99,17.99 z"
               inkscape:connector-curvature="0" />
            <path
               id="path3065"
               style="fill:none;stroke:#000000;stroke-width:2.70000005;stroke-linecap:round;stroke-linejoin:miter;stroke-miterlimit:10;stroke-opacity:1;stroke-dasharray:none"
               d="m 616.08,549.97 c 9.94,0 17.99,-8.06 17.99,-17.99 0,-9.94 -8.05,-18 -17.99,-18 -9.94,0 -17.99,8.06 -17.99,18 0,9.93 8.05,17.99 17.99,17.99 z"
               inkscape:connector-curvature="0" />
            <path
               id="path3067"
               style="fill:none;stroke:#000000;stroke-width:2.70000005;stroke-linecap:round;stroke-linejoin:miter;stroke-miterlimit:10;stroke-opacity:1;stroke-dasharray:none"
               d="m 616.08,531.98 0,17.99"
               inkscape:connector-curvature="0" />
            <path
               id="path3069"
               style="fill:#ffffff;fill-opacity:1;fill-rule:nonzero;stroke:none"
               d="m 742.03,549.97 c 9.94,0 17.99,-8.06 17.99,-17.99 0,-9.94 -8.05,-18 -17.99,-18 -9.94,0 -17.99,8.06 -17.99,18 0,9.93 8.05,17.99 17.99,17.99 z"
               inkscape:connector-curvature="0" />
            <path
               id="path3071"
               style="fill:none;stroke:#000000;stroke-width:2.70000005;stroke-linecap:round;stroke-linejoin:miter;stroke-miterlimit:10;stroke-opacity:1;stroke-dasharray:none"
               d="m 742.03,549.97 c 9.94,0 17.99,-8.06 17.99,-17.99 0,-9.94 -8.05,-18 -17.99,-18 -9.94,0 -17.99,8.06 -17.99,18 0,9.93 8.05,17.99 17.99,17.99 z"
               inkscape:connector-curvature="0" />
            <path
               id="path3073"
               style="fill:none;stroke:#000000;stroke-width:2.70000005;stroke-linecap:round;stroke-linejoin:miter;stroke-miterlimit:10;stroke-opacity:1;stroke-dasharray:none"
               d="m 742.03,531.98 0,17.99"
               inkscape:connector-curvature="0" />
            <path
               id="path3075"
               style="fill:none;stroke:#0000ff;stroke-width:1.79999995;stroke-linecap:round;stroke-linejoin:miter;stroke-miterlimit:10;stroke-opacity:1;stroke-dasharray:none"
               d="m 112.28,531.98 -89.96,0"
               inkscape:connector-curvature="0" />
            <path
               id="path3077"
               style="fill:#0000ff;fill-opacity:1;fill-rule:nonzero;stroke:none"
               d="m 34.91,525.68 -12.59,6.3 12.59,6.29 0,-12.59 z"
               inkscape:connector-curvature="0" />
            <path
               id="path3079"
               style="fill:none;stroke:#0000ff;stroke-width:1.79999995;stroke-linecap:round;stroke-linejoin:miter;stroke-miterlimit:10;stroke-opacity:1;stroke-dasharray:none"
               d="m 867.98,531.98 89.96,0"
               inkscape:connector-curvature="0" />
            <path
               id="path3081"
               style="fill:#0000ff;fill-opacity:1;fill-rule:nonzero;stroke:none"
               d="m 945.35,538.27 12.59,-6.29 -12.59,-6.3 0,12.59 z"
               inkscape:connector-curvature="0" />
            <path
               id="path3083"
               style="fill:none;stroke:#0000ff;stroke-width:1.79999995;stroke-linecap:round;stroke-linejoin:miter;stroke-miterlimit:10;stroke-opacity:1;stroke-dasharray:none"
               d="m 238.23,531.98 -59.97,0"
               inkscape:connector-curvature="0" />
            <path
               id="path3085"
               style="fill:#0000ff;fill-opacity:1;fill-rule:nonzero;stroke:none"
               d="m 190.85,525.68 -12.59,6.3 12.59,6.29 0,-12.59 z"
               inkscape:connector-curvature="0" />
            <path
               id="path3087"
               style="fill:none;stroke:#0000ff;stroke-width:1.79999995;stroke-linecap:round;stroke-linejoin:miter;stroke-miterlimit:10;stroke-opacity:1;stroke-dasharray:none"
               d="m 364.18,531.98 -29.99,0"
               inkscape:connector-curvature="0" />
            <path
               id="path3089"
               style="fill:#0000ff;fill-opacity:1;fill-rule:nonzero;stroke:none"
               d="m 346.79,525.68 -12.6,6.3 12.6,6.29 0,-12.59 z"
               inkscape:connector-curvature="0" />
            <path
               id="path3091"
               style="fill:none;stroke:#0000ff;stroke-width:1.79999995;stroke-linecap:round;stroke-linejoin:miter;stroke-miterlimit:10;stroke-opacity:1;stroke-dasharray:none"
               d="m 490.13,531.98 0,0"
               inkscape:connector-curvature="0" />
            <path
               id="path3093"
               style="fill:#0000ff;fill-opacity:1;fill-rule:nonzero;stroke:none"
               d="m 484.24,519.19 5.89,12.79 6.7,-12.39 -12.59,-0.4 z"
               inkscape:connector-curvature="0" />
            <path
               id="path3095"
               style="fill:none;stroke:#0000ff;stroke-width:1.79999995;stroke-linecap:round;stroke-linejoin:miter;stroke-miterlimit:10;stroke-opacity:1;stroke-dasharray:none"
               d="m 616.08,531.98 29.99,0"
               inkscape:connector-curvature="0" />
            <path
               id="path3097"
               style="fill:#0000ff;fill-opacity:1;fill-rule:nonzero;stroke:none"
               d="m 633.47,538.27 12.6,-6.29 -12.6,-6.3 0,12.59 z"
               inkscape:connector-curvature="0" />
            <path
               id="path3099"
               style="fill:none;stroke:#0000ff;stroke-width:1.79999995;stroke-linecap:round;stroke-linejoin:miter;stroke-miterlimit:10;stroke-opacity:1;stroke-dasharray:none"
               d="m 742.03,531.98 59.98,0"
               inkscape:connector-curvature="0" />
            <path
               id="path3101"
               style="fill:#0000ff;fill-opacity:1;fill-rule:nonzero;stroke:none"
               d="m 789.41,538.27 12.6,-6.29 -12.6,-6.3 0,12.59 z"
               inkscape:connector-curvature="0" />
          </g>
        </g>
      </g>
    </g>
  </g>
</svg>
