<?xml version="1.0" encoding="UTF-8" standalone="no"?>
<!-- Created with Inkscape (http://www.inkscape.org/) -->

<svg
   xmlns:dc="http://purl.org/dc/elements/1.1/"
   xmlns:cc="http://creativecommons.org/ns#"
   xmlns:rdf="http://www.w3.org/1999/02/22-rdf-syntax-ns#"
   xmlns:svg="http://www.w3.org/2000/svg"
   xmlns="http://www.w3.org/2000/svg"
   xmlns:sodipodi="http://sodipodi.sourceforge.net/DTD/sodipodi-0.dtd"
   xmlns:inkscape="http://www.inkscape.org/namespaces/inkscape"
   width="744.09448819"
   height="1052.3622047"
   id="svg2"
   version="1.1"
   inkscape:version="0.48.5 r10040"
   sodipodi:docname="New document 1">
  <defs
     id="defs4">
    <clipPath
       id="clipPath16473"
       clipPathUnits="userSpaceOnUse">
      <path
         id="path16475"
         d="M 0,800 0,0 1000,0 1000,800 0,800 z" />
    </clipPath>
  </defs>
  <sodipodi:namedview
     id="base"
     pagecolor="#ffffff"
     bordercolor="#666666"
     borderopacity="1.0"
     inkscape:pageopacity="0.0"
     inkscape:pageshadow="2"
     inkscape:zoom="0.35"
     inkscape:cx="-213.57143"
     inkscape:cy="556.58117"
     inkscape:document-units="px"
     inkscape:current-layer="layer1"
     showgrid="false"
     inkscape:window-width="1918"
     inkscape:window-height="1179"
     inkscape:window-x="0"
     inkscape:window-y="19"
     inkscape:window-maximized="0" />
  <metadata
     id="metadata7">
    <rdf:RDF>
      <cc:Work
         rdf:about="">
        <dc:format>image/svg+xml</dc:format>
        <dc:type
           rdf:resource="http://purl.org/dc/dcmitype/StillImage" />
        <dc:title></dc:title>
      </cc:Work>
    </rdf:RDF>
  </metadata>
  <g
     inkscape:label="Layer 1"
     inkscape:groupmode="layer"
     id="layer1">
    <g
       id="g16467"
       transform="matrix(0.87292161,0,0,-0.87292161,-42.175095,735.81655)" />
    <path
       id="path16755"
       style="fill:none;stroke:#969696;stroke-width:1.614905;stroke-linecap:round;stroke-linejoin:miter;stroke-miterlimit:10;stroke-opacity:1;stroke-dasharray:none"
       d="M 603.83927,437.43449 527.79034,372.71608"
       inkscape:connector-curvature="0" />
    <path
       id="path16757"
       style="fill:none;stroke:#969696;stroke-width:1.614905;stroke-linecap:round;stroke-linejoin:miter;stroke-miterlimit:10;stroke-opacity:1;stroke-dasharray:none"
       d="m 603.83927,437.43449 93.8478,-29.12067"
       inkscape:connector-curvature="0" />
    <path
       id="path17289"
       style="fill:none;stroke:#969696;stroke-width:1.614905;stroke-linecap:round;stroke-linejoin:miter;stroke-miterlimit:10;stroke-opacity:1;stroke-dasharray:none"
       d="M 66.643313,251.35379 31.04557,345.20159"
       inkscape:connector-curvature="0" />
    <path
       id="path17291"
       style="fill:none;stroke:#969696;stroke-width:1.614905;stroke-linecap:round;stroke-linejoin:miter;stroke-miterlimit:10;stroke-opacity:1;stroke-dasharray:none"
       d="M 66.643313,251.35379 144.31588,194.72736"
       inkscape:connector-curvature="0" />
    <path
       id="path17319"
       style="fill:none;stroke:#969696;stroke-width:1.614905;stroke-linecap:round;stroke-linejoin:miter;stroke-miterlimit:10;stroke-opacity:1;stroke-dasharray:none"
       d="m 149.16932,490.8311 97.07761,-1.6149"
       inkscape:connector-curvature="0" />
    <path
       id="path17321"
       style="fill:none;stroke:#969696;stroke-width:1.614905;stroke-linecap:round;stroke-linejoin:miter;stroke-miterlimit:10;stroke-opacity:1;stroke-dasharray:none"
       d="M 149.16932,490.8311 73.120391,435.81958"
       inkscape:connector-curvature="0" />
    <path
       id="path17323"
       style="fill:none;stroke:#969696;stroke-width:1.614905;stroke-linecap:round;stroke-linejoin:miter;stroke-miterlimit:10;stroke-opacity:1;stroke-dasharray:none"
       d="m 636.2072,244.88544 71.18676,64.7184"
       inkscape:connector-curvature="0" />
    <path
       id="path17325"
       style="fill:none;stroke:#969696;stroke-width:1.614905;stroke-linecap:round;stroke-linejoin:miter;stroke-miterlimit:10;stroke-opacity:1;stroke-dasharray:none"
       d="m 636.2072,244.88544 -90.61799,30.7443"
       inkscape:connector-curvature="0" />
    <path
       id="path17515"
       style="fill:none;stroke:#969696;stroke-width:1.614905;stroke-linecap:round;stroke-linejoin:miter;stroke-miterlimit:10;stroke-opacity:1;stroke-dasharray:none"
       d="m 697.68707,408.31382 9.70689,-98.70998"
       inkscape:connector-curvature="0" />
    <path
       id="path17517"
       style="fill:none;stroke:#969696;stroke-width:1.614905;stroke-linecap:round;stroke-linejoin:miter;stroke-miterlimit:10;stroke-opacity:1;stroke-dasharray:none"
       d="m 697.68707,408.31382 -93.8478,29.12067"
       inkscape:connector-curvature="0" />
    <path
       id="path17641"
       style="fill:none;stroke:#969696;stroke-width:1.614905;stroke-linecap:round;stroke-linejoin:miter;stroke-miterlimit:10;stroke-opacity:1;stroke-dasharray:none"
       d="m 144.31588,194.72736 98.70124,0"
       inkscape:connector-curvature="0" />
    <path
       id="path17643"
       style="fill:none;stroke:#969696;stroke-width:1.614905;stroke-linecap:round;stroke-linejoin:miter;stroke-miterlimit:10;stroke-opacity:1;stroke-dasharray:none"
       d="M 144.31588,194.72736 66.643313,251.35379"
       inkscape:connector-curvature="0" />
    <path
       id="path17749"
       style="fill:none;stroke:#969696;stroke-width:1.614905;stroke-linecap:round;stroke-linejoin:miter;stroke-miterlimit:10;stroke-opacity:1;stroke-dasharray:none"
       d="m 325.5344,434.19595 29.1294,-92.22417"
       inkscape:connector-curvature="0" />
    <path
       id="path17751"
       style="fill:none;stroke:#969696;stroke-width:1.614905;stroke-linecap:round;stroke-linejoin:miter;stroke-miterlimit:10;stroke-opacity:1;stroke-dasharray:none"
       d="M 325.5344,434.19595 246.24693,489.2162"
       inkscape:connector-curvature="0" />
    <path
       id="path17915"
       style="fill:none;stroke:#969696;stroke-width:1.614905;stroke-linecap:round;stroke-linejoin:miter;stroke-miterlimit:10;stroke-opacity:1;stroke-dasharray:none"
       d="M 320.68096,252.97742 243.01712,194.72736"
       inkscape:connector-curvature="0" />
    <path
       id="path17917"
       style="fill:none;stroke:#969696;stroke-width:1.614905;stroke-linecap:round;stroke-linejoin:miter;stroke-miterlimit:10;stroke-opacity:1;stroke-dasharray:none"
       d="m 320.68096,252.97742 33.98284,88.99436"
       inkscape:connector-curvature="0" />
    <path
       id="path17971"
       style="fill:none;stroke:#969696;stroke-width:1.614905;stroke-linecap:round;stroke-linejoin:miter;stroke-miterlimit:10;stroke-opacity:1;stroke-dasharray:none"
       d="m 545.58921,275.62974 90.61799,-30.7443"
       inkscape:connector-curvature="0" />
    <path
       id="path17973"
       style="fill:none;stroke:#969696;stroke-width:1.614905;stroke-linecap:round;stroke-linejoin:miter;stroke-miterlimit:10;stroke-opacity:1;stroke-dasharray:none"
       d="m 545.58921,275.62974 -17.79887,97.08634"
       inkscape:connector-curvature="0" />
    <path
       id="path18025"
       style="fill:none;stroke:#969696;stroke-width:1.614905;stroke-linecap:round;stroke-linejoin:miter;stroke-miterlimit:10;stroke-opacity:1;stroke-dasharray:none"
       d="m 31.04557,345.20159 35.597743,-93.8478"
       inkscape:connector-curvature="0" />
    <path
       id="path18027"
       style="fill:none;stroke:#969696;stroke-width:1.614905;stroke-linecap:round;stroke-linejoin:miter;stroke-miterlimit:10;stroke-opacity:1;stroke-dasharray:none"
       d="m 31.04557,345.20159 42.074821,90.61799"
       inkscape:connector-curvature="0" />
    <path
       id="path18791"
       style="fill:none;stroke:#969696;stroke-width:1.614905;stroke-linecap:round;stroke-linejoin:miter;stroke-miterlimit:10;stroke-opacity:1;stroke-dasharray:none"
       d="m 527.79034,372.71608 76.04893,64.71841"
       inkscape:connector-curvature="0" />
    <path
       id="path18793"
       style="fill:none;stroke:#969696;stroke-width:1.614905;stroke-linecap:round;stroke-linejoin:miter;stroke-miterlimit:10;stroke-opacity:1;stroke-dasharray:none"
       d="m 527.79034,372.71608 17.79887,-97.08634"
       inkscape:connector-curvature="0" />
    <path
       id="path19373"
       style="fill:none;stroke:#969696;stroke-width:1.614905;stroke-linecap:round;stroke-linejoin:miter;stroke-miterlimit:10;stroke-opacity:1;stroke-dasharray:none"
       d="m 354.6638,341.97178 -29.1294,92.22417"
       inkscape:connector-curvature="0" />
    <path
       id="path19375"
       style="fill:none;stroke:#969696;stroke-width:1.614905;stroke-linecap:round;stroke-linejoin:miter;stroke-miterlimit:10;stroke-opacity:1;stroke-dasharray:none"
       d="M 354.6638,341.97178 320.68096,252.97742"
       inkscape:connector-curvature="0" />
    <path
       id="path19449"
       style="fill:none;stroke:#969696;stroke-width:1.614905;stroke-linecap:round;stroke-linejoin:miter;stroke-miterlimit:10;stroke-opacity:1;stroke-dasharray:none"
       d="M 246.24693,489.2162 325.5344,434.19595"
       inkscape:connector-curvature="0" />
    <path
       id="path19451"
       style="fill:none;stroke:#969696;stroke-width:1.614905;stroke-linecap:round;stroke-linejoin:miter;stroke-miterlimit:10;stroke-opacity:1;stroke-dasharray:none"
       d="m 246.24693,489.2162 -97.07761,1.6149"
       inkscape:connector-curvature="0" />
    <path
       id="path20937"
       style="fill:none;stroke:#969696;stroke-width:1.614905;stroke-linecap:round;stroke-linejoin:miter;stroke-miterlimit:10;stroke-opacity:1;stroke-dasharray:none"
       d="M 707.39396,309.60384 636.2072,244.88544"
       inkscape:connector-curvature="0" />
    <path
       id="path20939"
       style="fill:none;stroke:#969696;stroke-width:1.614905;stroke-linecap:round;stroke-linejoin:miter;stroke-miterlimit:10;stroke-opacity:1;stroke-dasharray:none"
       d="m 707.39396,309.60384 -9.70689,98.70998"
       inkscape:connector-curvature="0" />
    <path
       id="path21759"
       style="fill:none;stroke:#969696;stroke-width:1.614905;stroke-linecap:round;stroke-linejoin:miter;stroke-miterlimit:10;stroke-opacity:1;stroke-dasharray:none"
       d="M 73.120391,435.81958 31.04557,345.20159"
       inkscape:connector-curvature="0" />
    <path
       id="path21761"
       style="fill:none;stroke:#969696;stroke-width:1.614905;stroke-linecap:round;stroke-linejoin:miter;stroke-miterlimit:10;stroke-opacity:1;stroke-dasharray:none"
       d="M 73.120391,435.81958 149.16932,490.8311"
       inkscape:connector-curvature="0" />
    <path
       id="path22095"
       style="fill:none;stroke:#969696;stroke-width:1.614905;stroke-linecap:round;stroke-linejoin:miter;stroke-miterlimit:10;stroke-opacity:1;stroke-dasharray:none"
       d="m 243.01712,194.72736 -98.70124,0"
       inkscape:connector-curvature="0" />
    <path
       id="path22097"
       style="fill:none;stroke:#969696;stroke-width:1.614905;stroke-linecap:round;stroke-linejoin:miter;stroke-miterlimit:10;stroke-opacity:1;stroke-dasharray:none"
       d="m 243.01712,194.72736 77.66384,58.25006"
       inkscape:connector-curvature="0" />
    <path
       id="path22523"
       style="fill:#ffffff;fill-opacity:1;fill-rule:nonzero;stroke:none"
       d="m 598.36605,422.21073 c -8.41496,3.02904 -12.77084,12.29074 -9.75053,20.7057 3.02904,8.40624 12.29946,12.77085 20.7057,9.74181 8.40623,-3.02031 12.77084,-12.29074 9.7418,-20.7057 -3.0203,-8.40624 -12.29073,-12.77085 -20.69697,-9.74181 z"
       inkscape:connector-curvature="0" />
    <path
       id="path22525"
       style="fill:none;stroke:#000000;stroke-width:2.42672205;stroke-linecap:round;stroke-linejoin:miter;stroke-miterlimit:10;stroke-opacity:1;stroke-dasharray:none"
       d="m 598.36605,422.21073 c -8.41496,3.02904 -12.77084,12.29074 -9.75053,20.7057 3.02904,8.40624 12.29946,12.77085 20.7057,9.74181 8.40623,-3.02031 12.77084,-12.29074 9.7418,-20.7057 -3.0203,-8.40624 -12.29073,-12.77085 -20.69697,-9.74181 z"
       inkscape:connector-curvature="0" />
    <path
       id="path22527"
       style="fill:none;stroke:#000000;stroke-width:2.42672205;stroke-linecap:round;stroke-linejoin:miter;stroke-miterlimit:10;stroke-opacity:1;stroke-dasharray:none"
       d="m 603.83927,437.43449 -5.47322,-15.22376"
       inkscape:connector-curvature="0" />
    <path
       id="path22817"
       style="fill:#ffffff;fill-opacity:1;fill-rule:nonzero;stroke:none"
       d="m 77.58975,239.44713 c -6.5731,-6.04934 -16.81247,-5.62161 -22.861817,0.96022 -6.040618,6.58183 -5.612886,16.8212 0.968943,22.86182 6.581829,6.04934 16.81247,5.61288 22.861817,-0.96022 6.049347,-6.58183 5.612886,-16.8212 -0.968943,-22.86182 z"
       inkscape:connector-curvature="0" />
    <path
       id="path22819"
       style="fill:none;stroke:#000000;stroke-width:2.42672205;stroke-linecap:round;stroke-linejoin:miter;stroke-miterlimit:10;stroke-opacity:1;stroke-dasharray:none"
       d="m 77.58975,239.44713 c -6.5731,-6.04934 -16.81247,-5.62161 -22.861817,0.96022 -6.040618,6.58183 -5.612886,16.8212 0.968943,22.86182 6.581829,6.04934 16.81247,5.61288 22.861817,-0.96022 6.049347,-6.58183 5.612886,-16.8212 -0.968943,-22.86182 z"
       inkscape:connector-curvature="0" />
    <path
       id="path22821"
       style="fill:none;stroke:#000000;stroke-width:2.42672205;stroke-linecap:round;stroke-linejoin:miter;stroke-miterlimit:10;stroke-opacity:1;stroke-dasharray:none"
       d="M 66.643313,251.35379 77.58975,239.44713"
       inkscape:connector-curvature="0" />
    <path
       id="path22835"
       style="fill:#ffffff;fill-opacity:1;fill-rule:nonzero;stroke:none"
       d="m 140.20442,477.36192 c -7.4373,4.94947 -9.46247,14.98806 -4.51301,22.43409 4.94947,7.43729 14.9968,9.45374 22.43409,4.50427 7.44602,-4.94946 9.46247,-14.98806 4.513,-22.43408 -4.94946,-7.4373 -14.99679,-9.45375 -22.43408,-4.50428 z"
       inkscape:connector-curvature="0" />
    <path
       id="path22837"
       style="fill:none;stroke:#000000;stroke-width:2.42672205;stroke-linecap:round;stroke-linejoin:miter;stroke-miterlimit:10;stroke-opacity:1;stroke-dasharray:none"
       d="m 140.20442,477.36192 c -7.4373,4.94947 -9.46247,14.98806 -4.51301,22.43409 4.94947,7.43729 14.9968,9.45374 22.43409,4.50427 7.44602,-4.94946 9.46247,-14.98806 4.513,-22.43408 -4.94946,-7.4373 -14.99679,-9.45375 -22.43408,-4.50428 z"
       inkscape:connector-curvature="0" />
    <path
       id="path22839"
       style="fill:none;stroke:#000000;stroke-width:2.42672205;stroke-linecap:round;stroke-linejoin:miter;stroke-miterlimit:10;stroke-opacity:1;stroke-dasharray:none"
       d="m 149.16932,490.8311 -8.9649,-13.46918"
       inkscape:connector-curvature="0" />
    <path
       id="path22841"
       style="fill:#ffffff;fill-opacity:1;fill-rule:nonzero;stroke:none"
       d="m 650.47947,252.49731 c 4.20749,-7.88248 1.22209,-17.68539 -6.66039,-21.89287 -7.89121,-4.19875 -17.68539,-1.21336 -21.89287,6.66912 -4.20748,7.88248 -1.22209,17.68539 6.66039,21.89287 7.89121,4.19876 17.69412,1.21337 21.89287,-6.66912 z"
       inkscape:connector-curvature="0" />
    <path
       id="path22843"
       style="fill:none;stroke:#000000;stroke-width:2.42672205;stroke-linecap:round;stroke-linejoin:miter;stroke-miterlimit:10;stroke-opacity:1;stroke-dasharray:none"
       d="m 650.47947,252.49731 c 4.20749,-7.88248 1.22209,-17.68539 -6.66039,-21.89287 -7.89121,-4.19875 -17.68539,-1.21336 -21.89287,6.66912 -4.20748,7.88248 -1.22209,17.68539 6.66039,21.89287 7.89121,4.19876 17.69412,1.21337 21.89287,-6.66912 z"
       inkscape:connector-curvature="0" />
    <path
       id="path22845"
       style="fill:none;stroke:#000000;stroke-width:2.42672205;stroke-linecap:round;stroke-linejoin:miter;stroke-miterlimit:10;stroke-opacity:1;stroke-dasharray:none"
       d="m 636.2072,244.88544 14.27227,7.61187"
       inkscape:connector-curvature="0" />
    <path
       id="path22937"
       style="fill:#ffffff;fill-opacity:1;fill-rule:nonzero;stroke:none"
       d="m 702.7151,423.6947 c 8.49353,-2.77589 13.12874,-11.91538 10.35285,-20.40891 -2.76716,-8.49353 -11.90665,-13.12874 -20.40018,-10.36158 -8.49352,2.77589 -13.13747,11.91538 -10.36157,20.40891 2.77589,8.49353 11.91538,13.12874 20.4089,10.36158 z"
       inkscape:connector-curvature="0" />
    <path
       id="path22939"
       style="fill:none;stroke:#000000;stroke-width:2.42672205;stroke-linecap:round;stroke-linejoin:miter;stroke-miterlimit:10;stroke-opacity:1;stroke-dasharray:none"
       d="m 702.7151,423.6947 c 8.49353,-2.77589 13.12874,-11.91538 10.35285,-20.40891 -2.76716,-8.49353 -11.90665,-13.12874 -20.40018,-10.36158 -8.49352,2.77589 -13.13747,11.91538 -10.36157,20.40891 2.77589,8.49353 11.91538,13.12874 20.4089,10.36158 z"
       inkscape:connector-curvature="0" />
    <path
       id="path22941"
       style="fill:none;stroke:#000000;stroke-width:2.42672205;stroke-linecap:round;stroke-linejoin:miter;stroke-miterlimit:10;stroke-opacity:1;stroke-dasharray:none"
       d="m 697.68707,408.31382 5.02803,15.38088"
       inkscape:connector-curvature="0" />
    <path
       id="path23003"
       style="fill:#ffffff;fill-opacity:1;fill-rule:nonzero;stroke:none"
       d="m 131.09112,185.40456 c -5.15024,7.30635 -3.4044,17.39733 3.90195,22.54756 7.29763,5.15024 17.39733,3.39567 22.54757,-3.90196 5.14151,-7.30635 3.39567,-17.39732 -3.90196,-22.54756 -7.30635,-5.15024 -17.40606,-3.4044 -22.54756,3.90196 z"
       inkscape:connector-curvature="0" />
    <path
       id="path23005"
       style="fill:none;stroke:#000000;stroke-width:2.42672205;stroke-linecap:round;stroke-linejoin:miter;stroke-miterlimit:10;stroke-opacity:1;stroke-dasharray:none"
       d="m 131.09112,185.40456 c -5.15024,7.30635 -3.4044,17.39733 3.90195,22.54756 7.29763,5.15024 17.39733,3.39567 22.54757,-3.90196 5.14151,-7.30635 3.39567,-17.39732 -3.90196,-22.54756 -7.30635,-5.15024 -17.40606,-3.4044 -22.54756,3.90196 z"
       inkscape:connector-curvature="0" />
    <path
       id="path23007"
       style="fill:none;stroke:#000000;stroke-width:2.42672205;stroke-linecap:round;stroke-linejoin:miter;stroke-miterlimit:10;stroke-opacity:1;stroke-dasharray:none"
       d="m 144.31588,194.72736 -13.22476,-9.3228"
       inkscape:connector-curvature="0" />
    <path
       id="path23057"
       style="fill:#ffffff;fill-opacity:1;fill-rule:nonzero;stroke:none"
       d="m 332.33446,419.5134 c -8.10944,-3.75356 -17.72903,-0.22696 -21.4826,7.88249 -3.75356,8.10944 -0.22696,17.72903 7.88248,21.4826 8.10945,3.76229 17.72904,0.22696 21.48261,-7.88248 3.75356,-8.10945 0.22696,-17.72031 -7.88249,-21.48261 z"
       inkscape:connector-curvature="0" />
    <path
       id="path23059"
       style="fill:none;stroke:#000000;stroke-width:2.42672205;stroke-linecap:round;stroke-linejoin:miter;stroke-miterlimit:10;stroke-opacity:1;stroke-dasharray:none"
       d="m 332.33446,419.5134 c -8.10944,-3.75356 -17.72903,-0.22696 -21.4826,7.88249 -3.75356,8.10944 -0.22696,17.72903 7.88248,21.4826 8.10945,3.76229 17.72904,0.22696 21.48261,-7.88248 3.75356,-8.10945 0.22696,-17.72031 -7.88249,-21.48261 z"
       inkscape:connector-curvature="0" />
    <path
       id="path23061"
       style="fill:none;stroke:#000000;stroke-width:2.42672205;stroke-linecap:round;stroke-linejoin:miter;stroke-miterlimit:10;stroke-opacity:1;stroke-dasharray:none"
       d="m 325.5344,434.19595 6.80006,-14.68255"
       inkscape:connector-curvature="0" />
    <path
       id="path23141"
       style="fill:#ffffff;fill-opacity:1;fill-rule:nonzero;stroke:none"
       d="m 323.7711,237.09025 c -8.77286,-1.7022 -17.26639,4.02417 -18.97731,12.79703 -1.7022,8.77286 4.02417,17.26639 12.79703,18.96858 8.77286,1.71093 17.26639,-4.02416 18.97731,-12.79703 1.7022,-8.76413 -4.02417,-17.25766 -12.79703,-18.96858 z"
       inkscape:connector-curvature="0" />
    <path
       id="path23143"
       style="fill:none;stroke:#000000;stroke-width:2.42672205;stroke-linecap:round;stroke-linejoin:miter;stroke-miterlimit:10;stroke-opacity:1;stroke-dasharray:none"
       d="m 323.7711,237.09025 c -8.77286,-1.7022 -17.26639,4.02417 -18.97731,12.79703 -1.7022,8.77286 4.02417,17.26639 12.79703,18.96858 8.77286,1.71093 17.26639,-4.02416 18.97731,-12.79703 1.7022,-8.76413 -4.02417,-17.25766 -12.79703,-18.96858 z"
       inkscape:connector-curvature="0" />
    <path
       id="path23145"
       style="fill:none;stroke:#000000;stroke-width:2.42672205;stroke-linecap:round;stroke-linejoin:miter;stroke-miterlimit:10;stroke-opacity:1;stroke-dasharray:none"
       d="m 320.68096,252.97742 3.09014,-15.88717"
       inkscape:connector-curvature="0" />
    <path
       id="path23171"
       style="fill:#ffffff;fill-opacity:1;fill-rule:nonzero;stroke:none"
       d="m 554.96439,288.81958 c 7.28017,-5.17642 8.99109,-15.27613 3.81467,-22.56502 -5.1677,-7.28017 -15.27613,-8.9911 -22.5563,-3.81467 -7.28889,5.17643 -8.99982,15.27613 -3.82339,22.55629 5.17642,7.2889 15.27613,8.99983 22.56502,3.8234 z"
       inkscape:connector-curvature="0" />
    <path
       id="path23173"
       style="fill:none;stroke:#000000;stroke-width:2.42672205;stroke-linecap:round;stroke-linejoin:miter;stroke-miterlimit:10;stroke-opacity:1;stroke-dasharray:none"
       d="m 554.96439,288.81958 c 7.28017,-5.17642 8.99109,-15.27613 3.81467,-22.56502 -5.1677,-7.28017 -15.27613,-8.9911 -22.5563,-3.81467 -7.28889,5.17643 -8.99982,15.27613 -3.82339,22.55629 5.17642,7.2889 15.27613,8.99983 22.56502,3.8234 z"
       inkscape:connector-curvature="0" />
    <path
       id="path23175"
       style="fill:none;stroke:#000000;stroke-width:2.42672205;stroke-linecap:round;stroke-linejoin:miter;stroke-miterlimit:10;stroke-opacity:1;stroke-dasharray:none"
       d="m 545.58921,275.62974 9.37518,13.18984"
       inkscape:connector-curvature="0" />
    <path
       id="path23201"
       style="fill:#ffffff;fill-opacity:1;fill-rule:nonzero;stroke:none"
       d="m 41.154002,357.84149 c 6.974644,-5.57797 8.109442,-15.76496 2.531473,-22.73961 -5.57797,-6.98337 -15.764965,-8.11817 -22.739608,-2.53147 -6.983373,5.57797 -8.118171,15.76497 -2.531473,22.73961 5.577969,6.98337 15.756235,8.10944 22.739608,2.53147 z"
       inkscape:connector-curvature="0" />
    <path
       id="path23203"
       style="fill:none;stroke:#000000;stroke-width:2.42672205;stroke-linecap:round;stroke-linejoin:miter;stroke-miterlimit:10;stroke-opacity:1;stroke-dasharray:none"
       d="m 41.154002,357.84149 c 6.974644,-5.57797 8.109442,-15.76496 2.531473,-22.73961 -5.57797,-6.98337 -15.764965,-8.11817 -22.739608,-2.53147 -6.983373,5.57797 -8.118171,15.76497 -2.531473,22.73961 5.577969,6.98337 15.756235,8.10944 22.739608,2.53147 z"
       inkscape:connector-curvature="0" />
    <path
       id="path23205"
       style="fill:none;stroke:#000000;stroke-width:2.42672205;stroke-linecap:round;stroke-linejoin:miter;stroke-miterlimit:10;stroke-opacity:1;stroke-dasharray:none"
       d="m 31.04557,345.20159 10.108432,12.6399"
       inkscape:connector-curvature="0" />
    <path
       id="path23573"
       style="fill:#ffffff;fill-opacity:1;fill-rule:nonzero;stroke:none"
       d="m 517.48114,360.24203 c -6.88735,5.69145 -7.8563,15.88717 -2.15612,22.78325 5.69145,6.88735 15.88717,7.8563 22.77453,2.15612 6.88735,-5.69145 7.85629,-15.88718 2.16484,-22.77453 -5.69145,-6.88735 -15.8959,-7.85629 -22.78325,-2.16484 z"
       inkscape:connector-curvature="0" />
    <path
       id="path23575"
       style="fill:none;stroke:#000000;stroke-width:2.42672205;stroke-linecap:round;stroke-linejoin:miter;stroke-miterlimit:10;stroke-opacity:1;stroke-dasharray:none"
       d="m 517.48114,360.24203 c -6.88735,5.69145 -7.8563,15.88717 -2.15612,22.78325 5.69145,6.88735 15.88717,7.8563 22.77453,2.15612 6.88735,-5.69145 7.85629,-15.88718 2.16484,-22.77453 -5.69145,-6.88735 -15.8959,-7.85629 -22.78325,-2.16484 z"
       inkscape:connector-curvature="0" />
    <path
       id="path23577"
       style="fill:none;stroke:#000000;stroke-width:2.42672205;stroke-linecap:round;stroke-linejoin:miter;stroke-miterlimit:10;stroke-opacity:1;stroke-dasharray:none"
       d="m 527.79034,372.71608 -10.3092,-12.47405"
       inkscape:connector-curvature="0" />
    <path
       id="path23867"
       style="fill:#ffffff;fill-opacity:1;fill-rule:nonzero;stroke:none"
       d="m 347.90738,327.26305 c -8.11817,3.72737 -11.67969,13.33824 -7.95231,21.45641 3.72737,8.11817 13.33824,11.67969 21.45641,7.95232 8.11817,-3.72738 11.67969,-13.32952 7.95232,-21.45642 -3.72738,-8.11817 -13.32951,-11.67969 -21.45642,-7.95231 z"
       inkscape:connector-curvature="0" />
    <path
       id="path23869"
       style="fill:none;stroke:#000000;stroke-width:2.42672205;stroke-linecap:round;stroke-linejoin:miter;stroke-miterlimit:10;stroke-opacity:1;stroke-dasharray:none"
       d="m 347.90738,327.26305 c -8.11817,3.72737 -11.67969,13.33824 -7.95231,21.45641 3.72737,8.11817 13.33824,11.67969 21.45641,7.95232 8.11817,-3.72738 11.67969,-13.32952 7.95232,-21.45642 -3.72738,-8.11817 -13.32951,-11.67969 -21.45642,-7.95231 z"
       inkscape:connector-curvature="0" />
    <path
       id="path23871"
       style="fill:none;stroke:#000000;stroke-width:2.42672205;stroke-linecap:round;stroke-linejoin:miter;stroke-miterlimit:10;stroke-opacity:1;stroke-dasharray:none"
       d="m 354.6638,341.97178 -6.75642,-14.70873"
       inkscape:connector-curvature="0" />
    <path
       id="path23903"
       style="fill:#ffffff;fill-opacity:1;fill-rule:nonzero;stroke:none"
       d="m 230.0717,489.19874 c -0.009,8.93871 7.22779,16.18396 16.1665,16.19269 8.93872,0.009 16.18397,-7.22779 16.1927,-16.16651 0.009,-8.93871 -7.22779,-16.18396 -16.16651,-16.19269 -8.93871,-0.009 -16.18396,7.22779 -16.19269,16.16651 z"
       inkscape:connector-curvature="0" />
    <path
       id="path23905"
       style="fill:none;stroke:#000000;stroke-width:2.42672205;stroke-linecap:round;stroke-linejoin:miter;stroke-miterlimit:10;stroke-opacity:1;stroke-dasharray:none"
       d="m 230.0717,489.19874 c -0.009,8.93871 7.22779,16.18396 16.1665,16.19269 8.93872,0.009 16.18397,-7.22779 16.1927,-16.16651 0.009,-8.93871 -7.22779,-16.18396 -16.16651,-16.19269 -8.93871,-0.009 -16.18396,7.22779 -16.19269,16.16651 z"
       inkscape:connector-curvature="0" />
    <path
       id="path23907"
       style="fill:none;stroke:#000000;stroke-width:2.42672205;stroke-linecap:round;stroke-linejoin:miter;stroke-miterlimit:10;stroke-opacity:1;stroke-dasharray:none"
       d="M 246.24693,489.2162 230.0717,489.1987"
       inkscape:connector-curvature="0" />
    <path
       id="path24665"
       style="fill:#ffffff;fill-opacity:1;fill-rule:nonzero;stroke:none"
       d="m 693.54943,301.23253 c -4.61776,7.64679 -2.17358,17.5981 5.47321,22.21585 7.6468,4.62649 17.5981,2.18231 22.21586,-5.46449 4.62648,-7.64679 2.1823,-17.5981 -5.46449,-22.21585 -7.64679,-4.62649 -17.5981,-2.18231 -22.22458,5.46449 z"
       inkscape:connector-curvature="0" />
    <path
       id="path24667"
       style="fill:none;stroke:#000000;stroke-width:2.42672205;stroke-linecap:round;stroke-linejoin:miter;stroke-miterlimit:10;stroke-opacity:1;stroke-dasharray:none"
       d="m 693.54943,301.23253 c -4.61776,7.64679 -2.17358,17.5981 5.47321,22.21585 7.6468,4.62649 17.5981,2.18231 22.21586,-5.46449 4.62648,-7.64679 2.1823,-17.5981 -5.46449,-22.21585 -7.64679,-4.62649 -17.5981,-2.18231 -22.22458,5.46449 z"
       inkscape:connector-curvature="0" />
    <path
       id="path24669"
       style="fill:none;stroke:#000000;stroke-width:2.42672205;stroke-linecap:round;stroke-linejoin:miter;stroke-miterlimit:10;stroke-opacity:1;stroke-dasharray:none"
       d="m 707.39396,309.60384 -13.84453,-8.37131"
       inkscape:connector-curvature="0" />
    <path
       id="path25079"
       style="fill:#ffffff;fill-opacity:1;fill-rule:nonzero;stroke:none"
       d="m 75.782802,451.77659 c 8.816508,-1.47524 14.769834,-9.81164 13.294596,-18.62815 -1.475237,-8.81651 -9.811639,-14.7611 -18.628147,-13.2946 -8.816508,1.47524 -14.761104,9.82037 -13.294596,18.62815 1.475238,8.81651 9.811639,14.76983 18.628147,13.2946 z"
       inkscape:connector-curvature="0" />
    <path
       id="path25081"
       style="fill:none;stroke:#000000;stroke-width:2.42672205;stroke-linecap:round;stroke-linejoin:miter;stroke-miterlimit:10;stroke-opacity:1;stroke-dasharray:none"
       d="m 75.782802,451.77659 c 8.816508,-1.47524 14.769834,-9.81164 13.294596,-18.62815 -1.475237,-8.81651 -9.811639,-14.7611 -18.628147,-13.2946 -8.816508,1.47524 -14.761104,9.82037 -13.294596,18.62815 1.475238,8.81651 9.811639,14.76983 18.628147,13.2946 z"
       inkscape:connector-curvature="0" />
    <path
       id="path25083"
       style="fill:none;stroke:#000000;stroke-width:2.42672205;stroke-linecap:round;stroke-linejoin:miter;stroke-miterlimit:10;stroke-opacity:1;stroke-dasharray:none"
       d="m 73.120391,435.81958 2.662411,15.95701"
       inkscape:connector-curvature="0" />
    <path
       id="path25229"
       style="fill:#ffffff;fill-opacity:1;fill-rule:nonzero;stroke:none"
       d="m 234.44503,208.44969 c 7.58569,4.73123 17.56319,2.42672 22.29442,-5.15897 4.73124,-7.57696 2.41799,-17.56318 -5.15896,-22.29442 -7.57696,-4.73123 -17.56319,-2.41799 -22.29442,5.15897 -4.73124,7.58569 -2.418,17.56318 5.15896,22.29442 z"
       inkscape:connector-curvature="0" />
    <path
       id="path25231"
       style="fill:none;stroke:#000000;stroke-width:2.42672205;stroke-linecap:round;stroke-linejoin:miter;stroke-miterlimit:10;stroke-opacity:1;stroke-dasharray:none"
       d="m 234.44503,208.44969 c 7.58569,4.73123 17.56319,2.42672 22.29442,-5.15897 4.73124,-7.57696 2.41799,-17.56318 -5.15896,-22.29442 -7.57696,-4.73123 -17.56319,-2.41799 -22.29442,5.15897 -4.73124,7.58569 -2.418,17.56318 5.15896,22.29442 z"
       inkscape:connector-curvature="0" />
    <path
       id="path25233"
       style="fill:none;stroke:#000000;stroke-width:2.42672205;stroke-linecap:round;stroke-linejoin:miter;stroke-miterlimit:10;stroke-opacity:1;stroke-dasharray:none"
       d="m 243.01712,194.72736 -8.57209,13.72233"
       inkscape:connector-curvature="0" />
  </g>
</svg>
