<?xml version="1.0" encoding="UTF-8" standalone="no"?>
<!-- Created with Inkscape (http://www.inkscape.org/) -->

<svg
   xmlns:dc="http://purl.org/dc/elements/1.1/"
   xmlns:cc="http://creativecommons.org/ns#"
   xmlns:rdf="http://www.w3.org/1999/02/22-rdf-syntax-ns#"
   xmlns:svg="http://www.w3.org/2000/svg"
   xmlns="http://www.w3.org/2000/svg"
   xmlns:sodipodi="http://sodipodi.sourceforge.net/DTD/sodipodi-0.dtd"
   xmlns:inkscape="http://www.inkscape.org/namespaces/inkscape"
   width="744.09448819"
   height="1052.3622047"
   id="svg2"
   version="1.1"
   inkscape:version="0.48.5 r10040"
   sodipodi:docname="New document 1">
  <defs
     id="defs4">
    <clipPath
       id="clipPath3001"
       clipPathUnits="userSpaceOnUse">
      <path
         id="path3003"
         d="M 0,800 0,0 1000,0 1000,800 0,800 z" />
    </clipPath>
  </defs>
  <sodipodi:namedview
     id="base"
     pagecolor="#ffffff"
     bordercolor="#666666"
     borderopacity="1.0"
     inkscape:pageopacity="0.0"
     inkscape:pageshadow="2"
     inkscape:zoom="1.979899"
     inkscape:cx="284.18343"
     inkscape:cy="609.18692"
     inkscape:document-units="px"
     inkscape:current-layer="layer1"
     showgrid="false"
     inkscape:window-width="1920"
     inkscape:window-height="1200"
     inkscape:window-x="0"
     inkscape:window-y="0"
     inkscape:window-maximized="0" />
  <metadata
     id="metadata7">
    <rdf:RDF>
      <cc:Work
         rdf:about="">
        <dc:format>image/svg+xml</dc:format>
        <dc:type
           rdf:resource="http://purl.org/dc/dcmitype/StillImage" />
        <dc:title></dc:title>
      </cc:Work>
    </rdf:RDF>
  </metadata>
  <g
     inkscape:label="Layer 1"
     inkscape:groupmode="layer"
     id="layer1">
    <g
       id="g2995"
       transform="matrix(1.25,0,0,-1.25,-439.28571,758.07647)" />
    <path
       id="path3155"
       style="fill:none;stroke:#969696;stroke-width:1.25;stroke-linecap:round;stroke-linejoin:miter;stroke-miterlimit:10;stroke-opacity:1;stroke-dasharray:none"
       d="m 420.71429,290.57647 63.75,86.25"
       inkscape:connector-curvature="0" />
    <path
       id="path3157"
       style="fill:none;stroke:#969696;stroke-width:1.25;stroke-linecap:round;stroke-linejoin:miter;stroke-miterlimit:10;stroke-opacity:1;stroke-dasharray:none"
       d="m 420.71429,290.57647 -77.5,82.5"
       inkscape:connector-curvature="0" />
    <path
       id="path3159"
       style="fill:none;stroke:#969696;stroke-width:1.25;stroke-linecap:round;stroke-linejoin:miter;stroke-miterlimit:10;stroke-opacity:1;stroke-dasharray:none"
       d="m 420.71429,290.57647 -107.5,0"
       inkscape:connector-curvature="0" />
    <path
       id="path3161"
       style="fill:none;stroke:#969696;stroke-width:1.25;stroke-linecap:round;stroke-linejoin:miter;stroke-miterlimit:10;stroke-opacity:1;stroke-dasharray:none"
       d="m 420.71429,290.57647 -23.75,96.25"
       inkscape:connector-curvature="0" />
    <path
       id="path4221"
       style="fill:none;stroke:#969696;stroke-width:1.25;stroke-linecap:round;stroke-linejoin:miter;stroke-miterlimit:10;stroke-opacity:1;stroke-dasharray:none"
       d="m 473.21429,449.32647 11.25,-72.5"
       inkscape:connector-curvature="0" />
    <path
       id="path4223"
       style="fill:none;stroke:#969696;stroke-width:1.25;stroke-linecap:round;stroke-linejoin:miter;stroke-miterlimit:10;stroke-opacity:1;stroke-dasharray:none"
       d="m 473.21429,449.32647 -22.5,76.25"
       inkscape:connector-curvature="0" />
    <path
       id="path4225"
       style="fill:none;stroke:#969696;stroke-width:1.25;stroke-linecap:round;stroke-linejoin:miter;stroke-miterlimit:10;stroke-opacity:1;stroke-dasharray:none"
       d="m 473.21429,449.32647 -71.25,28.75"
       inkscape:connector-curvature="0" />
    <path
       id="path4227"
       style="fill:none;stroke:#969696;stroke-width:1.25;stroke-linecap:round;stroke-linejoin:miter;stroke-miterlimit:10;stroke-opacity:1;stroke-dasharray:none"
       d="m 473.21429,449.32647 -76.25,-62.5"
       inkscape:connector-curvature="0" />
    <path
       id="path4301"
       style="fill:none;stroke:#969696;stroke-width:1.25;stroke-linecap:round;stroke-linejoin:miter;stroke-miterlimit:10;stroke-opacity:1;stroke-dasharray:none"
       d="m 204.46429,494.32647 51.25,48.75"
       inkscape:connector-curvature="0" />
    <path
       id="path4303"
       style="fill:none;stroke:#969696;stroke-width:1.25;stroke-linecap:round;stroke-linejoin:miter;stroke-miterlimit:10;stroke-opacity:1;stroke-dasharray:none"
       d="m 204.46429,494.32647 76.25,-20"
       inkscape:connector-curvature="0" />
    <path
       id="path4305"
       style="fill:none;stroke:#969696;stroke-width:1.25;stroke-linecap:round;stroke-linejoin:miter;stroke-miterlimit:10;stroke-opacity:1;stroke-dasharray:none"
       d="m 204.46429,494.32647 8.75,-87.5"
       inkscape:connector-curvature="0" />
    <path
       id="path4547"
       style="fill:none;stroke:#969696;stroke-width:1.25;stroke-linecap:round;stroke-linejoin:miter;stroke-miterlimit:10;stroke-opacity:1;stroke-dasharray:none"
       d="m 280.71429,474.32647 -25,68.75"
       inkscape:connector-curvature="0" />
    <path
       id="path4549"
       style="fill:none;stroke:#969696;stroke-width:1.25;stroke-linecap:round;stroke-linejoin:miter;stroke-miterlimit:10;stroke-opacity:1;stroke-dasharray:none"
       d="m 280.71429,474.32647 62.5,-101.25"
       inkscape:connector-curvature="0" />
    <path
       id="path4551"
       style="fill:none;stroke:#969696;stroke-width:1.25;stroke-linecap:round;stroke-linejoin:miter;stroke-miterlimit:10;stroke-opacity:1;stroke-dasharray:none"
       d="m 280.71429,474.32647 17.5,-82.5"
       inkscape:connector-curvature="0" />
    <path
       id="path4553"
       style="fill:none;stroke:#969696;stroke-width:1.25;stroke-linecap:round;stroke-linejoin:miter;stroke-miterlimit:10;stroke-opacity:1;stroke-dasharray:none"
       d="m 280.71429,474.32647 -67.5,-67.5"
       inkscape:connector-curvature="0" />
    <path
       id="path4555"
       style="fill:none;stroke:#969696;stroke-width:1.25;stroke-linecap:round;stroke-linejoin:miter;stroke-miterlimit:10;stroke-opacity:1;stroke-dasharray:none"
       d="m 280.71429,474.32647 85,77.5"
       inkscape:connector-curvature="0" />
    <path
       id="path4557"
       style="fill:none;stroke:#969696;stroke-width:1.25;stroke-linecap:round;stroke-linejoin:miter;stroke-miterlimit:10;stroke-opacity:1;stroke-dasharray:none"
       d="m 280.71429,474.32647 -76.25,20"
       inkscape:connector-curvature="0" />
    <path
       id="path4559"
       style="fill:none;stroke:#969696;stroke-width:1.25;stroke-linecap:round;stroke-linejoin:miter;stroke-miterlimit:10;stroke-opacity:1;stroke-dasharray:none"
       d="m 280.71429,474.32647 121.25,3.75"
       inkscape:connector-curvature="0" />
    <path
       id="path4579"
       style="fill:none;stroke:#969696;stroke-width:1.25;stroke-linecap:round;stroke-linejoin:miter;stroke-miterlimit:10;stroke-opacity:1;stroke-dasharray:none"
       d="m 450.71429,525.57647 -48.75,-47.5"
       inkscape:connector-curvature="0" />
    <path
       id="path4581"
       style="fill:none;stroke:#969696;stroke-width:1.25;stroke-linecap:round;stroke-linejoin:miter;stroke-miterlimit:10;stroke-opacity:1;stroke-dasharray:none"
       d="m 450.71429,525.57647 22.5,-76.25"
       inkscape:connector-curvature="0" />
    <path
       id="path4583"
       style="fill:none;stroke:#969696;stroke-width:1.25;stroke-linecap:round;stroke-linejoin:miter;stroke-miterlimit:10;stroke-opacity:1;stroke-dasharray:none"
       d="m 450.71429,525.57647 -85,26.25"
       inkscape:connector-curvature="0" />
    <path
       id="path5717"
       style="fill:none;stroke:#969696;stroke-width:1.25;stroke-linecap:round;stroke-linejoin:miter;stroke-miterlimit:10;stroke-opacity:1;stroke-dasharray:none"
       d="m 255.71429,543.07647 -51.25,-48.75"
       inkscape:connector-curvature="0" />
    <path
       id="path5719"
       style="fill:none;stroke:#969696;stroke-width:1.25;stroke-linecap:round;stroke-linejoin:miter;stroke-miterlimit:10;stroke-opacity:1;stroke-dasharray:none"
       d="m 255.71429,543.07647 25,-68.75"
       inkscape:connector-curvature="0" />
    <path
       id="path5721"
       style="fill:none;stroke:#969696;stroke-width:1.25;stroke-linecap:round;stroke-linejoin:miter;stroke-miterlimit:10;stroke-opacity:1;stroke-dasharray:none"
       d="m 255.71429,543.07647 110,8.75"
       inkscape:connector-curvature="0" />
    <path
       id="path5887"
       style="fill:none;stroke:#969696;stroke-width:1.25;stroke-linecap:round;stroke-linejoin:miter;stroke-miterlimit:10;stroke-opacity:1;stroke-dasharray:none"
       d="m 365.71429,551.82647 -110,-8.75"
       inkscape:connector-curvature="0" />
    <path
       id="path5889"
       style="fill:none;stroke:#969696;stroke-width:1.25;stroke-linecap:round;stroke-linejoin:miter;stroke-miterlimit:10;stroke-opacity:1;stroke-dasharray:none"
       d="m 365.71429,551.82647 85,-26.25"
       inkscape:connector-curvature="0" />
    <path
       id="path5891"
       style="fill:none;stroke:#969696;stroke-width:1.25;stroke-linecap:round;stroke-linejoin:miter;stroke-miterlimit:10;stroke-opacity:1;stroke-dasharray:none"
       d="m 365.71429,551.82647 -85,-77.5"
       inkscape:connector-curvature="0" />
    <path
       id="path5893"
       style="fill:none;stroke:#969696;stroke-width:1.25;stroke-linecap:round;stroke-linejoin:miter;stroke-miterlimit:10;stroke-opacity:1;stroke-dasharray:none"
       d="m 365.71429,551.82647 36.25,-73.75"
       inkscape:connector-curvature="0" />
    <path
       id="path6381"
       style="fill:none;stroke:#969696;stroke-width:1.25;stroke-linecap:round;stroke-linejoin:miter;stroke-miterlimit:10;stroke-opacity:1;stroke-dasharray:none"
       d="m 213.21429,406.82647 -8.75,87.5"
       inkscape:connector-curvature="0" />
    <path
       id="path6383"
       style="fill:none;stroke:#969696;stroke-width:1.25;stroke-linecap:round;stroke-linejoin:miter;stroke-miterlimit:10;stroke-opacity:1;stroke-dasharray:none"
       d="m 213.21429,406.82647 67.5,67.5"
       inkscape:connector-curvature="0" />
    <path
       id="path6385"
       style="fill:none;stroke:#969696;stroke-width:1.25;stroke-linecap:round;stroke-linejoin:miter;stroke-miterlimit:10;stroke-opacity:1;stroke-dasharray:none"
       d="m 213.21429,406.82647 85,-15"
       inkscape:connector-curvature="0" />
    <path
       id="path6387"
       style="fill:none;stroke:#969696;stroke-width:1.25;stroke-linecap:round;stroke-linejoin:miter;stroke-miterlimit:10;stroke-opacity:1;stroke-dasharray:none"
       d="m 213.21429,406.82647 13.75,-72.5"
       inkscape:connector-curvature="0" />
    <path
       id="path6431"
       style="fill:none;stroke:#969696;stroke-width:1.25;stroke-linecap:round;stroke-linejoin:miter;stroke-miterlimit:10;stroke-opacity:1;stroke-dasharray:none"
       d="m 401.96429,478.07647 48.75,47.5"
       inkscape:connector-curvature="0" />
    <path
       id="path6433"
       style="fill:none;stroke:#969696;stroke-width:1.25;stroke-linecap:round;stroke-linejoin:miter;stroke-miterlimit:10;stroke-opacity:1;stroke-dasharray:none"
       d="m 401.96429,478.07647 -58.75,-105"
       inkscape:connector-curvature="0" />
    <path
       id="path6435"
       style="fill:none;stroke:#969696;stroke-width:1.25;stroke-linecap:round;stroke-linejoin:miter;stroke-miterlimit:10;stroke-opacity:1;stroke-dasharray:none"
       d="m 401.96429,478.07647 71.25,-28.75"
       inkscape:connector-curvature="0" />
    <path
       id="path6437"
       style="fill:none;stroke:#969696;stroke-width:1.25;stroke-linecap:round;stroke-linejoin:miter;stroke-miterlimit:10;stroke-opacity:1;stroke-dasharray:none"
       d="m 401.96429,478.07647 -36.25,73.75"
       inkscape:connector-curvature="0" />
    <path
       id="path6439"
       style="fill:none;stroke:#969696;stroke-width:1.25;stroke-linecap:round;stroke-linejoin:miter;stroke-miterlimit:10;stroke-opacity:1;stroke-dasharray:none"
       d="m 401.96429,478.07647 -121.25,-3.75"
       inkscape:connector-curvature="0" />
    <path
       id="path6441"
       style="fill:none;stroke:#969696;stroke-width:1.25;stroke-linecap:round;stroke-linejoin:miter;stroke-miterlimit:10;stroke-opacity:1;stroke-dasharray:none"
       d="m 401.96429,478.07647 -5,-91.25"
       inkscape:connector-curvature="0" />
    <path
       id="path6813"
       style="fill:none;stroke:#969696;stroke-width:1.25;stroke-linecap:round;stroke-linejoin:miter;stroke-miterlimit:10;stroke-opacity:1;stroke-dasharray:none"
       d="m 298.21429,391.82647 45,-18.75"
       inkscape:connector-curvature="0" />
    <path
       id="path6815"
       style="fill:none;stroke:#969696;stroke-width:1.25;stroke-linecap:round;stroke-linejoin:miter;stroke-miterlimit:10;stroke-opacity:1;stroke-dasharray:none"
       d="m 298.21429,391.82647 15,-101.25"
       inkscape:connector-curvature="0" />
    <path
       id="path6817"
       style="fill:none;stroke:#969696;stroke-width:1.25;stroke-linecap:round;stroke-linejoin:miter;stroke-miterlimit:10;stroke-opacity:1;stroke-dasharray:none"
       d="m 298.21429,391.82647 -17.5,82.5"
       inkscape:connector-curvature="0" />
    <path
       id="path6819"
       style="fill:none;stroke:#969696;stroke-width:1.25;stroke-linecap:round;stroke-linejoin:miter;stroke-miterlimit:10;stroke-opacity:1;stroke-dasharray:none"
       d="m 298.21429,391.82647 98.75,-5"
       inkscape:connector-curvature="0" />
    <path
       id="path6821"
       style="fill:none;stroke:#969696;stroke-width:1.25;stroke-linecap:round;stroke-linejoin:miter;stroke-miterlimit:10;stroke-opacity:1;stroke-dasharray:none"
       d="m 298.21429,391.82647 -85,15"
       inkscape:connector-curvature="0" />
    <path
       id="path6823"
       style="fill:none;stroke:#969696;stroke-width:1.25;stroke-linecap:round;stroke-linejoin:miter;stroke-miterlimit:10;stroke-opacity:1;stroke-dasharray:none"
       d="m 298.21429,391.82647 -71.25,-57.5"
       inkscape:connector-curvature="0" />
    <path
       id="path6953"
       style="fill:none;stroke:#969696;stroke-width:1.25;stroke-linecap:round;stroke-linejoin:miter;stroke-miterlimit:10;stroke-opacity:1;stroke-dasharray:none"
       d="m 313.21429,290.57647 30,82.5"
       inkscape:connector-curvature="0" />
    <path
       id="path6955"
       style="fill:none;stroke:#969696;stroke-width:1.25;stroke-linecap:round;stroke-linejoin:miter;stroke-miterlimit:10;stroke-opacity:1;stroke-dasharray:none"
       d="m 313.21429,290.57647 107.5,0"
       inkscape:connector-curvature="0" />
    <path
       id="path6957"
       style="fill:none;stroke:#969696;stroke-width:1.25;stroke-linecap:round;stroke-linejoin:miter;stroke-miterlimit:10;stroke-opacity:1;stroke-dasharray:none"
       d="m 313.21429,290.57647 -15,101.25"
       inkscape:connector-curvature="0" />
    <path
       id="path6959"
       style="fill:none;stroke:#969696;stroke-width:1.25;stroke-linecap:round;stroke-linejoin:miter;stroke-miterlimit:10;stroke-opacity:1;stroke-dasharray:none"
       d="m 313.21429,290.57647 -86.25,43.75"
       inkscape:connector-curvature="0" />
    <path
       id="path7243"
       style="fill:none;stroke:#969696;stroke-width:1.25;stroke-linecap:round;stroke-linejoin:miter;stroke-miterlimit:10;stroke-opacity:1;stroke-dasharray:none"
       d="m 484.46429,376.82647 -87.5,10"
       inkscape:connector-curvature="0" />
    <path
       id="path7245"
       style="fill:none;stroke:#969696;stroke-width:1.25;stroke-linecap:round;stroke-linejoin:miter;stroke-miterlimit:10;stroke-opacity:1;stroke-dasharray:none"
       d="m 484.46429,376.82647 -63.75,-86.25"
       inkscape:connector-curvature="0" />
    <path
       id="path7247"
       style="fill:none;stroke:#969696;stroke-width:1.25;stroke-linecap:round;stroke-linejoin:miter;stroke-miterlimit:10;stroke-opacity:1;stroke-dasharray:none"
       d="m 484.46429,376.82647 -11.25,72.5"
       inkscape:connector-curvature="0" />
    <path
       id="path7527"
       style="fill:none;stroke:#969696;stroke-width:1.25;stroke-linecap:round;stroke-linejoin:miter;stroke-miterlimit:10;stroke-opacity:1;stroke-dasharray:none"
       d="m 226.96429,334.32647 116.25,38.75"
       inkscape:connector-curvature="0" />
    <path
       id="path7529"
       style="fill:none;stroke:#969696;stroke-width:1.25;stroke-linecap:round;stroke-linejoin:miter;stroke-miterlimit:10;stroke-opacity:1;stroke-dasharray:none"
       d="m 226.96429,334.32647 86.25,-43.75"
       inkscape:connector-curvature="0" />
    <path
       id="path7531"
       style="fill:none;stroke:#969696;stroke-width:1.25;stroke-linecap:round;stroke-linejoin:miter;stroke-miterlimit:10;stroke-opacity:1;stroke-dasharray:none"
       d="m 226.96429,334.32647 71.25,57.5"
       inkscape:connector-curvature="0" />
    <path
       id="path7533"
       style="fill:none;stroke:#969696;stroke-width:1.25;stroke-linecap:round;stroke-linejoin:miter;stroke-miterlimit:10;stroke-opacity:1;stroke-dasharray:none"
       d="m 226.96429,334.32647 -13.75,72.5"
       inkscape:connector-curvature="0" />
    <path
       id="path8031"
       style="fill:none;stroke:#969696;stroke-width:1.25;stroke-linecap:round;stroke-linejoin:miter;stroke-miterlimit:10;stroke-opacity:1;stroke-dasharray:none"
       d="m 396.96429,386.82647 87.5,-10"
       inkscape:connector-curvature="0" />
    <path
       id="path8033"
       style="fill:none;stroke:#969696;stroke-width:1.25;stroke-linecap:round;stroke-linejoin:miter;stroke-miterlimit:10;stroke-opacity:1;stroke-dasharray:none"
       d="m 396.96429,386.82647 -53.75,-13.75"
       inkscape:connector-curvature="0" />
    <path
       id="path8035"
       style="fill:none;stroke:#969696;stroke-width:1.25;stroke-linecap:round;stroke-linejoin:miter;stroke-miterlimit:10;stroke-opacity:1;stroke-dasharray:none"
       d="m 396.96429,386.82647 23.75,-96.25"
       inkscape:connector-curvature="0" />
    <path
       id="path8037"
       style="fill:none;stroke:#969696;stroke-width:1.25;stroke-linecap:round;stroke-linejoin:miter;stroke-miterlimit:10;stroke-opacity:1;stroke-dasharray:none"
       d="m 396.96429,386.82647 76.25,62.5"
       inkscape:connector-curvature="0" />
    <path
       id="path8039"
       style="fill:none;stroke:#969696;stroke-width:1.25;stroke-linecap:round;stroke-linejoin:miter;stroke-miterlimit:10;stroke-opacity:1;stroke-dasharray:none"
       d="m 396.96429,386.82647 5,91.25"
       inkscape:connector-curvature="0" />
    <path
       id="path8041"
       style="fill:none;stroke:#969696;stroke-width:1.25;stroke-linecap:round;stroke-linejoin:miter;stroke-miterlimit:10;stroke-opacity:1;stroke-dasharray:none"
       d="m 396.96429,386.82647 -98.75,5"
       inkscape:connector-curvature="0" />
    <path
       id="path8307"
       style="fill:none;stroke:#969696;stroke-width:1.25;stroke-linecap:round;stroke-linejoin:miter;stroke-miterlimit:10;stroke-opacity:1;stroke-dasharray:none"
       d="m 343.21429,373.07647 77.5,-82.5"
       inkscape:connector-curvature="0" />
    <path
       id="path8309"
       style="fill:none;stroke:#969696;stroke-width:1.25;stroke-linecap:round;stroke-linejoin:miter;stroke-miterlimit:10;stroke-opacity:1;stroke-dasharray:none"
       d="m 343.21429,373.07647 -30,-82.5"
       inkscape:connector-curvature="0" />
    <path
       id="path8311"
       style="fill:none;stroke:#969696;stroke-width:1.25;stroke-linecap:round;stroke-linejoin:miter;stroke-miterlimit:10;stroke-opacity:1;stroke-dasharray:none"
       d="m 343.21429,373.07647 -62.5,101.25"
       inkscape:connector-curvature="0" />
    <path
       id="path8313"
       style="fill:none;stroke:#969696;stroke-width:1.25;stroke-linecap:round;stroke-linejoin:miter;stroke-miterlimit:10;stroke-opacity:1;stroke-dasharray:none"
       d="m 343.21429,373.07647 -45,18.75"
       inkscape:connector-curvature="0" />
    <path
       id="path8315"
       style="fill:none;stroke:#969696;stroke-width:1.25;stroke-linecap:round;stroke-linejoin:miter;stroke-miterlimit:10;stroke-opacity:1;stroke-dasharray:none"
       d="m 343.21429,373.07647 58.75,105"
       inkscape:connector-curvature="0" />
    <path
       id="path8317"
       style="fill:none;stroke:#969696;stroke-width:1.25;stroke-linecap:round;stroke-linejoin:miter;stroke-miterlimit:10;stroke-opacity:1;stroke-dasharray:none"
       d="m 343.21429,373.07647 53.75,13.75"
       inkscape:connector-curvature="0" />
    <path
       id="path8319"
       style="fill:none;stroke:#969696;stroke-width:1.25;stroke-linecap:round;stroke-linejoin:miter;stroke-miterlimit:10;stroke-opacity:1;stroke-dasharray:none"
       d="m 343.21429,373.07647 -116.25,-38.75"
       inkscape:connector-curvature="0" />
    <path
       id="path8537"
       style="fill:#ffffff;fill-opacity:1;fill-rule:nonzero;stroke:none"
       d="m 432.95179,293.15147 c 1.4125,-6.7625 -2.9125,-13.3875 -9.6625,-14.8125 -6.7625,-1.4125 -13.3875,2.9125 -14.8125,9.6625 -1.4125,6.7625 2.9125,13.3875 9.6625,14.8125 6.7625,1.4125 13.3875,-2.9125 14.8125,-9.6625 z"
       inkscape:connector-curvature="0" />
    <path
       id="path8539"
       style="fill:none;stroke:#000000;stroke-width:1.875;stroke-linecap:round;stroke-linejoin:miter;stroke-miterlimit:10;stroke-opacity:1;stroke-dasharray:none"
       d="m 432.95179,293.15147 c 1.4125,-6.7625 -2.9125,-13.3875 -9.6625,-14.8125 -6.7625,-1.4125 -13.3875,2.9125 -14.8125,9.6625 -1.4125,6.7625 2.9125,13.3875 9.6625,14.8125 6.7625,1.4125 13.3875,-2.9125 14.8125,-9.6625 z"
       inkscape:connector-curvature="0" />
    <path
       id="path8541"
       style="fill:none;stroke:#000000;stroke-width:1.875;stroke-linecap:round;stroke-linejoin:miter;stroke-miterlimit:10;stroke-opacity:1;stroke-dasharray:none"
       d="m 420.71429,290.57647 12.2375,2.575"
       inkscape:connector-curvature="0" />
    <path
       id="path9113"
       style="fill:#ffffff;fill-opacity:1;fill-rule:nonzero;stroke:none"
       d="m 462.36429,455.52647 c 3.425,6 11.0625,8.075 17.05,4.65 6,-3.425 8.075,-11.0625 4.65,-17.05 -3.425,-6 -11.0625,-8.075 -17.05,-4.65 -6,3.425 -8.075,11.0625 -4.65,17.05 z"
       inkscape:connector-curvature="0" />
    <path
       id="path9115"
       style="fill:none;stroke:#000000;stroke-width:1.875;stroke-linecap:round;stroke-linejoin:miter;stroke-miterlimit:10;stroke-opacity:1;stroke-dasharray:none"
       d="m 462.36429,455.52647 c 3.425,6 11.0625,8.075 17.05,4.65 6,-3.425 8.075,-11.0625 4.65,-17.05 -3.425,-6 -11.0625,-8.075 -17.05,-4.65 -6,3.425 -8.075,11.0625 -4.65,17.05 z"
       inkscape:connector-curvature="0" />
    <path
       id="path9117"
       style="fill:none;stroke:#000000;stroke-width:1.875;stroke-linecap:round;stroke-linejoin:miter;stroke-miterlimit:10;stroke-opacity:1;stroke-dasharray:none"
       d="m 473.21429,449.32647 -10.85,6.2"
       inkscape:connector-curvature="0" />
    <path
       id="path9161"
       style="fill:#ffffff;fill-opacity:1;fill-rule:nonzero;stroke:none"
       d="m 193.88929,487.66397 c -3.675,5.8375 -1.925,13.5625 3.9125,17.2375 5.8375,3.675 13.5625,1.925 17.2375,-3.9125 3.675,-5.8375 1.925,-13.5625 -3.9125,-17.2375 -5.8375,-3.675 -13.5625,-1.925 -17.2375,3.9125 z"
       inkscape:connector-curvature="0" />
    <path
       id="path9163"
       style="fill:none;stroke:#000000;stroke-width:1.875;stroke-linecap:round;stroke-linejoin:miter;stroke-miterlimit:10;stroke-opacity:1;stroke-dasharray:none"
       d="m 193.88929,487.66397 c -3.675,5.8375 -1.925,13.5625 3.9125,17.2375 5.8375,3.675 13.5625,1.925 17.2375,-3.9125 3.675,-5.8375 1.925,-13.5625 -3.9125,-17.2375 -5.8375,-3.675 -13.5625,-1.925 -17.2375,3.9125 z"
       inkscape:connector-curvature="0" />
    <path
       id="path9165"
       style="fill:none;stroke:#000000;stroke-width:1.875;stroke-linecap:round;stroke-linejoin:miter;stroke-miterlimit:10;stroke-opacity:1;stroke-dasharray:none"
       d="m 204.46429,494.32647 -10.575,-6.6625"
       inkscape:connector-curvature="0" />
    <path
       id="path9299"
       style="fill:#ffffff;fill-opacity:1;fill-rule:nonzero;stroke:none"
       d="m 291.00179,467.21397 c -3.9375,-5.675 -11.7125,-7.1 -17.4,-3.175 -5.675,3.9375 -7.1,11.7125 -3.175,17.4 3.9375,5.675 11.7125,7.1 17.4,3.175 5.675,-3.9375 7.1,-11.7125 3.175,-17.4 z"
       inkscape:connector-curvature="0" />
    <path
       id="path9301"
       style="fill:none;stroke:#000000;stroke-width:1.875;stroke-linecap:round;stroke-linejoin:miter;stroke-miterlimit:10;stroke-opacity:1;stroke-dasharray:none"
       d="m 291.00179,467.21397 c -3.9375,-5.675 -11.7125,-7.1 -17.4,-3.175 -5.675,3.9375 -7.1,11.7125 -3.175,17.4 3.9375,5.675 11.7125,7.1 17.4,3.175 5.675,-3.9375 7.1,-11.7125 3.175,-17.4 z"
       inkscape:connector-curvature="0" />
    <path
       id="path9303"
       style="fill:none;stroke:#000000;stroke-width:1.875;stroke-linecap:round;stroke-linejoin:miter;stroke-miterlimit:10;stroke-opacity:1;stroke-dasharray:none"
       d="m 280.71429,474.32647 10.2875,-7.1125"
       inkscape:connector-curvature="0" />
    <path
       id="path9317"
       style="fill:#ffffff;fill-opacity:1;fill-rule:nonzero;stroke:none"
       d="m 462.23929,520.73897 c -2.675,-6.3625 -10,-9.3625 -16.3625,-6.6875 -6.3625,2.675 -9.3625,10 -6.6875,16.3625 2.675,6.3625 10,9.3625 16.3625,6.6875 6.3625,-2.675 9.3625,-10 6.6875,-16.3625 z"
       inkscape:connector-curvature="0" />
    <path
       id="path9319"
       style="fill:none;stroke:#000000;stroke-width:1.875;stroke-linecap:round;stroke-linejoin:miter;stroke-miterlimit:10;stroke-opacity:1;stroke-dasharray:none"
       d="m 462.23929,520.73897 c -2.675,-6.3625 -10,-9.3625 -16.3625,-6.6875 -6.3625,2.675 -9.3625,10 -6.6875,16.3625 2.675,6.3625 10,9.3625 16.3625,6.6875 6.3625,-2.675 9.3625,-10 6.6875,-16.3625 z"
       inkscape:connector-curvature="0" />
    <path
       id="path9321"
       style="fill:none;stroke:#000000;stroke-width:1.875;stroke-linecap:round;stroke-linejoin:miter;stroke-miterlimit:10;stroke-opacity:1;stroke-dasharray:none"
       d="m 450.71429,525.57647 11.525,-4.8375"
       inkscape:connector-curvature="0" />
    <path
       id="path9953"
       style="fill:#ffffff;fill-opacity:1;fill-rule:nonzero;stroke:none"
       d="m 262.76429,532.76397 c -5.6875,-3.9 -13.475,-2.4375 -17.3625,3.2625 -3.9,5.6875 -2.4375,13.475 3.2625,17.3625 5.6875,3.9 13.475,2.4375 17.3625,-3.2625 3.9,-5.6875 2.4375,-13.475 -3.2625,-17.3625 z"
       inkscape:connector-curvature="0" />
    <path
       id="path9955"
       style="fill:none;stroke:#000000;stroke-width:1.875;stroke-linecap:round;stroke-linejoin:miter;stroke-miterlimit:10;stroke-opacity:1;stroke-dasharray:none"
       d="m 262.76429,532.76397 c -5.6875,-3.9 -13.475,-2.4375 -17.3625,3.2625 -3.9,5.6875 -2.4375,13.475 3.2625,17.3625 5.6875,3.9 13.475,2.4375 17.3625,-3.2625 3.9,-5.6875 2.4375,-13.475 -3.2625,-17.3625 z"
       inkscape:connector-curvature="0" />
    <path
       id="path9957"
       style="fill:none;stroke:#000000;stroke-width:1.875;stroke-linecap:round;stroke-linejoin:miter;stroke-miterlimit:10;stroke-opacity:1;stroke-dasharray:none"
       d="m 255.71429,543.07647 7.05,-10.3125"
       inkscape:connector-curvature="0" />
    <path
       id="path10049"
       style="fill:#ffffff;fill-opacity:1;fill-rule:nonzero;stroke:none"
       d="m 377.66429,548.17647 c -2.0125,-6.6 -9,-10.325 -15.6,-8.3 -6.6,2.0125 -10.325,9 -8.3,15.6 2.0125,6.6 9,10.325 15.6,8.3 6.6,-2.0125 10.325,-9 8.3,-15.6 z"
       inkscape:connector-curvature="0" />
    <path
       id="path10051"
       style="fill:none;stroke:#000000;stroke-width:1.875;stroke-linecap:round;stroke-linejoin:miter;stroke-miterlimit:10;stroke-opacity:1;stroke-dasharray:none"
       d="m 377.66429,548.17647 c -2.0125,-6.6 -9,-10.325 -15.6,-8.3 -6.6,2.0125 -10.325,9 -8.3,15.6 2.0125,6.6 9,10.325 15.6,8.3 6.6,-2.0125 10.325,-9 8.3,-15.6 z"
       inkscape:connector-curvature="0" />
    <path
       id="path10053"
       style="fill:none;stroke:#000000;stroke-width:1.875;stroke-linecap:round;stroke-linejoin:miter;stroke-miterlimit:10;stroke-opacity:1;stroke-dasharray:none"
       d="m 365.71429,551.82647 11.95,-3.65"
       inkscape:connector-curvature="0" />
    <path
       id="path10337"
       style="fill:#ffffff;fill-opacity:1;fill-rule:nonzero;stroke:none"
       d="m 207.40179,417.88897 c 6.1125,3.2125 13.6625,0.8625 16.875,-5.25 3.2125,-6.1125 0.8625,-13.6625 -5.25,-16.875 -6.1125,-3.2125 -13.6625,-0.8625 -16.875,5.25 -3.2125,6.1125 -0.8625,13.6625 5.25,16.875 z"
       inkscape:connector-curvature="0" />
    <path
       id="path10339"
       style="fill:none;stroke:#000000;stroke-width:1.875;stroke-linecap:round;stroke-linejoin:miter;stroke-miterlimit:10;stroke-opacity:1;stroke-dasharray:none"
       d="m 207.40179,417.88897 c 6.1125,3.2125 13.6625,0.8625 16.875,-5.25 3.2125,-6.1125 0.8625,-13.6625 -5.25,-16.875 -6.1125,-3.2125 -13.6625,-0.8625 -16.875,5.25 -3.2125,6.1125 -0.8625,13.6625 5.25,16.875 z"
       inkscape:connector-curvature="0" />
    <path
       id="path10341"
       style="fill:none;stroke:#000000;stroke-width:1.875;stroke-linecap:round;stroke-linejoin:miter;stroke-miterlimit:10;stroke-opacity:1;stroke-dasharray:none"
       d="m 213.21429,406.82647 -5.8125,11.0625"
       inkscape:connector-curvature="0" />
    <path
       id="path10373"
       style="fill:#ffffff;fill-opacity:1;fill-rule:nonzero;stroke:none"
       d="m 412.78929,484.32647 c 3.45,-5.9875 1.4,-13.625 -4.575,-17.075 -5.9875,-3.45 -13.625,-1.4 -17.075,4.575 -3.45,5.9875 -1.4,13.625 4.575,17.075 5.9875,3.45 13.625,1.4 17.075,-4.575 z"
       inkscape:connector-curvature="0" />
    <path
       id="path10375"
       style="fill:none;stroke:#000000;stroke-width:1.875;stroke-linecap:round;stroke-linejoin:miter;stroke-miterlimit:10;stroke-opacity:1;stroke-dasharray:none"
       d="m 412.78929,484.32647 c 3.45,-5.9875 1.4,-13.625 -4.575,-17.075 -5.9875,-3.45 -13.625,-1.4 -17.075,4.575 -3.45,5.9875 -1.4,13.625 4.575,17.075 5.9875,3.45 13.625,1.4 17.075,-4.575 z"
       inkscape:connector-curvature="0" />
    <path
       id="path10377"
       style="fill:none;stroke:#000000;stroke-width:1.875;stroke-linecap:round;stroke-linejoin:miter;stroke-miterlimit:10;stroke-opacity:1;stroke-dasharray:none"
       d="m 401.96429,478.07647 10.825,6.25"
       inkscape:connector-curvature="0" />
    <path
       id="path10571"
       style="fill:#ffffff;fill-opacity:1;fill-rule:nonzero;stroke:none"
       d="m 292.50179,380.70147 c -6.1375,3.1625 -8.5625,10.6875 -5.4125,16.8375 3.1625,6.1375 10.6875,8.5625 16.8375,5.4125 6.1375,-3.1625 8.5625,-10.6875 5.4125,-16.8375 -3.1625,-6.1375 -10.6875,-8.5625 -16.8375,-5.4125 z"
       inkscape:connector-curvature="0" />
    <path
       id="path10573"
       style="fill:none;stroke:#000000;stroke-width:1.875;stroke-linecap:round;stroke-linejoin:miter;stroke-miterlimit:10;stroke-opacity:1;stroke-dasharray:none"
       d="m 292.50179,380.70147 c -6.1375,3.1625 -8.5625,10.6875 -5.4125,16.8375 3.1625,6.1375 10.6875,8.5625 16.8375,5.4125 6.1375,-3.1625 8.5625,-10.6875 5.4125,-16.8375 -3.1625,-6.1375 -10.6875,-8.5625 -16.8375,-5.4125 z"
       inkscape:connector-curvature="0" />
    <path
       id="path10575"
       style="fill:none;stroke:#000000;stroke-width:1.875;stroke-linecap:round;stroke-linejoin:miter;stroke-miterlimit:10;stroke-opacity:1;stroke-dasharray:none"
       d="m 298.21429,391.82647 -5.7125,-11.125"
       inkscape:connector-curvature="0" />
    <path
       id="path10643"
       style="fill:#ffffff;fill-opacity:1;fill-rule:nonzero;stroke:none"
       d="m 317.40179,302.35147 c 6.5125,-2.3125 9.9,-9.4625 7.5875,-15.9625 -2.3125,-6.5125 -9.4625,-9.9 -15.9625,-7.5875 -6.5125,2.3125 -9.9,9.4625 -7.5875,15.9625 2.3125,6.5125 9.4625,9.9 15.9625,7.5875 z"
       inkscape:connector-curvature="0" />
    <path
       id="path10645"
       style="fill:none;stroke:#000000;stroke-width:1.875;stroke-linecap:round;stroke-linejoin:miter;stroke-miterlimit:10;stroke-opacity:1;stroke-dasharray:none"
       d="m 317.40179,302.35147 c 6.5125,-2.3125 9.9,-9.4625 7.5875,-15.9625 -2.3125,-6.5125 -9.4625,-9.9 -15.9625,-7.5875 -6.5125,2.3125 -9.9,9.4625 -7.5875,15.9625 2.3125,6.5125 9.4625,9.9 15.9625,7.5875 z"
       inkscape:connector-curvature="0" />
    <path
       id="path10647"
       style="fill:none;stroke:#000000;stroke-width:1.875;stroke-linecap:round;stroke-linejoin:miter;stroke-miterlimit:10;stroke-opacity:1;stroke-dasharray:none"
       d="m 313.21429,290.57647 4.1875,11.775"
       inkscape:connector-curvature="0" />
    <path
       id="path10811"
       style="fill:#ffffff;fill-opacity:1;fill-rule:nonzero;stroke:none"
       d="m 472.06429,375.28897 c -0.85,6.85 4.0125,13.0875 10.8625,13.9375 6.85,0.85 13.0875,-4.0125 13.9375,-10.8625 0.85,-6.85 -4.0125,-13.0875 -10.8625,-13.9375 -6.85,-0.85 -13.0875,4.0125 -13.9375,10.8625 z"
       inkscape:connector-curvature="0" />
    <path
       id="path10813"
       style="fill:none;stroke:#000000;stroke-width:1.875;stroke-linecap:round;stroke-linejoin:miter;stroke-miterlimit:10;stroke-opacity:1;stroke-dasharray:none"
       d="m 472.06429,375.28897 c -0.85,6.85 4.0125,13.0875 10.8625,13.9375 6.85,0.85 13.0875,-4.0125 13.9375,-10.8625 0.85,-6.85 -4.0125,-13.0875 -10.8625,-13.9375 -6.85,-0.85 -13.0875,4.0125 -13.9375,10.8625 z"
       inkscape:connector-curvature="0" />
    <path
       id="path10815"
       style="fill:none;stroke:#000000;stroke-width:1.875;stroke-linecap:round;stroke-linejoin:miter;stroke-miterlimit:10;stroke-opacity:1;stroke-dasharray:none"
       d="m 484.46429,376.82647 -12.4,-1.5375"
       inkscape:connector-curvature="0" />
    <path
       id="path10973"
       style="fill:#ffffff;fill-opacity:1;fill-rule:nonzero;stroke:none"
       d="m 216.71429,341.47647 c 3.95,5.6625 11.7375,7.05 17.4,3.1 5.6625,-3.95 7.05,-11.7375 3.1,-17.4 -3.95,-5.6625 -11.7375,-7.05 -17.4,-3.1 -5.6625,3.95 -7.05,11.7375 -3.1,17.4 z"
       inkscape:connector-curvature="0" />
    <path
       id="path10975"
       style="fill:none;stroke:#000000;stroke-width:1.875;stroke-linecap:round;stroke-linejoin:miter;stroke-miterlimit:10;stroke-opacity:1;stroke-dasharray:none"
       d="m 216.71429,341.47647 c 3.95,5.6625 11.7375,7.05 17.4,3.1 5.6625,-3.95 7.05,-11.7375 3.1,-17.4 -3.95,-5.6625 -11.7375,-7.05 -17.4,-3.1 -5.6625,3.95 -7.05,11.7375 -3.1,17.4 z"
       inkscape:connector-curvature="0" />
    <path
       id="path10977"
       style="fill:none;stroke:#000000;stroke-width:1.875;stroke-linecap:round;stroke-linejoin:miter;stroke-miterlimit:10;stroke-opacity:1;stroke-dasharray:none"
       d="m 226.96429,334.32647 -10.25,7.15"
       inkscape:connector-curvature="0" />
    <path
       id="path11231"
       style="fill:#ffffff;fill-opacity:1;fill-rule:nonzero;stroke:none"
       d="m 392.51429,398.50147 c 6.45,2.4625 13.675,-0.775 16.125,-7.225 2.4625,-6.45 -0.775,-13.675 -7.225,-16.125 -6.45,-2.4625 -13.675,0.775 -16.125,7.225 -2.4625,6.45 0.775,13.675 7.225,16.125 z"
       inkscape:connector-curvature="0" />
    <path
       id="path11233"
       style="fill:none;stroke:#000000;stroke-width:1.875;stroke-linecap:round;stroke-linejoin:miter;stroke-miterlimit:10;stroke-opacity:1;stroke-dasharray:none"
       d="m 392.51429,398.50147 c 6.45,2.4625 13.675,-0.775 16.125,-7.225 2.4625,-6.45 -0.775,-13.675 -7.225,-16.125 -6.45,-2.4625 -13.675,0.775 -16.125,7.225 -2.4625,6.45 0.775,13.675 7.225,16.125 z"
       inkscape:connector-curvature="0" />
    <path
       id="path11235"
       style="fill:none;stroke:#000000;stroke-width:1.875;stroke-linecap:round;stroke-linejoin:miter;stroke-miterlimit:10;stroke-opacity:1;stroke-dasharray:none"
       d="m 396.96429,386.82647 -4.45,11.675"
       inkscape:connector-curvature="0" />
    <path
       id="path11369"
       style="fill:#ffffff;fill-opacity:1;fill-rule:nonzero;stroke:none"
       d="m 353.22679,365.58897 c -4.1375,-5.525 -11.975,-6.6625 -17.5,-2.525 -5.525,4.1375 -6.6625,11.975 -2.525,17.5 4.1375,5.525 11.975,6.6625 17.5,2.525 5.525,-4.1375 6.6625,-11.9625 2.525,-17.5 z"
       inkscape:connector-curvature="0" />
    <path
       id="path11371"
       style="fill:none;stroke:#000000;stroke-width:1.875;stroke-linecap:round;stroke-linejoin:miter;stroke-miterlimit:10;stroke-opacity:1;stroke-dasharray:none"
       d="m 353.22679,365.58897 c -4.1375,-5.525 -11.975,-6.6625 -17.5,-2.525 -5.525,4.1375 -6.6625,11.975 -2.525,17.5 4.1375,5.525 11.975,6.6625 17.5,2.525 5.525,-4.1375 6.6625,-11.9625 2.525,-17.5 z"
       inkscape:connector-curvature="0" />
    <path
       id="path11373"
       style="fill:none;stroke:#000000;stroke-width:1.875;stroke-linecap:round;stroke-linejoin:miter;stroke-miterlimit:10;stroke-opacity:1;stroke-dasharray:none"
       d="m 343.21429,373.07647 10.0125,-7.4875"
       inkscape:connector-curvature="0" />
    <path
       style="fill:none;stroke:#0000ff;stroke-width:2;stroke-linecap:butt;stroke-linejoin:miter;stroke-miterlimit:4;stroke-opacity:1;stroke-dasharray:none"
       d="m 290.92393,426.57269 c 22.7122,0.90705 42.39985,-17.58902 42.42641,-36.87057"
       id="path32582"
       inkscape:connector-curvature="0"
       sodipodi:nodetypes="cc" />
    <path
       style="fill:none;stroke:#0000ff;stroke-width:2;stroke-linecap:butt;stroke-linejoin:miter;stroke-miterlimit:4;stroke-opacity:1;stroke-dasharray:none"
       d="m 398.0001,421.26938 c -23.21481,1.69295 -40.72578,-14.97317 -39.39595,-32.82996"
       id="path32582-9"
       inkscape:connector-curvature="0"
       sodipodi:nodetypes="cc" />
    <rect
       style="fill:#ffffff;fill-opacity:1;stroke:#ffffff;stroke-width:1.16195238;stroke-miterlimit:4;stroke-opacity:1;stroke-dasharray:none;stroke-dashoffset:0"
       id="rect33370"
       width="47.389477"
       height="280.19193"
       x="188.98621"
       y="280.10056" />
    <rect
       style="fill:#ffffff;fill-opacity:1;stroke:#ffffff;stroke-width:0.79158103;stroke-miterlimit:4;stroke-opacity:1;stroke-dasharray:none;stroke-dashoffset:0"
       id="rect33370-1"
       width="266.67984"
       height="23.107946"
       x="202.28697"
       y="542.99872" />
    <rect
       style="fill:#ffffff;fill-opacity:1;stroke:#ffffff;stroke-width:1.16195238;stroke-miterlimit:4;stroke-opacity:1;stroke-dasharray:none;stroke-dashoffset:0"
       id="rect33370-9"
       width="47.389477"
       height="280.19193"
       x="454.61249"
       y="279.91071" />
    <rect
       style="fill:#ffffff;fill-opacity:1;stroke:#ffffff;stroke-width:0.65919095;stroke-miterlimit:4;stroke-opacity:1;stroke-dasharray:none;stroke-dashoffset:0"
       id="rect33370-4"
       width="190.83839"
       height="22.393274"
       x="283.08994"
       y="275.01517" />
  </g>
</svg>
