<?xml version="1.0" encoding="UTF-8" standalone="no"?>
<!-- Created with Inkscape (http://www.inkscape.org/) -->

<svg
   xmlns:dc="http://purl.org/dc/elements/1.1/"
   xmlns:cc="http://creativecommons.org/ns#"
   xmlns:rdf="http://www.w3.org/1999/02/22-rdf-syntax-ns#"
   xmlns:svg="http://www.w3.org/2000/svg"
   xmlns="http://www.w3.org/2000/svg"
   xmlns:sodipodi="http://sodipodi.sourceforge.net/DTD/sodipodi-0.dtd"
   xmlns:inkscape="http://www.inkscape.org/namespaces/inkscape"
   width="744.09448819"
   height="1052.3622047"
   id="svg2"
   version="1.1"
   inkscape:version="0.48.5 r10040"
   sodipodi:docname="undefined.svg">
  <defs
     id="defs4">
    <clipPath
       id="clipPath3001"
       clipPathUnits="userSpaceOnUse">
      <path
         id="path3003"
         d="M 0,800 0,0 1000,0 1000,800 0,800 z" />
    </clipPath>
  </defs>
  <sodipodi:namedview
     id="base"
     pagecolor="#ffffff"
     bordercolor="#666666"
     borderopacity="1.0"
     inkscape:pageopacity="0.0"
     inkscape:pageshadow="2"
     inkscape:zoom="0.49497475"
     inkscape:cx="400.23905"
     inkscape:cy="881.92446"
     inkscape:document-units="px"
     inkscape:current-layer="layer1"
     showgrid="false"
     inkscape:window-width="958"
     inkscape:window-height="1059"
     inkscape:window-x="0"
     inkscape:window-y="19"
     inkscape:window-maximized="0" />
  <metadata
     id="metadata7">
    <rdf:RDF>
      <cc:Work
         rdf:about="">
        <dc:format>image/svg+xml</dc:format>
        <dc:type
           rdf:resource="http://purl.org/dc/dcmitype/StillImage" />
        <dc:title />
      </cc:Work>
    </rdf:RDF>
  </metadata>
  <g
     inkscape:label="Layer 1"
     inkscape:groupmode="layer"
     id="layer1">
    <g
       id="g2995"
       transform="matrix(1.25,0,0,-1.25,-316.42857,796.14273)" />
    <path
       id="path3017"
       style="fill:none;stroke:#969696;stroke-width:2.67500019;stroke-linecap:round;stroke-linejoin:miter;stroke-miterlimit:10;stroke-opacity:1;stroke-dasharray:none"
       d="m 2.65893,63.99273 -73.8375,232.4375"
       inkscape:connector-curvature="0" />
    <path
       id="path3019"
       style="fill:none;stroke:#969696;stroke-width:2.67500019;stroke-linecap:round;stroke-linejoin:miter;stroke-miterlimit:10;stroke-opacity:1;stroke-dasharray:none"
       d="m 2.65893,63.99273 235.1625,-49.225"
       inkscape:connector-curvature="0" />
    <path
       id="path3025"
       style="fill:none;stroke:#969696;stroke-width:2.67500019;stroke-linecap:round;stroke-linejoin:miter;stroke-miterlimit:10;stroke-opacity:1;stroke-dasharray:none"
       d="m 2.65893,63.99273 98.675,-131.5125"
       inkscape:connector-curvature="0" />
    <path
       id="path3027"
       style="fill:none;stroke:#969696;stroke-width:2.67500019;stroke-linecap:round;stroke-linejoin:miter;stroke-miterlimit:10;stroke-opacity:1;stroke-dasharray:none"
       d="m 2.65893,63.99273 113.475,108.0125"
       inkscape:connector-curvature="0" />
    <path
       id="path3365"
       style="fill:none;stroke:#969696;stroke-width:2.67500019;stroke-linecap:round;stroke-linejoin:miter;stroke-miterlimit:10;stroke-opacity:1;stroke-dasharray:none"
       d="m 214.58393,312.84273 106.6375,-118.9625"
       inkscape:connector-curvature="0" />
    <path
       id="path3367"
       style="fill:none;stroke:#969696;stroke-width:2.67500019;stroke-linecap:round;stroke-linejoin:miter;stroke-miterlimit:10;stroke-opacity:1;stroke-dasharray:none"
       d="m 214.58393,312.84273 222.8625,-116.225"
       inkscape:connector-curvature="0" />
    <path
       id="path3369"
       style="fill:none;stroke:#969696;stroke-width:2.67500019;stroke-linecap:round;stroke-linejoin:miter;stroke-miterlimit:10;stroke-opacity:1;stroke-dasharray:none"
       d="m 214.58393,312.84273 -128.525,62.8875"
       inkscape:connector-curvature="0" />
    <path
       id="path3371"
       style="fill:none;stroke:#969696;stroke-width:2.67500019;stroke-linecap:round;stroke-linejoin:miter;stroke-miterlimit:10;stroke-opacity:1;stroke-dasharray:none"
       d="m 214.58393,312.84273 -98.45,-140.8375"
       inkscape:connector-curvature="0" />
    <path
       id="path3571"
       style="fill:none;stroke:#969696;stroke-width:2.67500019;stroke-linecap:round;stroke-linejoin:miter;stroke-miterlimit:10;stroke-opacity:1;stroke-dasharray:none"
       d="m 608.34643,62.63023 -170.9,133.9875"
       inkscape:connector-curvature="0" />
    <path
       id="path3573"
       style="fill:none;stroke:#969696;stroke-width:2.67500019;stroke-linecap:round;stroke-linejoin:miter;stroke-miterlimit:10;stroke-opacity:1;stroke-dasharray:none"
       d="m 608.34643,62.63023 173.7875,-74.575"
       inkscape:connector-curvature="0" />
    <path
       id="path3575"
       style="fill:none;stroke:#969696;stroke-width:2.67500019;stroke-linecap:round;stroke-linejoin:miter;stroke-miterlimit:10;stroke-opacity:1;stroke-dasharray:none"
       d="m 608.34643,62.63023 47.8625,147.6625"
       inkscape:connector-curvature="0" />
    <path
       id="path3577"
       style="fill:none;stroke:#969696;stroke-width:2.67500019;stroke-linecap:round;stroke-linejoin:miter;stroke-miterlimit:10;stroke-opacity:1;stroke-dasharray:none"
       d="m 608.34643,62.63023 198.2625,60.1625"
       inkscape:connector-curvature="0" />
    <path
       id="path3579"
       style="fill:none;stroke:#969696;stroke-width:2.67500019;stroke-linecap:round;stroke-linejoin:miter;stroke-miterlimit:10;stroke-opacity:1;stroke-dasharray:none"
       d="m 608.34643,62.63023 7.0625,-146.825"
       inkscape:connector-curvature="0" />
    <path
       id="path3581"
       style="fill:none;stroke:#969696;stroke-width:2.67500019;stroke-linecap:round;stroke-linejoin:miter;stroke-miterlimit:10;stroke-opacity:1;stroke-dasharray:none"
       d="m 608.34643,62.63023 -161.3375,-31.45"
       inkscape:connector-curvature="0" />
    <path
       id="path3719"
       style="fill:none;stroke:#969696;stroke-width:2.67500019;stroke-linecap:round;stroke-linejoin:miter;stroke-miterlimit:10;stroke-opacity:1;stroke-dasharray:none"
       d="m 237.82143,14.76773 -136.4875,-82.2875"
       inkscape:connector-curvature="0" />
    <path
       id="path3721"
       style="fill:none;stroke:#969696;stroke-width:2.67500019;stroke-linecap:round;stroke-linejoin:miter;stroke-miterlimit:10;stroke-opacity:1;stroke-dasharray:none"
       d="m 237.82143,14.76773 -121.6875,157.2375"
       inkscape:connector-curvature="0" />
    <path
       id="path3725"
       style="fill:none;stroke:#969696;stroke-width:2.67500019;stroke-linecap:round;stroke-linejoin:miter;stroke-miterlimit:10;stroke-opacity:1;stroke-dasharray:none"
       d="m 237.82143,14.76773 83.4,179.1125"
       inkscape:connector-curvature="0" />
    <path
       id="path3727"
       style="fill:none;stroke:#969696;stroke-width:2.67500019;stroke-linecap:round;stroke-linejoin:miter;stroke-miterlimit:10;stroke-opacity:1;stroke-dasharray:none"
       d="m 237.82143,14.76773 149.725,-126.75"
       inkscape:connector-curvature="0" />
    <path
       id="path3729"
       style="fill:none;stroke:#969696;stroke-width:2.67500019;stroke-linecap:round;stroke-linejoin:miter;stroke-miterlimit:10;stroke-opacity:1;stroke-dasharray:none"
       d="M 237.82143,14.76773 2.65893,63.99273"
       inkscape:connector-curvature="0" />
    <path
       id="path3731"
       style="fill:none;stroke:#969696;stroke-width:2.67500019;stroke-linecap:round;stroke-linejoin:miter;stroke-miterlimit:10;stroke-opacity:1;stroke-dasharray:none"
       d="m 237.82143,14.76773 209.1875,16.4125"
       inkscape:connector-curvature="0" />
    <path
       id="path3735"
       style="fill:none;stroke:#969696;stroke-width:2.67500019;stroke-linecap:round;stroke-linejoin:miter;stroke-miterlimit:10;stroke-opacity:1;stroke-dasharray:none"
       d="m 615.40893,-84.19477 -7.0625,146.825"
       inkscape:connector-curvature="0" />
    <path
       id="path3739"
       style="fill:none;stroke:#969696;stroke-width:2.67500019;stroke-linecap:round;stroke-linejoin:miter;stroke-miterlimit:10;stroke-opacity:1;stroke-dasharray:none"
       d="m 615.40893,-84.19477 -168.4,115.375"
       inkscape:connector-curvature="0" />
    <path
       id="path4145"
       style="fill:none;stroke:#969696;stroke-width:2.67500019;stroke-linecap:round;stroke-linejoin:miter;stroke-miterlimit:10;stroke-opacity:1;stroke-dasharray:none"
       d="m 321.22143,193.88023 -83.4,-179.1125"
       inkscape:connector-curvature="0" />
    <path
       id="path4147"
       style="fill:none;stroke:#969696;stroke-width:2.67500019;stroke-linecap:round;stroke-linejoin:miter;stroke-miterlimit:10;stroke-opacity:1;stroke-dasharray:none"
       d="m 321.22143,193.88023 198.2625,128.525"
       inkscape:connector-curvature="0" />
    <path
       id="path4149"
       style="fill:none;stroke:#969696;stroke-width:2.67500019;stroke-linecap:round;stroke-linejoin:miter;stroke-miterlimit:10;stroke-opacity:1;stroke-dasharray:none"
       d="m 321.22143,193.88023 116.225,2.7375"
       inkscape:connector-curvature="0" />
    <path
       id="path4151"
       style="fill:none;stroke:#969696;stroke-width:2.67500019;stroke-linecap:round;stroke-linejoin:miter;stroke-miterlimit:10;stroke-opacity:1;stroke-dasharray:none"
       d="m 321.22143,193.88023 -106.6375,118.9625"
       inkscape:connector-curvature="0" />
    <path
       id="path4153"
       style="fill:none;stroke:#969696;stroke-width:2.67500019;stroke-linecap:round;stroke-linejoin:miter;stroke-miterlimit:10;stroke-opacity:1;stroke-dasharray:none"
       d="m 321.22143,193.88023 -205.0875,-21.875"
       inkscape:connector-curvature="0" />
    <path
       id="path4155"
       style="fill:none;stroke:#969696;stroke-width:2.67500019;stroke-linecap:round;stroke-linejoin:miter;stroke-miterlimit:10;stroke-opacity:1;stroke-dasharray:none"
       d="m 321.22143,193.88023 125.7875,-162.7"
       inkscape:connector-curvature="0" />
    <path
       id="path4947"
       style="fill:none;stroke:#969696;stroke-width:2.67500019;stroke-linecap:round;stroke-linejoin:miter;stroke-miterlimit:10;stroke-opacity:1;stroke-dasharray:none"
       d="m -71.17857,296.43023 157.2375,79.3"
       inkscape:connector-curvature="0" />
    <path
       id="path4951"
       style="fill:none;stroke:#969696;stroke-width:2.67500019;stroke-linecap:round;stroke-linejoin:miter;stroke-miterlimit:10;stroke-opacity:1;stroke-dasharray:none"
       d="m -71.17857,296.43023 187.3125,-124.425"
       inkscape:connector-curvature="0" />
    <path
       id="path4953"
       style="fill:none;stroke:#969696;stroke-width:2.67500019;stroke-linecap:round;stroke-linejoin:miter;stroke-miterlimit:10;stroke-opacity:1;stroke-dasharray:none"
       d="M -71.17857,296.43023 2.65893,63.99273"
       inkscape:connector-curvature="0" />
    <path
       id="path5199"
       style="fill:none;stroke:#969696;stroke-width:2.67500019;stroke-linecap:round;stroke-linejoin:miter;stroke-miterlimit:10;stroke-opacity:1;stroke-dasharray:none"
       d="m 658.93393,411.28023 -2.725,-200.9875"
       inkscape:connector-curvature="0" />
    <path
       id="path5201"
       style="fill:none;stroke:#969696;stroke-width:2.67500019;stroke-linecap:round;stroke-linejoin:miter;stroke-miterlimit:10;stroke-opacity:1;stroke-dasharray:none"
       d="m 658.93393,411.28023 170.9125,-35.55"
       inkscape:connector-curvature="0" />
    <path
       id="path5203"
       style="fill:none;stroke:#969696;stroke-width:2.67500019;stroke-linecap:round;stroke-linejoin:miter;stroke-miterlimit:10;stroke-opacity:1;stroke-dasharray:none"
       d="m 658.93393,411.28023 -139.45,-88.875"
       inkscape:connector-curvature="0" />
    <path
       id="path5233"
       style="fill:none;stroke:#969696;stroke-width:2.67500019;stroke-linecap:round;stroke-linejoin:miter;stroke-miterlimit:10;stroke-opacity:1;stroke-dasharray:none"
       d="m 387.54643,-111.98227 -149.725,126.75"
       inkscape:connector-curvature="0" />
    <path
       id="path5239"
       style="fill:none;stroke:#969696;stroke-width:2.67500019;stroke-linecap:round;stroke-linejoin:miter;stroke-miterlimit:10;stroke-opacity:1;stroke-dasharray:none"
       d="m 387.54643,-111.98227 59.4625,143.1625"
       inkscape:connector-curvature="0" />
    <path
       id="path5429"
       style="fill:none;stroke:#969696;stroke-width:2.67500019;stroke-linecap:round;stroke-linejoin:miter;stroke-miterlimit:10;stroke-opacity:1;stroke-dasharray:none"
       d="M 116.13393,172.00523 237.82143,14.76773"
       inkscape:connector-curvature="0" />
    <path
       id="path5431"
       style="fill:none;stroke:#969696;stroke-width:2.67500019;stroke-linecap:round;stroke-linejoin:miter;stroke-miterlimit:10;stroke-opacity:1;stroke-dasharray:none"
       d="m 116.13393,172.00523 -30.075,203.725"
       inkscape:connector-curvature="0" />
    <path
       id="path5433"
       style="fill:none;stroke:#969696;stroke-width:2.67500019;stroke-linecap:round;stroke-linejoin:miter;stroke-miterlimit:10;stroke-opacity:1;stroke-dasharray:none"
       d="m 116.13393,172.00523 98.45,140.8375"
       inkscape:connector-curvature="0" />
    <path
       id="path5435"
       style="fill:none;stroke:#969696;stroke-width:2.67500019;stroke-linecap:round;stroke-linejoin:miter;stroke-miterlimit:10;stroke-opacity:1;stroke-dasharray:none"
       d="m 116.13393,172.00523 -14.8,-239.525"
       inkscape:connector-curvature="0" />
    <path
       id="path5437"
       style="fill:none;stroke:#969696;stroke-width:2.67500019;stroke-linecap:round;stroke-linejoin:miter;stroke-miterlimit:10;stroke-opacity:1;stroke-dasharray:none"
       d="m 116.13393,172.00523 205.0875,21.875"
       inkscape:connector-curvature="0" />
    <path
       id="path5439"
       style="fill:none;stroke:#969696;stroke-width:2.67500019;stroke-linecap:round;stroke-linejoin:miter;stroke-miterlimit:10;stroke-opacity:1;stroke-dasharray:none"
       d="m 116.13393,172.00523 -187.3125,124.425"
       inkscape:connector-curvature="0" />
    <path
       id="path5441"
       style="fill:none;stroke:#969696;stroke-width:2.67500019;stroke-linecap:round;stroke-linejoin:miter;stroke-miterlimit:10;stroke-opacity:1;stroke-dasharray:none"
       d="M 116.13393,172.00523 2.65893,63.99273"
       inkscape:connector-curvature="0" />
    <path
       id="path5869"
       style="fill:none;stroke:#969696;stroke-width:2.67500019;stroke-linecap:round;stroke-linejoin:miter;stroke-miterlimit:10;stroke-opacity:1;stroke-dasharray:none"
       d="M 806.60893,122.79273 608.34643,62.63023"
       inkscape:connector-curvature="0" />
    <path
       id="path5873"
       style="fill:none;stroke:#969696;stroke-width:2.67500019;stroke-linecap:round;stroke-linejoin:miter;stroke-miterlimit:10;stroke-opacity:1;stroke-dasharray:none"
       d="m 806.60893,122.79273 -150.4,87.5"
       inkscape:connector-curvature="0" />
    <path
       id="path5937"
       style="fill:none;stroke:#ff0000;stroke-width:2.67500019000000000;stroke-linecap:round;stroke-linejoin:miter;stroke-miterlimit:10;stroke-opacity:1;stroke-dasharray:none"
       d="m 519.48393,322.40523 -198.2625,-128.525"
       inkscape:connector-curvature="0" />
    <path
       id="path5939"
       style="fill:none;stroke:#969696;stroke-width:2.67500019;stroke-linecap:round;stroke-linejoin:miter;stroke-miterlimit:10;stroke-opacity:1;stroke-dasharray:none"
       d="m 519.48393,322.40523 139.45,88.875"
       inkscape:connector-curvature="0" />
    <path
       id="path5941"
       style="fill:none;stroke:#969696;stroke-width:2.67500019;stroke-linecap:round;stroke-linejoin:miter;stroke-miterlimit:10;stroke-opacity:1;stroke-dasharray:none"
       d="m 519.48393,322.40523 -82.0375,-125.7875"
       inkscape:connector-curvature="0" />
    <path
       id="path5943"
       style="fill:none;stroke:#969696;stroke-width:2.67500019;stroke-linecap:round;stroke-linejoin:miter;stroke-miterlimit:10;stroke-opacity:1;stroke-dasharray:none"
       d="m 519.48393,322.40523 136.725,-112.1125"
       inkscape:connector-curvature="0" />
    <path
       id="path6453"
       style="fill:none;stroke:#969696;stroke-width:2.67500019;stroke-linecap:round;stroke-linejoin:miter;stroke-miterlimit:10;stroke-opacity:1;stroke-dasharray:none"
       d="m 782.13393,-11.94477 -173.7875,74.575"
       inkscape:connector-curvature="0" />
    <path
       id="path6459"
       style="fill:none;stroke:#969696;stroke-width:2.67500019;stroke-linecap:round;stroke-linejoin:miter;stroke-miterlimit:10;stroke-opacity:1;stroke-dasharray:none"
       d="m 782.13393,-11.94477 -125.925,222.2375"
       inkscape:connector-curvature="0" />
    <path
       id="path7009"
       style="fill:none;stroke:#969696;stroke-width:2.67500019;stroke-linecap:round;stroke-linejoin:miter;stroke-miterlimit:10;stroke-opacity:1;stroke-dasharray:none"
       d="m 447.00893,31.18023 -125.7875,162.7"
       inkscape:connector-curvature="0" />
    <path
       id="path7011"
       style="fill:none;stroke:#969696;stroke-width:2.67500019;stroke-linecap:round;stroke-linejoin:miter;stroke-miterlimit:10;stroke-opacity:1;stroke-dasharray:none"
       d="M 447.00893,31.18023 237.82143,14.76773"
       inkscape:connector-curvature="0" />
    <path
       id="path7013"
       style="fill:none;stroke:#969696;stroke-width:2.67500019;stroke-linecap:round;stroke-linejoin:miter;stroke-miterlimit:10;stroke-opacity:1;stroke-dasharray:none"
       d="m 447.00893,31.18023 -59.4625,-143.1625"
       inkscape:connector-curvature="0" />
    <path
       id="path7015"
       style="fill:none;stroke:#969696;stroke-width:2.67500019;stroke-linecap:round;stroke-linejoin:miter;stroke-miterlimit:10;stroke-opacity:1;stroke-dasharray:none"
       d="m 447.00893,31.18023 161.3375,31.45"
       inkscape:connector-curvature="0" />
    <path
       id="path7017"
       style="fill:none;stroke:#969696;stroke-width:2.67500019;stroke-linecap:round;stroke-linejoin:miter;stroke-miterlimit:10;stroke-opacity:1;stroke-dasharray:none"
       d="m 447.00893,31.18023 -9.5625,165.4375"
       inkscape:connector-curvature="0" />
    <path
       id="path7019"
       style="fill:none;stroke:#969696;stroke-width:2.67500019;stroke-linecap:round;stroke-linejoin:miter;stroke-miterlimit:10;stroke-opacity:1;stroke-dasharray:none"
       d="m 447.00893,31.18023 168.4,-115.375"
       inkscape:connector-curvature="0" />
    <path
       id="path7717"
       style="fill:none;stroke:#969696;stroke-width:2.67500019;stroke-linecap:round;stroke-linejoin:miter;stroke-miterlimit:10;stroke-opacity:1;stroke-dasharray:none"
       d="m 437.44643,196.61773 -116.225,-2.7375"
       inkscape:connector-curvature="0" />
    <path
       id="path7719"
       style="fill:none;stroke:#969696;stroke-width:2.67500019;stroke-linecap:round;stroke-linejoin:miter;stroke-miterlimit:10;stroke-opacity:1;stroke-dasharray:none"
       d="m 437.44643,196.61773 82.0375,125.7875"
       inkscape:connector-curvature="0" />
    <path
       id="path7721"
       style="fill:none;stroke:#969696;stroke-width:2.67500019;stroke-linecap:round;stroke-linejoin:miter;stroke-miterlimit:10;stroke-opacity:1;stroke-dasharray:none"
       d="m 437.44643,196.61773 170.9,-133.9875"
       inkscape:connector-curvature="0" />
    <path
       id="path7723"
       style="fill:none;stroke:#969696;stroke-width:2.67500019;stroke-linecap:round;stroke-linejoin:miter;stroke-miterlimit:10;stroke-opacity:1;stroke-dasharray:none"
       d="m 437.44643,196.61773 218.7625,13.675"
       inkscape:connector-curvature="0" />
    <path
       id="path7725"
       style="fill:none;stroke:#ff0000;stroke-width:2.67500019000000000;stroke-linecap:round;stroke-linejoin:miter;stroke-miterlimit:10;stroke-opacity:1;stroke-dasharray:none"
       d="m 437.44643,196.61773 -222.8625,116.225"
       inkscape:connector-curvature="0" />
    <path
       id="path7727"
       style="fill:none;stroke:#969696;stroke-width:2.67500019;stroke-linecap:round;stroke-linejoin:miter;stroke-miterlimit:10;stroke-opacity:1;stroke-dasharray:none"
       d="m 437.44643,196.61773 9.5625,-165.4375"
       inkscape:connector-curvature="0" />
    <path
       id="path7897"
       style="fill:none;stroke:#969696;stroke-width:2.67500019;stroke-linecap:round;stroke-linejoin:miter;stroke-miterlimit:10;stroke-opacity:1;stroke-dasharray:none"
       d="M 829.84643,375.73023 656.20893,210.29273"
       inkscape:connector-curvature="0" />
    <path
       id="path7899"
       style="fill:none;stroke:#969696;stroke-width:2.67500019;stroke-linecap:round;stroke-linejoin:miter;stroke-miterlimit:10;stroke-opacity:1;stroke-dasharray:none"
       d="m 829.84643,375.73023 -170.9125,35.55"
       inkscape:connector-curvature="0" />
    <path
       id="path7973"
       style="fill:none;stroke:#969696;stroke-width:2.67500019;stroke-linecap:round;stroke-linejoin:miter;stroke-miterlimit:10;stroke-opacity:1;stroke-dasharray:none"
       d="m 101.33393,-67.51977 136.4875,82.2875"
       inkscape:connector-curvature="0" />
    <path
       id="path7977"
       style="fill:none;stroke:#969696;stroke-width:2.67500019;stroke-linecap:round;stroke-linejoin:miter;stroke-miterlimit:10;stroke-opacity:1;stroke-dasharray:none"
       d="m 101.33393,-67.51977 14.8,239.525"
       inkscape:connector-curvature="0" />
    <path
       id="path7979"
       style="fill:none;stroke:#969696;stroke-width:2.67500019;stroke-linecap:round;stroke-linejoin:miter;stroke-miterlimit:10;stroke-opacity:1;stroke-dasharray:none"
       d="M 101.33393,-67.51977 2.65893,63.99273"
       inkscape:connector-curvature="0" />
    <path
       id="path8215"
       style="fill:none;stroke:#969696;stroke-width:2.67500019;stroke-linecap:round;stroke-linejoin:miter;stroke-miterlimit:10;stroke-opacity:1;stroke-dasharray:none"
       d="m 86.05893,375.73023 -157.2375,-79.3"
       inkscape:connector-curvature="0" />
    <path
       id="path8217"
       style="fill:none;stroke:#969696;stroke-width:2.67500019;stroke-linecap:round;stroke-linejoin:miter;stroke-miterlimit:10;stroke-opacity:1;stroke-dasharray:none"
       d="m 86.05893,375.73023 128.525,-62.8875"
       inkscape:connector-curvature="0" />
    <path
       id="path8219"
       style="fill:none;stroke:#969696;stroke-width:2.67500019;stroke-linecap:round;stroke-linejoin:miter;stroke-miterlimit:10;stroke-opacity:1;stroke-dasharray:none"
       d="m 86.05893,375.73023 30.075,-203.725"
       inkscape:connector-curvature="0" />
    <path
       id="path8729"
       style="fill:none;stroke:#969696;stroke-width:2.67500019;stroke-linecap:round;stroke-linejoin:miter;stroke-miterlimit:10;stroke-opacity:1;stroke-dasharray:none"
       d="m 656.20893,210.29273 2.725,200.9875"
       inkscape:connector-curvature="0" />
    <path
       id="path8731"
       style="fill:none;stroke:#969696;stroke-width:2.67500019;stroke-linecap:round;stroke-linejoin:miter;stroke-miterlimit:10;stroke-opacity:1;stroke-dasharray:none"
       d="m 656.20893,210.29273 -218.7625,-13.675"
       inkscape:connector-curvature="0" />
    <path
       id="path8733"
       style="fill:none;stroke:#969696;stroke-width:2.67500019;stroke-linecap:round;stroke-linejoin:miter;stroke-miterlimit:10;stroke-opacity:1;stroke-dasharray:none"
       d="m 656.20893,210.29273 173.6375,165.4375"
       inkscape:connector-curvature="0" />
    <path
       id="path8735"
       style="fill:none;stroke:#969696;stroke-width:2.67500019;stroke-linecap:round;stroke-linejoin:miter;stroke-miterlimit:10;stroke-opacity:1;stroke-dasharray:none"
       d="m 656.20893,210.29273 -136.725,112.1125"
       inkscape:connector-curvature="0" />
    <path
       id="path8737"
       style="fill:none;stroke:#969696;stroke-width:2.67500019;stroke-linecap:round;stroke-linejoin:miter;stroke-miterlimit:10;stroke-opacity:1;stroke-dasharray:none"
       d="M 656.20893,210.29273 608.34643,62.63023"
       inkscape:connector-curvature="0" />
    <path
       id="path8739"
       style="fill:none;stroke:#969696;stroke-width:2.67500019;stroke-linecap:round;stroke-linejoin:miter;stroke-miterlimit:10;stroke-opacity:1;stroke-dasharray:none"
       d="m 656.20893,210.29273 125.925,-222.2375"
       inkscape:connector-curvature="0" />
    <path
       id="path8741"
       style="fill:none;stroke:#969696;stroke-width:2.67500019;stroke-linecap:round;stroke-linejoin:miter;stroke-miterlimit:10;stroke-opacity:1;stroke-dasharray:none"
       d="m 656.20893,210.29273 150.4,-87.5"
       inkscape:connector-curvature="0" />
    <path
       id="path9295"
       style="fill:#ffffff;fill-opacity:1;fill-rule:nonzero;stroke:none"
       d="m -10.00357,87.53023 c 13,6.9875 29.2125,2.1125 36.2,-10.8875 6.9875,-13 2.1125,-29.2 -10.8875,-36.1875 -13,-6.9875 -29.2125,-2.1125 -36.2,10.8875 -6.975,13 -2.1125,29.2 10.8875,36.1875 z"
       inkscape:connector-curvature="0" />
    <path
       id="path9297"
       style="fill:none;stroke:#000000;stroke-width:4.01249981;stroke-linecap:round;stroke-linejoin:miter;stroke-miterlimit:10;stroke-opacity:1;stroke-dasharray:none"
       d="m -10.00357,87.53023 c 13,6.9875 29.2125,2.1125 36.2,-10.8875 6.9875,-13 2.1125,-29.2 -10.8875,-36.1875 -13,-6.9875 -29.2125,-2.1125 -36.2,10.8875 -6.975,13 -2.1125,29.2 10.8875,36.1875 z"
       inkscape:connector-curvature="0" />
    <path
       id="path9299"
       style="fill:none;stroke:#000000;stroke-width:4.01249981;stroke-linecap:round;stroke-linejoin:miter;stroke-miterlimit:10;stroke-opacity:1;stroke-dasharray:none"
       d="m 2.65893,63.99273 -12.6625,23.5375"
       inkscape:connector-curvature="0" />
    <path
       id="path9469"
       style="fill:#ffffff;fill-opacity:1;fill-rule:nonzero;stroke:none"
       d="m 236.69643,297.83023 c -8.2875,-12.2125 -24.9125,-15.3875 -37.125,-7.1125 -12.2125,8.2875 -15.3875,24.9125 -7.1,37.125 8.275,12.2125 24.9,15.4 37.1125,7.1125 12.2125,-8.2875 15.4,-24.9125 7.1125,-37.125 z"
       inkscape:connector-curvature="0" />
    <path
       id="path9471"
       style="fill:none;stroke:#000000;stroke-width:4.01249981;stroke-linecap:round;stroke-linejoin:miter;stroke-miterlimit:10;stroke-opacity:1;stroke-dasharray:none"
       d="m 236.69643,297.83023 c -8.2875,-12.2125 -24.9125,-15.3875 -37.125,-7.1125 -12.2125,8.2875 -15.3875,24.9125 -7.1,37.125 8.275,12.2125 24.9,15.4 37.1125,7.1125 12.2125,-8.2875 15.4,-24.9125 7.1125,-37.125 z"
       inkscape:connector-curvature="0" />
    <path
       id="path9473"
       style="fill:none;stroke:#000000;stroke-width:4.01249981;stroke-linecap:round;stroke-linejoin:miter;stroke-miterlimit:10;stroke-opacity:1;stroke-dasharray:none"
       d="m 214.58393,312.84273 22.1125,-15.0125"
       inkscape:connector-curvature="0" />
    <path
       id="path9565"
       style="fill:#ffffff;fill-opacity:1;fill-rule:nonzero;stroke:none"
       d="m 634.68393,58.08023 c -2.5125,-14.55 -16.3375,-24.3 -30.8875,-21.7875 -14.5375,2.5125 -24.2875,16.35 -21.775,30.8875 2.5125,14.5375 16.3375,24.3 30.875,21.775 14.55,-2.5125 24.3,-16.3375 21.7875,-30.875 z"
       inkscape:connector-curvature="0" />
    <path
       id="path9567"
       style="fill:none;stroke:#000000;stroke-width:4.01249981;stroke-linecap:round;stroke-linejoin:miter;stroke-miterlimit:10;stroke-opacity:1;stroke-dasharray:none"
       d="m 634.68393,58.08023 c -2.5125,-14.55 -16.3375,-24.3 -30.8875,-21.7875 -14.5375,2.5125 -24.2875,16.35 -21.775,30.8875 2.5125,14.5375 16.3375,24.3 30.875,21.775 14.55,-2.5125 24.3,-16.3375 21.7875,-30.875 z"
       inkscape:connector-curvature="0" />
    <path
       id="path9569"
       style="fill:none;stroke:#000000;stroke-width:4.01249981;stroke-linecap:round;stroke-linejoin:miter;stroke-miterlimit:10;stroke-opacity:1;stroke-dasharray:none"
       d="m 608.34643,62.63023 26.3375,-4.55"
       inkscape:connector-curvature="0" />
    <path
       id="path9649"
       style="fill:#ffffff;fill-opacity:1;fill-rule:nonzero;stroke:none"
       d="m 263.43393,22.41773 c 4.2125,-14.15 -3.825,-29.025 -17.975,-33.25 -14.1375,-4.225 -29.025,3.825 -33.2375,17.9625 -4.225,14.1375 3.8125,29.025 17.9625,33.25 14.1375,4.225 29.025,-3.825 33.25,-17.9625 z"
       inkscape:connector-curvature="0" />
    <path
       id="path9651"
       style="fill:none;stroke:#000000;stroke-width:4.01249981;stroke-linecap:round;stroke-linejoin:miter;stroke-miterlimit:10;stroke-opacity:1;stroke-dasharray:none"
       d="m 263.43393,22.41773 c 4.2125,-14.15 -3.825,-29.025 -17.975,-33.25 -14.1375,-4.225 -29.025,3.825 -33.2375,17.9625 -4.225,14.1375 3.8125,29.025 17.9625,33.25 14.1375,4.225 29.025,-3.825 33.25,-17.9625 z"
       inkscape:connector-curvature="0" />
    <path
       id="path9653"
       style="fill:none;stroke:#000000;stroke-width:4.01249981;stroke-linecap:round;stroke-linejoin:miter;stroke-miterlimit:10;stroke-opacity:1;stroke-dasharray:none"
       d="m 237.82143,14.76773 25.6125,7.65"
       inkscape:connector-curvature="0" />
    <path
       id="path9847"
       style="fill:#ffffff;fill-opacity:1;fill-rule:nonzero;stroke:none"
       d="m 332.65893,218.04273 c 13.3375,-6.3125 19.0375,-22.25 12.725,-35.5875 -6.3125,-13.3375 -22.25,-19.0375 -35.5875,-12.725 -13.3375,6.3125 -19.0375,22.2375 -12.725,35.5875 6.3125,13.3375 22.2375,19.0375 35.5875,12.725 z"
       inkscape:connector-curvature="0" />
    <path
       id="path9849"
       style="fill:none;stroke:#000000;stroke-width:4.01249981;stroke-linecap:round;stroke-linejoin:miter;stroke-miterlimit:10;stroke-opacity:1;stroke-dasharray:none"
       d="m 332.65893,218.04273 c 13.3375,-6.3125 19.0375,-22.25 12.725,-35.5875 -6.3125,-13.3375 -22.25,-19.0375 -35.5875,-12.725 -13.3375,6.3125 -19.0375,22.2375 -12.725,35.5875 6.3125,13.3375 22.2375,19.0375 35.5875,12.725 z"
       inkscape:connector-curvature="0" />
    <path
       id="path9851"
       style="fill:none;stroke:#000000;stroke-width:4.01249981;stroke-linecap:round;stroke-linejoin:miter;stroke-miterlimit:10;stroke-opacity:1;stroke-dasharray:none"
       d="m 321.22143,193.88023 11.4375,24.1625"
       inkscape:connector-curvature="0" />
    <path
       id="path10327"
       style="fill:#ffffff;fill-opacity:1;fill-rule:nonzero;stroke:none"
       d="m 637.53393,427.28023 c 8.8375,11.825 25.5875,14.2375 37.4,5.4 11.825,-8.825 14.25,-25.575 5.4125,-37.4 -8.8375,-11.825 -25.5875,-14.2375 -37.4,-5.4 -11.825,8.825 -14.25,25.575 -5.4125,37.4 z"
       inkscape:connector-curvature="0" />
    <path
       id="path10329"
       style="fill:none;stroke:#000000;stroke-width:4.01249981;stroke-linecap:round;stroke-linejoin:miter;stroke-miterlimit:10;stroke-opacity:1;stroke-dasharray:none"
       d="m 637.53393,427.28023 c 8.8375,11.825 25.5875,14.2375 37.4,5.4 11.825,-8.825 14.25,-25.575 5.4125,-37.4 -8.8375,-11.825 -25.5875,-14.2375 -37.4,-5.4 -11.825,8.825 -14.25,25.575 -5.4125,37.4 z"
       inkscape:connector-curvature="0" />
    <path
       id="path10331"
       style="fill:none;stroke:#000000;stroke-width:4.01249981;stroke-linecap:round;stroke-linejoin:miter;stroke-miterlimit:10;stroke-opacity:1;stroke-dasharray:none"
       d="m 658.93393,411.28023 -21.4,16"
       inkscape:connector-curvature="0" />
    <path
       id="path10453"
       style="fill:#ffffff;fill-opacity:1;fill-rule:nonzero;stroke:none"
       d="m 110.84643,198.20523 c 14.4625,2.925 28.5625,-6.4375 31.4875,-20.9 2.9125,-14.475 -6.4375,-28.5625 -20.9125,-31.4875 -14.4625,-2.925 -28.5625,6.4375 -31.475,20.9 -2.925,14.4625 6.4375,28.5625 20.9,31.4875 z"
       inkscape:connector-curvature="0" />
    <path
       id="path10455"
       style="fill:none;stroke:#000000;stroke-width:4.01249981;stroke-linecap:round;stroke-linejoin:miter;stroke-miterlimit:10;stroke-opacity:1;stroke-dasharray:none"
       d="m 110.84643,198.20523 c 14.4625,2.925 28.5625,-6.4375 31.4875,-20.9 2.9125,-14.475 -6.4375,-28.5625 -20.9125,-31.4875 -14.4625,-2.925 -28.5625,6.4375 -31.475,20.9 -2.925,14.4625 6.4375,28.5625 20.9,31.4875 z"
       inkscape:connector-curvature="0" />
    <path
       id="path10457"
       style="fill:none;stroke:#000000;stroke-width:4.01249981;stroke-linecap:round;stroke-linejoin:miter;stroke-miterlimit:10;stroke-opacity:1;stroke-dasharray:none"
       d="m 116.13393,172.00523 -5.2875,26.2"
       inkscape:connector-curvature="0" />
    <path
       id="path10699"
       style="fill:#ffffff;fill-opacity:1;fill-rule:nonzero;stroke:none"
       d="m 527.73393,296.99273 c -14.0375,-4.5625 -29.1125,3.125 -33.675,17.1625 -4.55,14.0375 3.125,29.1125 17.1625,33.675 14.0375,4.55 29.1125,-3.1375 33.675,-17.175 4.55,-14.0375 -3.125,-29.1125 -17.1625,-33.6625 z"
       inkscape:connector-curvature="0" />
    <path
       id="path10701"
       style="fill:none;stroke:#000000;stroke-width:4.01249981;stroke-linecap:round;stroke-linejoin:miter;stroke-miterlimit:10;stroke-opacity:1;stroke-dasharray:none"
       d="m 527.73393,296.99273 c -14.0375,-4.5625 -29.1125,3.125 -33.675,17.1625 -4.55,14.0375 3.125,29.1125 17.1625,33.675 14.0375,4.55 29.1125,-3.1375 33.675,-17.175 4.55,-14.0375 -3.125,-29.1125 -17.1625,-33.6625 z"
       inkscape:connector-curvature="0" />
    <path
       id="path10703"
       style="fill:none;stroke:#000000;stroke-width:4.01249981;stroke-linecap:round;stroke-linejoin:miter;stroke-miterlimit:10;stroke-opacity:1;stroke-dasharray:none"
       d="m 519.48393,322.40523 8.25,-25.4125"
       inkscape:connector-curvature="0" />
    <path
       id="path10939"
       style="fill:#ffffff;fill-opacity:1;fill-rule:nonzero;stroke:none"
       d="m 806.98393,-21.79477 c -5.4375,-13.7125 -20.9625,-20.4375 -34.6875,-15 -13.725,5.4375 -20.4375,20.9625 -15,34.6875 5.4375,13.725 20.9625,20.4375 34.6875,15 13.7125,-5.4375 20.4375,-20.9625 15,-34.6875 z"
       inkscape:connector-curvature="0" />
    <path
       id="path11209"
       style="fill:#ffffff;fill-opacity:1;fill-rule:nonzero;stroke:none"
       d="m 462.07143,9.10523 c -12.1875,-8.3125 -28.8125,-5.175 -37.1375,7.0125 -8.3125,12.2 -5.175,28.825 7.025,37.1375 12.1875,8.3125 28.8125,5.175 37.125,-7.0125 8.325,-12.2 5.175,-28.825 -7.0125,-37.1375 z"
       inkscape:connector-curvature="0" />
    <path
       id="path11211"
       style="fill:none;stroke:#000000;stroke-width:4.01249981;stroke-linecap:round;stroke-linejoin:miter;stroke-miterlimit:10;stroke-opacity:1;stroke-dasharray:none"
       d="m 462.07143,9.10523 c -12.1875,-8.3125 -28.8125,-5.175 -37.1375,7.0125 -8.3125,12.2 -5.175,28.825 7.025,37.1375 12.1875,8.3125 28.8125,5.175 37.125,-7.0125 8.325,-12.2 5.175,-28.825 -7.0125,-37.1375 z"
       inkscape:connector-curvature="0" />
    <path
       id="path11213"
       style="fill:none;stroke:#000000;stroke-width:4.01249981;stroke-linecap:round;stroke-linejoin:miter;stroke-miterlimit:10;stroke-opacity:1;stroke-dasharray:none"
       d="m 447.00893,31.18023 15.0625,-22.075"
       inkscape:connector-curvature="0" />
    <path
       id="path11539"
       style="fill:#ffffff;fill-opacity:1;fill-rule:nonzero;stroke:none"
       d="m 415.09643,211.28023 c 8.1,12.3375 24.6625,15.775 37,7.6875 12.35,-8.1 15.7875,-24.6625 7.6875,-37 -8.0875,-12.35 -24.6625,-15.7875 -37,-7.6875 -12.3375,8.0875 -15.775,24.6625 -7.6875,37 z"
       inkscape:connector-curvature="0" />
    <path
       id="path11541"
       style="fill:none;stroke:#000000;stroke-width:4.01249981;stroke-linecap:round;stroke-linejoin:miter;stroke-miterlimit:10;stroke-opacity:1;stroke-dasharray:none"
       d="m 415.09643,211.28023 c 8.1,12.3375 24.6625,15.775 37,7.6875 12.35,-8.1 15.7875,-24.6625 7.6875,-37 -8.0875,-12.35 -24.6625,-15.7875 -37,-7.6875 -12.3375,8.0875 -15.775,24.6625 -7.6875,37 z"
       inkscape:connector-curvature="0" />
    <path
       id="path11543"
       style="fill:none;stroke:#000000;stroke-width:4.01249981;stroke-linecap:round;stroke-linejoin:miter;stroke-miterlimit:10;stroke-opacity:1;stroke-dasharray:none"
       d="m 437.44643,196.61773 -22.35,14.6625"
       inkscape:connector-curvature="0" />
    <path
       id="path11785"
       style="fill:#ffffff;fill-opacity:1;fill-rule:nonzero;stroke:none"
       d="m 77.64643,401.09273 c 14.0125,4.65 29.1375,-2.95 33.775,-16.95 4.6375,-14.0125 -2.95,-29.1375 -16.9625,-33.775 -14,-4.65 -29.125,2.95 -33.775,16.9625 -4.6375,14 2.9625,29.125 16.9625,33.7625 z"
       inkscape:connector-curvature="0" />
    <path
       id="path11787"
       style="fill:none;stroke:#000000;stroke-width:4.01249981;stroke-linecap:round;stroke-linejoin:miter;stroke-miterlimit:10;stroke-opacity:1;stroke-dasharray:none"
       d="m 77.64643,401.09273 c 14.0125,4.65 29.1375,-2.95 33.775,-16.95 4.6375,-14.0125 -2.95,-29.1375 -16.9625,-33.775 -14,-4.65 -29.125,2.95 -33.775,16.9625 -4.6375,14 2.9625,29.125 16.9625,33.7625 z"
       inkscape:connector-curvature="0" />
    <path
       id="path11789"
       style="fill:none;stroke:#000000;stroke-width:4.01249981;stroke-linecap:round;stroke-linejoin:miter;stroke-miterlimit:10;stroke-opacity:1;stroke-dasharray:none"
       d="m 86.05893,375.73023 -8.4125,25.3625"
       inkscape:connector-curvature="0" />
    <path
       id="path12031"
       style="fill:#ffffff;fill-opacity:1;fill-rule:nonzero;stroke:none"
       d="m 631.44643,220.35523 c 5.5625,13.675 21.15,20.25 34.8125,14.6875 13.675,-5.55 20.2625,-21.1375 14.7,-34.8125 -5.55,-13.675 -21.1375,-20.25 -34.8125,-14.7 -13.675,5.5625 -20.25,21.15 -14.7,34.825 z"
       inkscape:connector-curvature="0" />
    <path
       id="path12033"
       style="fill:none;stroke:#000000;stroke-width:4.01249981;stroke-linecap:round;stroke-linejoin:miter;stroke-miterlimit:10;stroke-opacity:1;stroke-dasharray:none"
       d="m 631.44643,220.35523 c 5.5625,13.675 21.15,20.25 34.8125,14.6875 13.675,-5.55 20.2625,-21.1375 14.7,-34.8125 -5.55,-13.675 -21.1375,-20.25 -34.8125,-14.7 -13.675,5.5625 -20.25,21.15 -14.7,34.825 z"
       inkscape:connector-curvature="0" />
    <path
       id="path12035"
       style="fill:none;stroke:#000000;stroke-width:4.01249981;stroke-linecap:round;stroke-linejoin:miter;stroke-miterlimit:10;stroke-opacity:1;stroke-dasharray:none"
       d="m 656.20893,210.29273 -24.7625,10.0625"
       inkscape:connector-curvature="0" />
    <rect
       style="fill:#ffffff;stroke:#ffffff;stroke-width:2;stroke-miterlimit:4;stroke-opacity:1;stroke-dasharray:none;stroke-dashoffset:0"
       id="rect35508"
       width="963.68555"
       height="179.80716"
       x="-127.27922"
       y="-180.02393" />
    <rect
       style="fill:#ffffff;stroke:#ffffff;stroke-width:1.15826094;stroke-miterlimit:4;stroke-opacity:1;stroke-dasharray:none;stroke-dashoffset:0"
       id="rect35508-9"
       width="126.14421"
       height="460.71014"
       x="744.48242"
       y="-27.490894" />
    <rect
       style="fill:#ffffff;stroke:#ffffff;stroke-width:1.15826094;stroke-miterlimit:4;stroke-opacity:1;stroke-dasharray:none;stroke-dashoffset:0"
       id="rect35508-9-9"
       width="126.14421"
       height="460.71014"
       x="-129.74219"
       y="-30.561644" />
  </g>
</svg>
